<mxfile host="Electron" modified="2024-04-01T16:00:49.579Z" agent="Mozilla/5.0 (Windows NT 10.0; Win64; x64) AppleWebKit/537.36 (KHTML, like Gecko) draw.io/24.1.0 Chrome/120.0.6099.109 Electron/28.1.0 Safari/537.36" etag="jThDTkhMoFMcG6b0j5YU" version="24.1.0" type="device">
  <diagram id="f106602c-feb2-e66a-4537-3a34d633f6aa" name="Page-1">
    <mxGraphModel dx="1604" dy="1194" grid="0" gridSize="4" guides="1" tooltips="1" connect="1" arrows="1" fold="1" page="0" pageScale="1" pageWidth="1169" pageHeight="827" background="none" math="0" shadow="0">
      <root>
        <mxCell id="0" />
        <mxCell id="1" parent="0" />
        <mxCell id="LHDsr4IzRCI7zc75dxat-42" value="" style="rounded=1;whiteSpace=wrap;html=1;" parent="1" vertex="1">
          <mxGeometry x="186.6" y="-11" width="875.4" height="530" as="geometry" />
        </mxCell>
        <mxCell id="LHDsr4IzRCI7zc75dxat-29" value="" style="rounded=1;whiteSpace=wrap;html=1;" parent="1" vertex="1">
          <mxGeometry x="213" y="11" width="607" height="437" as="geometry" />
        </mxCell>
        <mxCell id="LHDsr4IzRCI7zc75dxat-27" style="edgeStyle=orthogonalEdgeStyle;rounded=0;orthogonalLoop=1;jettySize=auto;html=1;exitX=1;exitY=0.5;exitDx=0;exitDy=0;strokeColor=#788AA3;fontColor=#46495D;fillColor=#B2C9AB;" parent="1" source="LHDsr4IzRCI7zc75dxat-16" edge="1">
          <mxGeometry relative="1" as="geometry">
            <mxPoint x="284.0000000000002" y="208.8571428571429" as="targetPoint" />
          </mxGeometry>
        </mxCell>
        <mxCell id="LHDsr4IzRCI7zc75dxat-16" value="" style="rounded=1;whiteSpace=wrap;html=1;strokeColor=#6c8ebf;fillColor=#dae8fc;" parent="1" vertex="1">
          <mxGeometry x="-95.60000000000001" y="145.76" width="184" height="125.62" as="geometry" />
        </mxCell>
        <mxCell id="VP4T0eHwjd-KZM7UqZH9-759" style="edgeStyle=orthogonalEdgeStyle;rounded=0;orthogonalLoop=1;jettySize=auto;html=1;exitX=1;exitY=0.5;exitDx=0;exitDy=0;entryX=0;entryY=0.5;entryDx=0;entryDy=0;fontFamily=Helvetica;fontSize=12;fontColor=default;labelBackgroundColor=none;strokeColor=#788AA3;" parent="1" source="VP4T0eHwjd-KZM7UqZH9-722" target="VP4T0eHwjd-KZM7UqZH9-726" edge="1">
          <mxGeometry relative="1" as="geometry" />
        </mxCell>
        <mxCell id="VP4T0eHwjd-KZM7UqZH9-722" value="" style="shape=image;imageAspect=0;aspect=fixed;verticalLabelPosition=bottom;verticalAlign=top;image=data:image/png,iVBORw0KGgoAAAANSUhEUgAAASwAAAEsCAMAAABOo35HAAAC91BMVEUAAABDh/1fmP1Gg+pglO2jw/mPtveArPZ8qveFr/ZzovNjmfSUuPZ3pfOGr/VChflnmvFtofltnvNAetlJh/BalPddlvhdlvZjmvlhlvFDg/FBhvxEhfRXk/lChfdChPZDhvtHhe9HifpOjfhWkfVnmvBuoPY/edxGh/ZLi/lTjvJcjd9Dg/BDhPVChflChfpIhvFfl/dEgu1DhfZDhvpEhvdKivhYkvdEhfQ/et1FhfJJivtPivFDhPNEg+1FhO5Ce9xPjvpVkfpUkfpwo/tAeds+et9DhPFFiPpHifpLivZLiPBIgN5RjvhRiutEguxChfk/et1Bhv1EhPJAettKjP1MiO9PjvtYkfJWiuFkl+xckOdEguxChvtFhvdEfd1PjPZNi/VPheFBe91Hf91MiO9Lgt5Sh+BAetxGf95OhN9Yit9Qi+9VieBFgupCfN1RjvVDfuFEhvhDh/v///9EhvdAe91EhfVGg+tFhfFEhfQ/fORFhO1FhfNDhvpAe98/fOFGg+xFhPBFhO9Ae9xBettGhO1AfOJBetlFhPFEhvpDh/1Ae+BAfOD9/v8/fObt8/1hk+ZDhPPn7/3w9f3g6vtZjeijv/BCfuY8eN89e+NBf+js8v250PZDf+NCfeE+et5Eg+93ouu50PREhPGuyPQ/e+I8e+ZQiOb0+P1tm+hBhfi2zfRsm+w/f+pBfuRDfeCwzPzJ2/eow/FDgOhBfeVSiORFf+DQ3/hFgec+e+I7eeK0z/xgk+nl7v2qyPuyyvSlxfq50PWrxfKjwPJJh/Jgk+hklOdSiOXv9P7G2vzB1/zE1/a/1Pb5+/9Ag/ZilOhnluZwovpFh/djmfZGh/auyPKow/CiwPKtyvxQjfZBgOxAf+tBf+rc6Pvi6/uQt/qmwvE+euBUkPhLg+Hf6v1pnvqbvvhflvaMsO1RiefX4/lclvnN3fhLivaZufBxnur2+f6FrfFpmevT4vq70fVmmfB0oex8pepZjuU9ed7z9/+hwvpxUXj3AAAAcnRSTlMA+oL1dQIECw4HFCwDEgn9JRca9bhJQz03M/j05VX8+djPv4VlIR75xZ96dvz29OrAUPLx5takXezl36qA/OTYzY9rYCf9/PPJtrCel3Ju+vnx7+/ulpZ+WVdBPOvf0bmXjHjWrqmKZeCig0mIUPfC0vWlxEwTAAARBklEQVR42uzbPYsTQRgH8CfC7G4SdU0gLxITl9x5mCuyBPNSpMpLkQgHIRBik0O/wq5BsdgP4IEBbfUTCIJioSCIpQoWWvlSCII2KljbuBpHMp4KJvvszkz2Vz5Y/fnv+MzcHYRCoVAoFAqFQqFQKBQKhULrjKiJo5X2gYC1K9mkRoBrRNnKt4qTYS4SsNxwUhx1uoc5zktLt4zcHjdyRqlyCPikpZrDPc7k+vkYh+0i8VE1sscfs55VgDPRVI/HqFwRo6EBV2Lj6h63hqMt4EhilLM5FmkeAW7EWlxn9T0tbrp16BznWblplThJKzoe2tyLjLg45Umqagtg2OFh30oUbSHUusGndXgcscUwCvzqQzKGLQgzDwHTSqIUy7b7CQhWXoD/CancDoH/tJan+5zRhQApm9yvo4si4ygEp9uzhTLJEAiK2hLndJ+rJyAo6YktGLNBIBhaU7cF45wMqlp5oU73OX3nIAQhKdTaQBlxAv6LtgUsllutDRX8d3TXFtIkBb5TR6KtDT85/Rj4LS3Ek99+QTwDak3HFlUvCb5SGkKe7nOR7Sj46YiQawNlZAn4J7otcLFsWx+p4J+sMG/Jf2ZWwDdqXbhLIcspJsAvadMWXK5zEPwRO+0Ir3cCfKFslh3hDXy6IsZ7jgSMDPggupFzJKDXVcCXrTpSKOcBnVp3JFGMATKSMh1JlDsK4Er2HWn04oBK2ZFgbaAGLRUwxXedy/KYpAGR0hpclojexKxWpnpZKuX8QcByqC7TR+hyiluAhORNSzLltgI4ThQdSza1o4BCGZct6QxKKmCIG/IVy7LMNCCItnRLQk5TA8+RdNWSUrmhgNcSTSmL5Var2AWPkY50awNVHntdrSM9SYvlmmTBU8rGwJKW7u36QOKGJTEzTcA72ll5P0KXczoBniEVSdcGyssrYrIvdbFc3r0wk7aEl0LWYMOranV3LelVs179CLpgSU8vaeCFrNRrA1VNEVjdoZLsp/sPen8LVkYa0l4KWeVtxYM/Z1qLYrnVqsVXXxskvhSyCudWrVa3Zq2NagZWoq7D2kDp9RisIrMWawNlniGwvBjyW/LN7/48/uu/RqSfPLHKW/IpC9Hn989d799ZrFf/HL+yEB1f4YU5edJC9OrRtceu608+MuN3L+fjp7+NH8zHD9wxnuXXB2UHc224+fbr+R+uPLzAjL/Mx88eseMrP8cf3DEafenfbztamyJ68fDK+blPF68uzB/Q8R1mfPv8TzcuXpjiWfaKqLUKUzSLYd27f+tXLIth3X/za7wY1t3XiGkVmglYRurYFA8b1uzWJTpeCMsd01iYsGaYaZ3aXKZasT5qsdiwZrRbbFi/0mLDmr1BTGt3ifWBbB6fYmLDWkjr5WJYM/olsmFhdqswVpZYG6aY9oVFv0Q2LFoiNizctP5/fTi8jVwsNqyFtNiw6JfIhIWbVuGs9t+XwimqfWHRL5ENi473hYV5bn0j7z5CnggCMAzPJZpoFBVriL2gYlARNZZgRUFREEHEg9g9CR4SlkRCwnqQgK66tpi1Rdfeu9h7r2DvFXvv4sFYMpkxyWZj5tOoz3GOLzP7z+7+mXVXt+R5omYNHxYfi2ZJi5W8bnGxsHOrRp5ndDZv6sNKi0VXIh+LrkQ2FrqWq7OFmFeqjg+Oj0XnFheLqcXHAq/EgeXy+hW0D42PxdTiY9GVyMaC16pRtywxqxxq27Cc4UvdG2qLU1bR4XVRdvgSjcUNg2rVqmr+WTJo2/Dk5lrG9WSVWbsXMujwFH44GesGO/r8HaZWjUZliDmVnT6IJ28Ur2DKjXeqD8Ft8oxOayvMxDp1U/EKp9xaFfAB1DB5AEvzFj6IU3sUr3izx2Bq1exsN/UK2oeAiwWpZe4W0dbZ5UMAxhpzBVGrZl2ricNTfBC4WKhabSvn3DYMAm0bkLEwK7FGj1LEWGW3DwMZK+EaoJariyXH4SmSD4ONpcyaUqiTbCzQSpSMj/i2V28hwaRiTX0/vUCvd/KxEq6pkmg1e9kMbwolEC7WpB1jCvRoWipW0irxtVpWNTpR0yWBAGNRV4XXqjnIavAKWgLBxsKtRGelrFf3RjUlwc4xQLE2RlOuBSSxamQ74ttSyS2Jdfnmdsba615hsZbQWDd2s+7fkcRyZTlkq0w7Saxnn1+yOyvFi4jlVVgnt1+WxGrYgGRQoovobcODe14OJhZv1kpVEqpm+7IkXWnh24azO39/rKnzJwqulekW0VbXJQnzJ2PFBP9NrJnhF9TVnJIwfzbWGE1srRaV0rcNkjh/OJboWs1KEY5d7LbhT17gY2NE13LVsxFWhR6SeM92nfzdsZQTSwB7+YZd+f9LbiEBXL65YnbKXsimdOdsxt7njxB31a7BZbkTNSUI9drG1RuTYvsVQKy9Gxmrx2CeQTgrMxNrcE0JQ9XGUNsuGsR69HplVq+nG8XixkF31Z7UEd+Wqk4JRb1mKtaLx0emZnVk2qu8Ywm+yrdobqEnako4gWsmYi154zV0Y7r5WJiV2KxB8lmyWwJStfRYB8dwYgdneQ0tfR8zjIWfWy1+PGGuUFENIKlaeqwYH+t0rljzs8eKGdYKCKLWLv39H95bBLBUDR4LX8tV1/71itVMDYDpGjwWvta3X15UcQfgVA0dC1+rZnVC7HXVAJ6qgWPha6mtypJSDQNQtBY4Fr5Wy66kqjOARWthY+Fr9a1OoH8L1WCKf+J+SKzVrFgMV8tTlwwK4Ny5f4w1zQuINeUEa8Z03NxSexDgJSvxPEtheYXEMn4V9nYJrJY6mgAvWWlPSiGxeLOWxWC1nMQTQFHP7kTFMn4Gj6rVlwQA8LEOG8VC1XKRIIxBrMnjOFsP5Yy1aBzHINbWcVloerAwLuIJCvBXxCq4Vl/SNgjz4B4+VvoFnovFixZWy0maBWGe7XmpcCCx+K3DiiXjEiBzSx1NOnmCMIlXYazriFg7V7CeHx6XgKml9iCtWwRxVG3cImrbfgUQa8EiFl2DgJXoqUuqtg0C6RvGUaBYaT1Qc8vdnJRpFkSKbCiyWL9eq2VXYm+sBiForSKL9au11EY2Qqq6gxi0VpHF+sXrlqs5IcRa0ROE0jcUWaxfm1u1G5CE1n2DWJENRRbrV2q52ltIQvkeQbCIVmSx8l+JasNyP7594vRjfZ1b4TAbK8ybnCvWizBvUypW+FeM02R/Xrr3LkG+sfbU/WC6Fg7PzB7r7havoWkfRcWi8qulV6xAvrNUa+tHi2xIi8VatmXW1KwmXf8QFhaLiuZTy506kdPe3uFH0zekLUPWpkPLsjqzKWwYC1/L07MsocrVBi3EAwztFhOrAHyst3NYoJXYtgpJsdfr6we4c/8o64YXEGvWcdb+j4i55WhvI4xSwwFT6/JaxctBxOIpxzeJr6U3K0dYlgHitw86fVKKj0VNerFV+Ers/vNXW22DVL9g+tmduFgGz+BFX7f0ilbyk9Jt/8tYJlaiuzL5WYnG3f3Z/buxctZyDCpJ0pRr5s/mn46VayV2qErS2fuL3j4gL/AGr8LE7k4dvWyZT73V/UIduD9V4SBiKZyl++6K3MvTm8J0VURvHy6/Ws+49RgRa9p61sNNgu+qu/e3k4xs/Tx+seQNc1Nuz1AAsRbMZY0XfJ/o6VGGZFG6tl8UWmsCNZOJNaFATKwJQqwe68+k7QCDb8eI2z7QWuG/ItaEaKZajsElSVYNKup+weRopljjiy5Wxlq1q5HsLJXEbh/oSuRjTf0wuUAvdrKxUCvRUa8EMVC2Z5OIaIla479KxVKmTirQVIXGGi/MxniEo1csQwxVcUaEkzUaSyAaS5woX6t7rs8zlB3siAgnR4GxbqNqNRluzX0WvB4RTtb+jljcSuxQxcRXBrpHxJO1vyMWM7cc7UuSnMpX1CPiydG/IxatpdcuR0yo3DcCIGt/R6zkSnRwH1jDbx948sSHJ73CKTMSsQBzq0nFUsSUKm31CEB8+tOTCsNLKb8+fP1QIhagltPsV53KtnfICPHpD2cwHtMve9zKOLyTH062us4OP5wcAlgdb9LPSkyq3ywuI8Qnzkz5RF9QP10zk7GefkomxA7vS8ZawQ5/CkGs7lCNmFWidXcZIh4NUWsu0I8UbQ6lzNtHY7HDofP0ir4mBNdtiI2YVqYinVqgWsUdq2MDkofKThkjro0PfVXUsfqMJPko2c8hY8S10FfFHKvbsFIkL1U7yBRiJRZzrDajLCQvtt50akFqFXGsbiOsJE/lm8kUYCUWcayh5Ui+LP27yyhjo6HijdVtiJ3kzdqjiYwSjxZvrC/t2MurEnEUB/ADNaPjYzCvPQxaCNmAtbi5CUPUjW4UQxDJB0jde332oI3MYiDMurQNioLCO9KqVS2iaFEE0TZo1bJNEK2C/oLsZVrOaOP8XtN8lmf55ZzD+f3GZ4MBlZNXkBndpTWsYpkDAxznUOz4SVp0hpVpu8AQd+gKOoM7v9+GGmFNpYItrFgFjOEPH7yCzujLzV9fUpenqJ8e/Ci/ua3OlN/8LH++jFCmI4BBrsCxATqvP966N/bi/hO1N+XD7e/l9y//KL96/738blxGR+dsWHw+RAcIvX7+duzGh96spzfmldUPP8pPewhJ47PBMG/22ACh0UN1rPcnVdUrI6TW/bCCA8kBSqM7PZpMHoXGOOIHB1OsnVYm54WVhEODaZZOKxaEFR2ebS0Lp5XpTLY7necDTWmlfLAq7lBtMMOqaRXyHliZs/RHa1kzLXXTDyZwJweIjX9seqTFKhyYgI/83VqW6y0154Cf6D4faEirFQRzcCeiCnJk05I6PJhkz5aC3sMeQRfDYBZub0L5i5XSKjQ9YBrHuWPKXyyUVtsLJvIllXkssrdiVTCTJ3JKmcMavZXJCWCqI+sKDsMeARtuMBd3uqbMx/wkFs7yYDJXdqTMxfwk1sNguqrm+cD2JBbKHjAdr3U+sN1batsBCPhCihaG91asCih4IlpPRIZ7S8oJgMSRgDIfw2ml3DCDsSci1kksNHlAxJlVMOkPr2JR9wMywYSCy85VDIrnOUCGj2s/ERnsrXRbhFlsng9Y0mpVASU+H93GBXlaUkMApPZs9bc1MJfWRR+gxVUS21oYS6tQ5gExsaTdWmylVfcCcsGTyrYWltIqdgE9PqKz49lJS8qJgIFvXWcQmUlrIwg48Kf1WouRtKSzAmDh3NLbWmykddEPmOxP9HGSh1evmaxQ5gATsXSqj5O8Y3JW6boXsHGH+ljJQ3PDinUBHz4f7euhPC2pIQJGRwJ9XXSnlXIDTp7jC1uL3r0l5QXASszKfX3U9la67oLFWD4fTEyrWAbcxDOLzwcqJzG96YUlsXs+mNVbrSrgx59YuONpTEs6KwIBrsXnA4VppXxAxN5lWouyvSU1OSDCkV1ix9PVW5OzAb9qUiZg57pxsTKQIsYvyItRlFY65wViwusyCTvXDIa1EQRyPKejMglDY1lN/pLJ8Abk5VAxiakwELW3Ji+DirTWmhwQ5SidkokY/vPemjwKyQmG5OUQ761WF0gT8gbOBxJppRtOIG684wkZMrXdf30DygbgTqtYBhrw+ZpsAN5JXGs4gArOiIHTFG9aUm4PUMIZ3yUTMmQtKwDXOaonca3tB4o480mZkEeL/2U6FPXVN/z+AKX3lpTqCkAZLhxPknj5PNNPK93KuT1AH7FaSjyWcdOfxOJml4K7fS4hGFmv4W+vZxppFVONKiXX1Vy8a19kK5So7cLs0tqsYmxjs3PezwPlBG+4cvzwbsyOzmiWKz6XyIHNZrPZbDabzWaz2Ww2m832H/sKSY3XcS5iM1oAAAAASUVORK5CYII=;labelBackgroundColor=none;fillColor=#B2C9AB;strokeColor=#788AA3;fontColor=#46495D;" parent="1" vertex="1">
          <mxGeometry x="289" y="178.19" width="60" height="60" as="geometry" />
        </mxCell>
        <mxCell id="VP4T0eHwjd-KZM7UqZH9-761" style="edgeStyle=orthogonalEdgeStyle;rounded=0;orthogonalLoop=1;jettySize=auto;html=1;exitX=1;exitY=0.5;exitDx=0;exitDy=0;entryX=0;entryY=0.5;entryDx=0;entryDy=0;fontFamily=Helvetica;fontSize=12;fontColor=default;labelBackgroundColor=none;strokeColor=#788AA3;" parent="1" source="VP4T0eHwjd-KZM7UqZH9-726" target="VP4T0eHwjd-KZM7UqZH9-727" edge="1">
          <mxGeometry relative="1" as="geometry" />
        </mxCell>
        <mxCell id="VP4T0eHwjd-KZM7UqZH9-726" value="" style="shape=image;imageAspect=0;aspect=fixed;verticalLabelPosition=bottom;verticalAlign=top;image=data:image/png,iVBORw0KGgoAAAANSUhEUgAAAOEAAADhCAMAAAAJbSJIAAAAwFBMVEX///9EhvdEhvlEhvhEhfVFhfNEhfRDh/xAe99Dh/tEhvZAe95DhvpGg+tFhfJAe91FhO46g/2Ttf6Vs/E+f+k0fvbK2fzR3vctc+LJ1/Uvc95MivU4eeE4ddiTrufu8/74+v8se/g4fvC+0f6lwf2Zuf0wfv1zovxSj/y0y/05gvtqnfuGrfzf6f7D1f2hvvxflfl4o/d+ounc5v7m7f5plekib+KxxvJbjedVj/WEpupNhOOdt+xbi+Kqw/ZvmOM7EgtqAAAId0lEQVR4nO2deVviOhSHK/sozrhQltJe0rKobIKiDONc5/t/q5sC9RYobZJz0qTz9H3m7zGvJ81Jfl00jJycnJycnJycnJzM89ofDO9kMhz0X9Xp9R9Go1v5jEaTvhK/4e3otpoO9CcNSdp+T6npBZJPqfqRyShVP5/RhKQn2PuWbgF33H7rpSaowm/rmJIiGSsSpJBUDBfqDMeLNAQHquaoz+1AvmAv/VU0zEj+pfig8CqkjB9kC7bUlpAWsSXZ8FGxYLX6KFfwSeUys+NW6vaNqBekikSi4d34m3rGd/IEVyPVdltGK2mGEx1KSIs4kSXYdFW77XGbkgwvq6rV9lQv5QgOblWbfSFne0p0maM+LpFgONVjmdkxnuILzvToFAGjGbqhwnNvFPhn4bmr2ukId45sWK3rRhVX8HmsWuiE8TOmYM9V7ROBixloLPUrIS3iEk/wVccS0iLi3Xd71G+d8cELNPp6lpAWEeu+oo4X4Y4xjuBQY8MhhqCWnSIApWM8VAv6UkWIwFuuaotYXHgE/lhXLRFLHdwxnkzVDgmYwAicjPUuIS3imIAM78aqDRKBReArvZeZHS4kAp/oPkd96oAIvJmFEtIiikfgl1koIS2icAQ+0L1TBJiCEThxi1nBJUKG07HqgTMjFoHPslNCWkSRCHxRVz1sDuoCEfg8SyWkReSPwOsF1YPmolDnFXw2VY+ZE5MzAu9la476cAYayywtMzvqXBF4K3slpEXkicA3hYvsUdiwC/ZN1aMVwmSPwOtF1YMVosgcgQ/HqscqCGsE3svmHPUx2TrGQ131QIWpM0XgzeyWkBaxw2DYzeYys6PYTRb8zHIJaRE/kwSJmeUS0iKaJMHwLrvLzI56QgS+ci+zTkIEPimqHiCYYmwE3jRVjw8BMy4Cv7xQPTwELmIi8MHfUEJaxLMROPk7BKkiOWM4hXWKookHsGOcicBfXZhgud/E4qkI23ecCTQWsOiC8eTCxgxWxUJkBA6MLlj2vBxYsCJGBhpeCQauod0oXUBG453+l8+mXoZUEcJpBN6DCkINe62D/aQNVjxeFpbQSQozJG/v7feP0E1AG6roHUXgLRcqCDP8sHyl9/9/7zZY8eiZvm5RqeG6vTWyXw4NQYqHi/sT+CqEGb7Ye44MQYoHz/SBL0JZhiDFUMcYqjY8N0thit5XBL6CLzNAQ+PajlppoIpfgcakoNyQ/KTdwg7tl20MxcI+0GiaFQSgHX/VOTgPhAxrDeFB7QONTUkHwyPsMMKKpe1N0w5KCaUaiitu72Msi/obCisWl344gyJIf12YJ+BVG0nRJEjrTMUvYqeFxbxmHyOoSKfpwEMyrJS8NhbWiaCoojcwpjiX4VaxHDEwPIQUi1NjgdIrAsXT2aVYsbQwuniCWlaxa1TKmFS+12TSKPMP1+iiGpbLshV56RoL3CLqplhZGNMSsqFeiqUp7YdYZhVvf1sF3hctG0uR9sOOiSXYbWLuaZAU6Z6GYBki70uRJqp/K3GJcyFWkM8WONdiyc+FkaYptiGOormNhTcoRUzVkFVxd8ZHKiLUcHac08QaMioGjyo+lL7DKYMMez/bVrsWztriBSkMYyoFj5uuTOWGu+4QzksTDRkUza8bdkNPseHa2o45nHknGyYqeqHHvr2yWsOXQIjLMEGxHL7TvYYXUYVhvKK3Dv+ITUWpYTBLf3EaxilWDl+haYEXG9hK8+Eb2W2ulSZB0Tz6rssS2jFghuTt3Wp/hJ5VYDU8q1g6fpWtBy0izPD0WQxWw3OKpweBZ+BiAzU8gt0wWtGLeKUUutYoM4xUrET8n3NgEdUZRih6ka92L2Bt30N9NtHiMTxRLEe/nv8KXGxu1h0s1lx+p4rmmRdmp7B5WvYsNHgNDxW9c5/JIOC2zz0wPMLDOP9m0Cd4e6qFohfzdtcN+IyhgWL5+3lBowk/C6tXjH1nxpiAzxjKFSvxn/5auWBD1YpJn2+7Qwg0aleKBK+oopf0CT6CYKi0ih5JMEToGEoVrcT3gA1jg2CoTNH+SBY0OhjpqSrFNtMnaR/gHUOVov2HRRAeaKhTbDOe4O4xFhsVitY/bIKGgWOYvqLFKmj0s6lorZPVAlA6Bj31+7ub1P7VWDpFwKt5g0PtKj0sro+XL0uZUwzdmmOh5yEZpqdocWZ9g6wp2r/5BA2DrhNZUgzdemRljlbEVBQtgS9e/0QrYgqKtX/5BY0ZVsdIQ7Et9Kf0ppXMKIZuj/NA8K5E2YoWETI0PjEVr37Iw2aILqK5RjSUqHj1Q1TQ6GAWUZ6ixfIpwTO84XUMeYq1N3FBY4XYMaQptkF/pvuuob2izRxdRILaMaQoCneKgLXuijzRRTQbXENsRa7oIpoWchGRFfmii2iWuIvNzQ2moMMWcseDF2hIUOSNLqK5xy4inqLDHV1Eg26IpujgCBp99HmKpAjvFAELdEMUxSuR6CKaV/wiYihaeH/T2XjBvxThig5fyB0PfsdAUMTpFAF4ETiaIn/IHY8EQaAif8gdT9O7lgBAEBJdRPOzoZciXqcImEkporCiBYouovklpYiCio5YyB0PkVNEMUVodBHNpz6KeBvSQ65vdFGERxfRdCQVkVsRv1MEvMlZbHgVUaKLaFZtSYZ8irgb0kPuZRWRR9GBhdzxyOoYXIoOkWhorNUryuoUARtp85RVUVanCGhJW2wYFTFC7niW8orIoiixUwT05F2JLIoyO0WArO0pkyJWyB2PnLMwk6KDf+6NgjTUKZJUDOmlqEjRSeEi3Cteq1B0fqQmaPh/0iR1ResPSVHQvx+Vbl90HMmbtQieG/JWnBM95zdJXZAyX3peQw5OCMv5E/kdj3SYzT/vpfDPnt+fc6HHf3NycnJycnJycnL04j9Xtggjw1mGpgAAAABJRU5ErkJggg==;labelBackgroundColor=none;fillColor=#B2C9AB;strokeColor=#788AA3;fontColor=#46495D;" parent="1" vertex="1">
          <mxGeometry x="492" y="178.19" width="60.5" height="60.5" as="geometry" />
        </mxCell>
        <mxCell id="LHDsr4IzRCI7zc75dxat-48" style="edgeStyle=orthogonalEdgeStyle;rounded=0;orthogonalLoop=1;jettySize=auto;html=1;exitX=1;exitY=0.5;exitDx=0;exitDy=0;entryX=0;entryY=0.5;entryDx=0;entryDy=0;strokeColor=#788AA3;fontColor=#46495D;fillColor=#B2C9AB;" parent="1" source="VP4T0eHwjd-KZM7UqZH9-727" target="VP4T0eHwjd-KZM7UqZH9-743" edge="1">
          <mxGeometry relative="1" as="geometry" />
        </mxCell>
        <mxCell id="VP4T0eHwjd-KZM7UqZH9-727" value="" style="shape=image;imageAspect=0;aspect=fixed;verticalLabelPosition=bottom;verticalAlign=top;image=data:image/png,iVBORw0KGgoAAAANSUhEUgAAAOEAAADhCAMAAAAJbSJIAAAAq1BMVEVDhvr///88eeFAhPpclPpDh/s0f/o4gfr3+v9Wkfphlvo9g/oxfvo6eOHj6/5AgO8tcuCau/xQjvqow/w2duC0zP35+/+Os/w+feiAqvvB1f1AgfCFrfvy9/9mmvvZ5f53pftWiOSjwfzU4P5voPvn7/7W5P64z/3M3P4qcODH2f2lwvyvyP1IgeOJq+y7zfN1neiZtOyrwvFhj+Wbtu6Ep+tvmOZkk+amvu8wIXO7AAAMrUlEQVR4nO2de3uiuhaHUSpRQQ9aqrW7qK1ipUd7nZk93/+THdQCCSYhlxXA87j+mGf3mdmUl1xW8staK1br/92sul/AuF0JL9+uhJdvV8LLtyvh5duV8PLtSsiz1WjZvzFv/fVoWwdh99lCyLWrMBc51iismvAu+a1VGkJ31RLOPLtSQMuyvVmVhOtqG/Bkzrw6wmUdgAnisirCnVcLoGV5u2oIw3pa8GBOVAnh0q2N0FXop/KEq/qaMGlEed8vT9iv2k/gZvfNE97V2YRJI0o7flnCbq18B+saJpyimgHR1CxhVJcrzM0bGiWs0VOk5q5NEr7WO82czHk1Rzjp1ekpUrN7E2OEuyY0YdKIUstTGcIQNaEJk0ZEMht+GcLHuj1FaujRDOGiGX30YM7CCOG6fk+RmozHECd8qN/Z5+Y9wBNOxs2YZn5sLOwxhAmfmzMKD4aeoQnDJvXRg3miHkOUcNacaeZkwoKGIOGmKa4wN7QCJZw3rQmTRhQUiMUIX5o2Cg/mvcARTjp101CtIyRoCBGOmuUpUnNGUIRRMwEFJXARwgZIF3QT8hgChNvmeYrUkIAELkBYq8jNN/sGgrBmkZtvAhJ4KWG3IdIF3WxU6jFKCWsXuflWLoGXEQ6bDZgglkngZYQNki7oVipolBA2QuTmW5kEXkLYCJGbb3ZPh7AhIjffnFt1wsZJF3TjCxpcwsaI3HxzuRI4j3BxGYCJx+BJ4DzCxnuK1Lgeg0PYKJGbbzwJnE04Gdf93hLGkcDZhM+XMgoPxpHAmYThJQHyBA0mYeNEbr65zAhiFuHqspqQI4GzCBsocvONGdPHIDQhctuuixJzXdfIct5jCBp0wgnsL7dd5KHxfPk4HY1G09n6puM58OKITfcYdMIR5ChEnr28XUWYoDIJo4dR33NgRwKiS+BUwgjuA7vIGjHmgPBljRzIlqQLGlRCKJHbRmjJ1WzDXQ+wIekSOI1wC7TvRWhaHin5OodLv6FGgdMIYaQL23sUyx3YjqGUBKoETiEEkS5s1BePdN1ZQF2VFtN3TggicttIKn4wAkqkokng54QQIjfqSYYqt25h/BNFAj8jhBC5vaVUjOvRNjA99dxjnBECSBcOY7PWDYeLxTAK6fhhD6IZzwWNIuGr/oKUlmHWXdzO+pZ3NDRejx4o02x3DYHoFSXwIqF+fB5lBbx6HDuOa2ePPiT2zndnkBMQxDGf8FZ7Tjs/s7ztoPOeb9sOmp2NmT7AWHT+yyPUj+T2CmNwsrOYDeN6ywJjF2CxUYwCJwm1RW6nICZse9xO4TojctqJ/tFHLESBE4TaIrdbWDZNS/uE0yP1aog1MSmBE4Ta0oVNzB6RyPxvF6beT6QdYkbG9OGE2iI3WRVgYYt9MI/cuT79RxuRkMBxQt0nk952ZYsOKYcYOMNYHxGnwv5bOz7Pw/voRkJvIueGT/8fXUQ8pi8n1JYuCJ0kkhLUiI7a3Q90EW0UUQi1Re4O7ock10ZENOyX39ZFxCTwjFA7CZ1Yb8+k/Q7m+yftgTaiszojvNF1tXgTPkh/LheXrP/6bV3EXNBICe+0PQW29wwV3g53i5OEUBcx2wD8EOqL3Hg6mYqgTAgQvwN9RGtCEGqL3HjcjlqQCj4Vb+K2NmL6vBOhvnSBq1ys9btz2gEz+G18yfcUACAOMUJ9kRvz9qzT4/F2dbRFj/73+GT8diRsa61ufiTwI+FWW7rAOylLb81SsFlh1ViO9urYTTURvW1GqC9d4DMpE6Bb8g+8/AgnTFyiNqI9TgkBRG4nX80zx3QpoYt9pu9TN9VDPMb0JYSh+iPyZ+XDcKdMiItIb34bANEKj4QQIvc4d2bM9W05ITZdvWeEOoiHwWOBiNx2vqueMGZKEUKsr29yQi3EYUL4CKDgYUt5dqRROSHm9KOgDYHoPrYskNgn7NUWTM9TTogd4k6CAQgiCi35bQDtOXkgMva8rHjl6cdyQvyEc4ATqiM6D9YU4sgHk6Dusj5hj/uJzRM7/VxOaHVywj1BqIzoTq05xJG2k2/Rc+eaxQv+5C8KtKGdEz4FbQhEe26BlErAJsH8qDMbnEMIQkVEe2yBpPiiF/OEiogdmDakjsNSQnIiOr4OcxyqIiZtCDIOUX6ilc+lZYSd1LI3wOfS4JxQBTEZhzBzKc0flhAmE1H3YJNc5WP6Q3XEZC4F8Yf4mka0DTMfujn/JoU1jQZi4g9B1jTEujTtdPKEjHWpDmKypgFZl1rjXCzN9hbyhPS9hQ7iYV0KkyWKvVs2mcoTUveHWojHvQXI/hBb1ETKhIi2x9dCPO0PQfb4uACR+h9pQkynidq0qVQeMQTTafAOlsoYGXUJYXZ0j6X2bGM2oDjiUcQF0trwqqJpyIptRUKE6ZkQoZcyh6EEYq61AeilROJROrDTU28+YZpflX2QxCaUNZs8IqaXQgR2Y900q/byc9jMJczqiuDzzIrbSQURcc0bwmMQZ08p4ikogkc4zAaIVzx70kUkzi0AEizw1Kr8/PCIyCHMgwfw88OwtAkFEMmzJ4DzQ3wY5RsM+7CvYhOurBSQiPL5xZ9nBBHJ80P9M2AyFCM7x7edKUPFSAgxedzFzvG7PGcoilg8AwY4x7ddeiyGc/Pi0gjd6TrPmCFiMcSakI94fo4PcCEAEfcTYfvanycXd8BuPoET8TTc9YwoIiUWAyBp1MNjAhdnfYJ9fkiGfQlMpKWItHgagHQuMslxU3zeeHXsxuGweLLhEYAbkYm0BJEeEwVQd47MqB4W8wsQQo6T/FF4m0JsYluiCVmI9Lg2/djE5NMRsavRXCS+tHCR02/RaSZDpD0VeyBofGmy1iWzckaleWmoECM8jIWnGXYrMuNLAdKbUSGhY8PPS3O9UTG9ZKWPyI4Rhihm4hQTj3ZjVp6o7aIlJbFk5esicuK8IQrSnKUEdXc9jxJsaiN3Ri+6sqVKpeKIvFh9kMr5lKyn1dQ6pDXnawDkeJScmQxRqxX5+RYAOTNnkeknW+xm42M6PkKuNR89cAsfaY1Ffs4MiKBheaw6eNFwsVhEAmWqdTpqSd4TRO7aYUaVv4+R/D/UEUtz12BKJ7mdjSTg24AcllvFjlqefwhVKNF7k0kjHe79ICggqk03AjmkUMUunb3wFWnhp5+sRYM2+XJKHVUkDxiuYGn8R+yeja/9aSka7AuI8q14L5TLDVdK0PcFGBO+FCTQHovx1/kvMFdTwbI690H89M6bVoefvo9tlnTHYvBE+R0m62JY1n07iIOPd+rqZTL8+x0XxlpxLL7KjUVftC4GXAHvzn27PQjiwdPb+wJvy2j19bEnmi9DJL/Gq8xuMfhDgzFcn+aAeID0E5zg6d+P378//nzvjz/SW6fYUb/EEQe+eH0ayEL69/kbBD824HW9QkeNxFUb/43KYr5O1H35u5GIhNPYCrfhIJCpEwVZ66sjjYiNxbDsmC23+J2OUkG9NnlEP0WM9sLCW/DNIKmk5p58Kw5lAdu+bM092LqJamMxlAAMPlggFdW+lG/FVWsjAdj25WtfAtcvlUUc+HEsA/iLyVFZDVpZRCkb7FVq0ELXETaJyPIUJYTQtaDNIQb/ciiqrOdtDNFXrecNE5hpHjH4zYOotq6+GcRYva4+/N0IJhDjv1yGqu+3gEcM9nyEyu8oAUeM9e4oMXB7ADAi11OIEBq4KwgWkS5dSBCauO8JEjGgSxcyhCbu7IJDHPj6d3YZuXcNDNGniNzShEbuzgNCpIrc8oRG7j+EQaSK3PKEZu6whECki9wKhGbuIQVAZEsXkoSG7pLVRvQ/RV5eiNDQfcCaiIM23H3Apu501kPkSRfShKauLNFBZIrcaoSm7lbXQGSK3GqExq4OUkZki9yKhMYuClRF5EsXCoStZ1OXPaohckRuVcIJSPEFKMSAI3KrEhq8Sk8BUdBTyBEavA5RGrFUulAjXJi7dlUWkStyqxOavJZUDtHnitwahBBR4BCIA18mQFeG0Oj1wBKItPg8IMKJySuehRGDJ6k7XqQIzV7TLYrol4jcWoRmBA05RCHpQp0wMnqDrhBiLHnRkiShCQlcDpERnwdH2DUJKIA4CISkCw1CIxK4BKKAyK1LaEQCF0YUEbm1CfXT2jUQRURubUKzHoOPKOspFAmNCRrliLHYnZG6hK1dXYglURdwhK2l4aHIQPQV+qgiYQvoykk5RF9iY69N2JrBXQAriDiIRQVSGMLWHarUaQz8QFx7giFsdUcWQq5tyiw7yDJQAt8Pfsnn3eoSJrYdrfs35uzpx77//BI8ogAnvAy7El6+XQkv366El29Xwsu3K+Hl25Xw8u1/iiQeXW0t6O4AAAAASUVORK5CYII=;labelBackgroundColor=none;fillColor=#B2C9AB;strokeColor=#788AA3;fontColor=#46495D;" parent="1" vertex="1">
          <mxGeometry x="707" y="178.44" width="60.25" height="60.25" as="geometry" />
        </mxCell>
        <mxCell id="VP4T0eHwjd-KZM7UqZH9-728" value="" style="whiteSpace=wrap;html=1;labelBackgroundColor=none;" parent="1" vertex="1">
          <mxGeometry x="242.84" y="286" width="408.16" height="89" as="geometry" />
        </mxCell>
        <mxCell id="VP4T0eHwjd-KZM7UqZH9-733" value="" style="shape=image;imageAspect=0;aspect=fixed;verticalLabelPosition=bottom;verticalAlign=top;image=data:image/png,iVBORw0KGgoAAAANSUhEUgAAAbUAAABzCAMAAAAosmzyAAABsFBMVEX///8AAACee//m5uagg++qqqr7+/vW1tabff9paWlDQ0Ps7Ox3d3dZWVmx5/yu6fxfX1+54f0yyvff3989wviDg4M5xfis6/u44v3AwMAuzfeTg/59fX02x/hIuvkyzfNBv/ix6/Y7zelFvPmjhfiShP5Mt/ltzbQ+zeY3ze1ezcRRzdKAzaBLzdiZmZmXgP9yza95zadXzctkzb4TExM4WnU2NjYgICC26/FGzd6TzIxewdaLif6LzJRbvOJixssYP0aczIJcv9yNdNOg3epgw9Jjx8hSuOahzX2tzHCNgNxTteqXo/3Hx8eyzGugoKC+zF49PT0pKSmxzWzDzFkxTU1csLFQqrdGq8NIpshRn8gtSFlzgb54g9OBfNKFcL9YtbWZrf+ryuBcbHk+Z2VtgpFKgn1/nK1XlY0rOjeNsMIySkViq5w8SlCbxthPY2tDY1laiHZnm4I0RTt5tJBIYE+k0tdhd3lbemB2j45DYXxQr/yVxNhsj24tNi1+pXY+eoKUqr6Ru4Fbb1BLlZd1i1+EnGNFTDahuW9YYUEtREFxe0uKlFSlrVpyvqW4vFbA82JWAAAQcElEQVR4nO2d+3sTxxWGmbpaRZbkm6zYIjbGoWCwiWJiRQJTTOxiY4cKY8UJvaY0gRCTGHIrKXVKm15ybem/3Jm9zpk5Z3Yl78pPnsz3G3hvmne/mXPOzuweO3YIObFKdz+rFNRhcRpB98vF7scG+vxTfjyqxTc+Ss2Jp22pZaYOe/Ott9667elXrn7t6TeefotT41b73e+53nb1C11/sNQyE2/8OwsLL7300qVLZ8++eO7czMzxsbGx6ennx8dPnjx16sSJE6+i1BzGHv3x50KnT59+4eWXn3vuJ4p+aqllJafF7r6iUOPYpp8PqJ05g1OrM/YOoKZCs9Sy0zZjG71Q41Z7d/KXPrUXLLW+ymlwq6nU3A4yhlqVW23UUjsa1YXVDNROENSKwmoRtZcttT6KN/57r3jULnnUZpJRmxJWs9SORlXWmCeoCWgktQHG7k0CanoIaallJGE1mVoUjAhq427gj1IrMTY6aqkdjUrcavMCWkBNYDt+HKRrGLWKZzVL7ShUEVZTqKmBP0qtwBqT1mtHpAJrLXnUgmEtGbU8Y/cttSMSb/z35yE1LMnWqZVZZ1KmhqdrllomGnGt1j01YbWhiBqVZFtqWUhYLaJGl0Y0aoOsOTlpqR2NymxvyR3WVK+Fgb+XrqnUaow9GLLUjkZtxj7UqSGlEZXaDtsfUryGBiOWWgZqsg+WMGrHY7zGrfbQUjsi1VyrQWovgoJWUBpRqDXZ/rCldkTiVptb8oIRuaCFlEYgtZywmqV2NOKN/yyghpRGaGoN9si1mqXWfzkd9tFcRC0I/NHSCKC27VoNeu0FS60/cq2mU0OTbECNsXeHh4DXyMDfUktZTsuzGloaGTNQq4dWs9T6rrpvtSiEpOcfyNSKjH0+YakdjRzGPl7shVqVsWvD0bAWUcOGNUstXVVZg1ttDk2yTdTEvIMJlJr1WuYqelaLoRaGkBE1brWJYYQaHkJaaqlqijUWSWp6QSukxq32xLWapdZ/DQirYdTU0ohKrcAa3Go/Nq85xWKlUiwe9VK8krCaR00pjZxDSyMBtQpj970OMh1qtRxULeH1d7VfRdk4V0zaTE4lVy8NtqRlXZ2R6nae3r+onipeSa/FbfxPLkBq5tJIQK3MOhNpUiuri93yia4/r+7WNG09qG49legkA7mRlrqnr3K1jftOu7B4JboWVwXWuqBRM8z1CaiJeQcINWpBTQ/UdhJdv8Zh0LBxW2+p+E7bqWmXBtWqVpDduqfWSvSD/WMLqy3C0oipoOVTK7O9WZQaVYbsmhpL0mPoy4pN1DTEjJXizlBP0uBlnVuW1Mrs6YUYatMYNX7XPpigqaXhNcbih/yivpOBGrp4GfNJpHYjYZOX1BEuQ2ptYTWJWoLSiEdt0LdaptTiB52SvpOB2g7WVvirATw5U8nbvNGG+2ZIbYd9egGhps710aiJeQezhNfQBTU9UYsNSLCWoakR7wmgT1JsdtXqsEfPjhq32mfnaWqgNAJ6yEG2Pxt6bVKlhg5rvVAzjVFCmHnofYiXNJSp7QeS9o6BALbsqDXZp+cvhCEk4jUkyebUCvyufdwPajEBCfqGE5Ia+T6UNr690y00aNvMqOU8q+HU8AU1ntea7NFsX6g1TFkwEoowAzVw3AR7IAGnt2+rRfGULzerfM1psj+dl6jJpZGzJmoN12oytdGMqBkDEjxUoKhtyxvlwL6o2ZCIf6TezlcGik6xOFDJ56aQK5byCJlao51PIHM0G8i1mokalmQfcGqMfX6xT9QMgTlxMxPUQH/XcQbidtGOXtarX8Wa5sc8egBjl9GdnJawmk6NLo2cCak9JqgZSiM9UqODC6IHI3YA1skpOQNSuyzAozaJSDOvhDiF6C/ZUONdxvmIWtIk++DgVWE1khqZrvVIjQxIqOACp1aUrSaGfTAo6rXLCjxonb5upZ8OKwPZUHMY+7NHLWGSLVF7HFIbypwa8YsdYnOCmmq1OLNVmbYDpTq+aTbU+Mk+u+JbrYvSiKD25CLhtdMpUQPdThXdHDS6nA2j1ICzGu5/gZFNDbrhPRFToxlBt82EmrDalSu+16h0jaB28SLhtbSo5UBRAhtSQLDQlHtLlBqwjm+HKeT/AoGHA52YpsT5Z0Ktyho+NJIaOteHU3viUdMKWgE1PITsihqAghUvQChSkxsZowasFrQraGwlVwK9HpGFRypgB8qCGr/kv8ZTQ2aNHBz85aKRGhX4d0UNNoQ+rIBQZARUGDFq+BgGDAjjjcGYA0LVOs1QrQBQFtRKwmomavgbYji0gy/6QQ3WPdRHNiAiZMU4asBVTfy/G+AcNM/EAtTylSSKO2TFtdoVLF0zF7Q4tWv9oAbdpAYkqktiqAHj1ujDhALBSLKZEJoyqGgVWOsKQc08a+Tg4EZ/qMF6PrwNQTIlYgUzNbC5nJpBQxeJPXqcWJZ+9Zgf8a/LLrTY0oiarp25fu0iDPwBNTqE7JYa+NUQBQAqrGCmBiJzkJkBs0mGls/d0Z6ol0wqYONaOtTK7Oky7TXTgpqDG9cjr2VKjY7MQefp1muN1EDzwSlElNny5B5C5ravIMdIphhq/IB/W74SeM00a0SjdmYF89poFtTA4NKK7nhQB/aiMyM12mqK2aJkWm7xpuY1c9sPIMdIphhqg9xqy5LVkhe0Dq6j1IDXiGGta2pUQIJkzCZqIGFWC46E2eRxTe8hzW2fFbW2sBrmtQSlkRWd2iSgRgYj3VODqXTQ84BIwe++TNTAQbSEGdwCYcFehqnnWua2z4pak326rA9rZmp+CHkdpzaaDTUAKKCBoTRQA1bTqyxwmkEYqqL/mTW1hgka/4n/WAY95JzeQ8pJdrQM6sRaX70GC0s1DVA4EhmogYpmtV1T1AajXmg2/byHozZVTSJD6zhN9vWqkdrfySR7ZcXktS/fTpsa+PaNW72A3giGHJpagq/uyMojF6PNTu6eWuPQS3ByodWI0sjtPYraqTUjtb3UqcFGF/ciGIdq2GaQWnczGsMprcDk6sBWVOSAq0SpHbYO6bTYt6tGat+9Rs0/WDFS+5KlTw2G7RVYOoxGKZJagq+LQflmA6NhbCESZJaZUNvmVgPU1HTtNqOo3VjTqMmBf5NTI5dm9EoNhOZl+MA7ChMoakm+LgYV3AngP2PaHD7yyYIaT13/uRoNa8iske88avqSwzNrgJpahvySBV7DofVGDU6IA09cJAtQ1Lq2WpgbAPvEPKuBcyeyoFYXVlO8NidTu80kaqA0cv2ykVqHBV5LlRr56UWpWkJRc6ilggY19TY3r+BQZ3NlQE1YbXNVCSFBkr0HqUmlkTWj1+6zjKghKwVdyQE5Qa0Hq4XHhQbaIZt9QI13MqBWZY3VVdhDQmr/YgQ112oGauLiXqcX1PRODVvtxJj2Fl+EGjmNy6iW3uhC22jwXqxq+6dPjY+b/950qeGlEddqPjVl1sipy14HiVObvBdSo4KRnqkV0Vn1oB1waiB836lO0QI9qX9y7WaZyivgirmCug1NLf4Dx2ROx8fYzc1VNPD3qHGrFUJqYEHNim81j9qs6jUefbVED5kBNbSj2wZboNSg1YxPpAFfv8iPDIqtkWrNm5LfrtVLxNxntDayM5hAxJIs12oeNbw0stBipW32mh5CnuRW84ORiFpU8hdWy7OsqCHL1JTHJyg10HkZ4wml4pJDmj25Uq9Dllhjc3PV4DVutSJK7dTKusFro+8wVuW39uumdO0Q1CraD1Rq9xg1+BAmZvIHyC+CZzPdVMOiWyTtmj//8V+R1NzAX1SN6i41tYdcvxwEI5jX3mXMKWZHTVvzpJYGMWpdWO2YklUH3S8VvmpqVCJGaVMrs6ebEjV91sh7YpBXqHnPadZoahyasNqxLKmpyzbVkAyhBgsWsfOs4NgZ9L8VdP29pnJR6g5SppZ3rYZ6zUuyN9wCbV3uIad9r60bqQmrRdQIaIehpnRWxj/71IA9Y60mXrstKSy7OHpkr0tsHYU+KVMbdK2mUpPStbvuTSxRCwN/YbWA2g2N2jvuhWdKDfxVX7ekU4NWS7AKEzcbb3xqoW8gf1JW+O90qfFO+qstE7U73l2jUzs5vm6iNvTIrS5lS00OSHQGOjWQSSWwmvr4VD41nub7zIKflBG1Qfb1lkdtGS+N3PUmv/rU5LdWXDZRG3rotbJLzVAa6Ybatv7nKKVCHvnK1NypJDDqTLTgGXbCYOR0aiNYNbQzUos2006WSuTPL+objZpchrzjN5ZObfqqkdq+Fyr7XiODkThqdWkqKLKKxZkK/ohUh/KFaF93TMrJE0uTTdR3qvI+6rQDp5IrlUN0rcFCtVYBOeN23VM1uLzKSKFLIa/0CqwGSiNyyf+uX0VXqY2PXw6orajRiID2hd+h+V7rmdoPQE749LpPJwytRpVG7gSjiaAG5h+MXQXUbijU9v1VeT8Cav2W02HfvrGFBCMhtTeD0MylFr48l3eQ6xwaTe1B8GzDUktdOddqW3SS/WH4YMn3Wphku1Zbj8qQCrX9gLallrqYazUq8OfUvgsrQQq18as4Na8MOfwgrAlaammLh83fqNTArJHIakEPGSyDmtkwURvqhPNjAmoUNEutSzmMff8G5TXXanvRA46ImhuMXA2oranUeOA/fD8q8QlqpnTNUutSVcZu3sS95qVr70v1VUDt+Rc3rlLUhNekuoOllq54e35/8+bWFl0a2ZNmhEKvbdDUhocnJKv51OhhzVLrTq7Vbm7pSXYQQspWE9Siz8CexakFIWRDetuXpZaqhNVuGam1pMYPqYkQcmzDRG3inlzis9RSVYk1bunDmkTtfVBflahNX5o3UJu41pAfKltqaarC2H9uhT0kRg0+0Ze9Nu96bV0uHkvU7oHSuKWWpkbY01tGr30MW1OidslI7Rp8aGKppSjXagi1KMluwCdWIbWx40tGap/Dp1CWWooqC6uZqL2nPAIU1LzAf0FAU0sjIbVrysIunxoJzVJLrjZj/xXQiB5ycfFZQ1lVF1KbWZqXvLamUJt9pKxbtdTS0yD7+hZKLUiyP1LfCBdSW1iSvaZSe6zOE7DUUlONW23XRO2ZtoDVp3b8XGA1nNojsIDsmE/NMKxZaonFrbbreY0oaH2krc8PqL3iTpGkqD3UJlJZamnJt5rvNWT+wTN9FptLbWbm7JLRa/vaPDBLLS112Le7u3IIqVL7QH+5l++1eYLaDZfaQ/3lKZZaSsox9r/dqIfUQ0jEar7Xzs4tgRBS8dq+/uJtSy0lMfb9LvSaQu0DZPY1p8attrQkU1N7yAfIe8QstXS07VrNQO0z7AstLrVLc0tLaroWUZvtIC9zsNRSkRNajaK2h33d2KU2p1LzvHbdo3Yfe8e9pZaK6pLVUGqfoB8YENQWFkmviWikga138KjR0Cy1JCp6ViOoiXRtD31pjaA2F3rtqk5t+Am6is9SS0NVxnaN1D7Bl1ByaguLWg+5FvSQ3GstdGmRpZaCPKt5yLTCiDuqdeR5B5E4NX/J70aQrl0GXruHLy3iJ3z7Zya9bqnFKsn3udHVysj3NFWhtPFvs0JZambpL3tI2PhJqKHvF7LUDq/iQLzwVVgJ9sRP2fMZrax+wPo/diZ9BlAuOMkAAAAASUVORK5CYII=;labelBackgroundColor=none;fillColor=#B2C9AB;strokeColor=#788AA3;fontColor=#46495D;" parent="1" vertex="1">
          <mxGeometry x="262" y="315.5" width="114" height="30" as="geometry" />
        </mxCell>
        <mxCell id="VP4T0eHwjd-KZM7UqZH9-734" value="" style="shape=image;imageAspect=0;aspect=fixed;verticalLabelPosition=bottom;verticalAlign=top;image=data:image/png,iVBORw0KGgoAAAANSUhEUgAAAPAAAADSCAMAAABD772dAAAA0lBMVEX///9Be6IAAAAjHyA+eaEgHB07eKA4dp8xc50IAAAZFBUleKsqeqwcFxgdGBkvcpwRCgzp6enFxMW4z+F2pMWaudLi6/J7eXnY19dsamrz8/MWEBIOBQj5+fnu7u6Uk5OnpqZiX2BLSEm4t7dCP0CGhYWhu84pJSbb2tpHREUzLzCenZ3h6e/O2+VKgaaMi4tdW1xsl7WJqsLC09+sq6uGqMFmk7J2dHTAv7+qwdJYiqxeXFw5NjfNzc1qlrSmvtA+hLJflr0BZJSJr8ximr9Oi7bIXxvSAAAXp0lEQVR4nO1deWOiPhPGICJUEbReHN4H9a621XZ1t/119/t/pTczARXkaHe70u3r80cPQcyTmcxMJpPIcRdccMEFF1xwwQUXXHDBBf8YtF133K8vOp2bTrteHXd3etIt+jA0aptNt7sp7jSLvaB1+z1CiGQacj6vKIosGyb9X67f2cm2NBJ6cdxv3wxlUzKEUac+H29sy3+PpbWqQG0Ps1dv9kdEMhSeQlCUfJ5yziuCAP/KEhnNa0mQiYNVm3do6w0ZWyoIgiKrVEZyp3+nHTTTbm5dansIsmrAW/KGRNRhr7NYfFssFp0tT4gqwwWV3LQ+m3Jr4y1RFWy9oaqmaaoqUAeJURq9dVeDu4rfiCkgQ2kvX8ZJNslw0W/t7EPn6Jq9mbdH+FiFDJuN5NidoFFVgAhtNdXP6rw5Ho+b82q7p1BCyMegkh7vOkSmbTfJqN5sFW1b02xqpOb1Eb2rPbaDCem75g0x6CPM4fjMrMIxFlSBFySyGO/04zFrWVpxvB4SQjVWyJtSnucN0hn7x7XV2EVLr9YnJqUs9XYf3/bfQKNDBKpzo7uwYaZ1qwYxQd8NUo2zuZXpalV6LK1W08nR86wmUeFD+h/V6D9A0ZR5gdzEdL7duqHjdh0tydJDqlAoZB3QP5/KK1cbrDn9HF7qaR/T6t9Hl4pXzt+5/+rT0mB5f3t7f78clKaVY+XVxm6nVErl26eMmM1mZg/3g9Jkf9f0NptOHSEtZgsPj46k7YVEP0pJWK2Br9Rh3W5Nl0/ZQlYUxUxGzIi0sYXUw/KID6Ly44nek0Fi6VSa8i6kbh8rztXpk5dyKpXJivdTdnFMx4Wibs5I7wQ7ypdU8U/r8akg+hpLKWWyhdn948R9w2Qp+hkxUreu8g7EzOkzbtkDdkM6fKTu+Xm60KmndQzJ6kQ0B4jZzBNr8SBz2icu59mAUZ48iadPEJd4UesZ1EElJ+NvBq/W4Q/rPpwuIPsIdzVusxH3pMUZ3kUfVgi6iHptdVRqIpMKNbuEz2+h560AoXj4LuH2ScqvrCf3MVbc4ynjVDo7QMY3VMZSMlGXNRQEFTrbimGSuUW+ASxOWBWwa7hVkCoU7vFTezLt5kQIjyVexQH8ECc5cCyTaCVwkX1Cgz0NujuLHacNqWNoJsBXH9EpEVApR41MkEyJA62P6xUHYmoaw7ho8gKfgFLfEd6EeH6SibRXqcwD3H3/NgGnwD6tGOOAxzJjsDZ4KYGZxCLPE7BYtzGiK4BHChyUYRBBJbhS0FvQ3Nsmn++cna8m8fKaix+bIpgaaxatBX5aKONBEOMMDPGeIshnD6qpySJF+nsZQxgFHNj2cKQLOI6/B+hO9ge90FR5cvbooy4LEv2lx7QdXZL+RoN1xLgS8uzMd3phQ3j13HZaFwQZgqxVjHctgHa+U8DAeAbmIWjkz6hjsAlvrM9MmH6m2eLiNRobPnsvX2foB9j2dIrKXie83D4z4Ts6hGFq+hBtjUTwI3FaEIgseu/TsSCCTaAx7eLMhOfUblDlsuJMFlifOMcVAhjGpZO+KjDCSuck4/13QW3WyIoPkEGjrd8RMBUlhlVPfg1yCd+cmfCNgkoVE1DgSHxX0HFMDezd1N9b2YQkzAsYdjzGzAshMLr/PY1OpZ+CAjkYw9b5xzD9SANmSoNowmhhfo9uyumuExHTod04v5WmhNU5F+uVQEaV39TolOPTfKPY9cP18xJuOLFOtLpimPW7QzjluKZHz/vTT/SloqNfZ4TmzA2jZ33ohWO0PgrIruF5CfuwK7FP/3SEcdbjWp10OhOas/QjI8IShFj478SNZ6APE5g8aG9S6Sy0F+PKTLYgPlwv7x/o7zi2abFw+zjFTI8OGRWPTqMhq8s8OXNhgO4QXkYRTqfAhQDb1HLlLo1NYzK6qUxm4F2Wm3gIQx+OBIE/83wYrHS8WwKLOsmKt1MvgVnUm8Snie+zPITRKxmCcnM2qgyWLBjxgceMA4n6CXB6REIv/cTEa+mVyaTSwHxn4fgyfWFn8vKZvRLHbd8QWmLr3AhQn5QG5cEKh+YkQsDYPZPlU4aarYI48xHOQKxKZ2pnn/9zi3z85CH94N5trW5nuOJbSOP6wY+wfkJHxi0L4n15QK1zGnXk6DPQM4PNKp6bcN+Inx6yFQcaay1nWRFmEj9+LGf/ASU9LCWAqZ1ygS2dLTOY4j1OX6ICbBVBOH8Oz2QJgJPp2ynhpSjuhUNHPfrWEHeGEp2IBTYObjOZk8iF/m/LgtI7N1/Io0mw7h8VeeDkcOJGGyz3ynEPEfEmvuMxy6bCy2xK9M228HqXBpbVsxPWnNlDlF/yKeQM7a+eSXGhyxUijHA6IRFngwGsSHpCNbfTYOHh/Ivi+kjA7H+UmUYrfbgh8zS19OksnYFwJHgQi5B1RomKqBeQ3rCORk0WzMZW4dUEalvasqBy0ZM/JDw93JDOzmY0zEIxBa84MgkfLsFgbqT3hPGBNYlPYAhTM00DeC1UVAzoVE503tXbAPiMVDrDeTwfKgA1l+f3whzL08JIikpJBhNG4x24VMbWFQ6DwDcmmNOCRbwkapfsN1gtyFicLrb5Nd3DmDuOnX1WD9+oSbxAEuDLNUbMG57knGIJszlFcD+BDA9WCnXhEK67Gp2AUwK0aYBHf1XS4aFHMDO2WhLslzA62Y9vjJx/7B+QqEaztQcoaYmItUIkzHKZgW9Dme7V3SthVHDq/4V8InwPsVa41QohjOsvwe9Ii9zR8nnaM4ZR+slpNKfJzoJpuCcOttJHmZ9ToJMuu+/xTJbSEKlthaQ0GlZbhCEHUWIo4RBzjKRCRgJq8V4rstzBD+OA3lGNTqZIi8OYVrXDm37qRt9COI1FHG4chpGWY95wIFQN3kwi6kDQWQsG8aETprAII4owi8NctYBY2pk743i2CI/xXTKwDVbHEzqIUQkDApNCxBj2rq/gnWzNHU1WSzr/0v8RtgqOp0rYIEZhBRjxCLfkMnOKBvBvFrzi5HKksHg2IcAgBk8cVoSFqhtUexQeeKScke88kyUAQEfEModrSsL2zOvCx+hKvNTiwpcQ0f0EjNUQ9+zpJyZizOnB45kto8FdciaLQlPZiAobxOI0cPoYt6bIRIwdJbpWAP+wVT6B7N0xRoowalBSYYSDUxs4ByhHTLIOtQ7YNxBMY6ED9UnnXhb2AcJpCHuCxmm4hMUQTT+IGAIs7lY8EMasnpYXeCnZjaY7Z4XpMVjEwWMY6VRCjTS+EWzVRDyoNJbu0O6Vz12d5YdTTVMJnhNn9zbWI2BwVsEJj0OngCmG7GUZf6NDh0r4xMJoF+5CbbCCZliW2fcqzmpjatWwUyr7KiB8S9Pkz75meIKuUwgQnOdBc+ufW7DZQUwVfaqg41NZpIV18JogJFAz7AdUeX7jwtbUMAPtT8gih9i6Dxy8eqqAP0UQcP8zCJjjOnkWzAfrNGqmt7SULaHGl9eiH1pi/qMAT9Fg2nD2JcNTtJx6mh8hOg3GxyPigEqkQDDNB21Y4myChrGJm2gA7XhccQlZgEB63msBtWaBfSU6hQMWbnKpgYCTNtGIbzLT6eClE6ewvbAniMFxVGZ3D1YhTrUBA82bfNJBlos7R6dDtJSt6B/2EhYiFof9b2W7K3E7IvUGgvE5TjDRDIFNikOazVaFVxnGkZmst5WnZdAATKHHLBpzmPMkaR4B8vEQ4IaJzalSeSjgIihETjFR1qGvUDuA9dxk8+BGrdtf9Hqd2KMT/ibc9fiQxSLHwcD+/kIhizHxm3cEFJyagZop8EKv3YMzb9S8IuRVqZ3cyS2w55JEmd6sU9rCWdNH2ARu/Zd9a7lpgfUVdfZwcg0780aRZYXnpQQzW32VrUCEma1b3/2T1Wo5e8swTjslfHdElfOKkofzl4xRp17vqDTKTO7clprKVuSDwycRVnw5zXd4kDWIZyw+uRWLu3m70+ks2uvxxsbnbKjRNpNLfSzyvARBX1CALKKp1Ttk1N95WhhbNu7WIAbCXchLBl2JzSACdlVlZhD3WwsVzh8adhZHwXBUjge7irnhaSBtSB/eBV04D0YKS9eeiBjrh6nnMtm5WRIGw5MnNjSjlZptsx7MsrNHD+UJPrGpsnxpQqAzCBb3+QljjodbS+ygsPwQml4RMyJ6qugpImakf0CEJmYelqUVxePg/qlwj6dKSMLZK8Q9MJzki2/jHPOjfcLkq+ZhEOPaL1ru6E1tR5m+dFp0zyNi5wNwC5nPn3tnmgew5IPq+nAsNZzHcmMCPlQlQ3bU0i3egesm0YQn/hLUTNY52ESHIZLkiguFm36pHBHO4nSnKwHZRb/IjmVYonFmk6howrAckxbTaSpgOKEoO7stMZnaNyrPm+fePuwDzGZGILVDnMwccE0lnebBITk7p/HQlcg9mOkMzivvH55mT08Pt8vH/XFirbxM+S6SVGgAjf5MLL1wD/VgDljjt0eeqML02ZF9SG73mDAHx8xZx9yKHWqveFJPmi/LSGBOcYmzfZE54N52f8CINb135ohOcB1JGAujT1BcwLl6AvkMM8U5FMih6j4WqDn9jhq4cEyLNR18T2eZ43WP24nZPfDk/wC92B9KMh5/+ClSPdaNzAsCytMqPTLvsZYkcJaT2X+FLAqXmp/sPkKOJIw5vFa9tdnVdsXu3Xwh4NmJNGBTP8NBgABbEXh5exwv950aEG4yeJiBLxVTM+e0t0bc/hBMDfWJyU77pLNgOLeVV0yjmvgpgHts6DRd5vc2qlGnAZbSc8awVZlOpxP35LvaTSOOMO64MzwHuppSr/l56HIwb4XjPOs7NM/jEbbW6JxGgNbYgCAzkjCmwug0TDYoVFMiUq8+riVum33oEoVSlHrtdocH72HQiEiW+17KjbutpIziCEN20+oJcr1frfbn47uallxOJwI7QUXlY8fwkmoLZK4anfmmhqqt1e7aQ9oVQjzhCq6PJjjpfRv0KjEVdi40ETYgc1BsRZXcM4YlGa/GE6YP08wEi9DeDK25lVXTEBbMAzfaksoOykZgMs7khdgxDHEHDWbIZzpjORS6XTsSjN3fmsSQFUUQFEU2iNLpDpVhjJXGOsOuxE4o+/dQ61bbne1otO186280yJDEEcbaAdj4nnTT/wB6o+Ea2q3CxxDGyqaq8U8TPkIvn6eEGxGE0Q23ZUFIuqkfg05epYT1CMKOGxaS2IH2F7DI4562KMJU+xuCcPZDs/4S2jL616gxzGFxwdnPgftLWDPCMeWlxQRO+vtL6BsYMoYLmM2Gk11d+EjMVcxih9cuYbkTrB99gjqlj0BTxfRXeC3P/iyHzx9KvwktE3U1pOg45XolhZf+zcjyBF0Sc1ITeCXLEJTzn7j7d7AjuPM4fMEUFia08x8S9tegESyDCS5XTDlzJdjL2Uq4oR8FXTagJiW0fAlTlnAyyucoRftzWD25Z0VUIKKRXstKkluUPhZ1w7QiZg9ZSOfyQlL7hP8CmiZoa9ix4ljtYJMvE3ZwYKbREYfsaCuwneBs/fVrQB/hN56EbBzAhVZB+DSLSB+BqoH5yKCqyzRmO4rks5QLfwyKBDdNTgK+r4hVhtwoX2UuzKBvFczAnhwen2Hf29OSvpaAoSIVo0vO801D6UzhO9ad1WQhkW9j+YuwVYHtmxy4J5mmxYL7XWH2SMl/kfTdAXVDYW6nsoSvwitkHwb74lk+L/wbayzvgSYJ8mG1/Ojr86w+ET7/quFvYEx4eXRSnqKPZZU3lC/Ilyq1BF9VeZzEaWyqhiQIUkDVwJdAnfC8atZbNY3C7s6/CcSgAZbS/DKTJD/mJI9faSvzQ5kQqNTJS2r/iyTuArG7gS/ohdVyrC8mZPHpvlj5o7GrYx0W/Nj2N1+dLYNd7Ha7xS9qpy644IILLrjgggsuuOCCCy644BPCaiA0F40kUxCVaalcfn0tlx+nldO0nnv1R2ly3EirUnlPm4vKaDQcDp0t+3lluF20ksmpWeWX3NUBv64930JW8Vx9/lnakyzlcuV3fEyRKKP2AYsRIZKQRIHn9JnyeC1NK7peqazKvyit672UKz8p2194tVKZPl7T/57LztXS1dX7CPtWZfUxEUjrXW21tD/XiUou52339Dl39eL8Xb7KXV1Xjq+Wnq9yz+zYntLVOyUs+5eha0SQ3sVgQ/58Yeg6l3v1vmI9u11wvSd3BOgEPFLizwlzfeN9Jxx/AGHrV+6q4nuNMvkFavt6lXsJWJlYUZ2Ych9CeEPe95V7H0BYp+L0k9LpMKamaUV5B5phyvSZ+xDCNfK+4xUp4T/NMQdJmFutVrQTfjmqewpqux4/hHDRkbC1a/Xr9Xq1WTwa0tpuXKUv1vst3DXMaTV7bEpdu1ZzSFu1u3l/XW124f+GbdO7bLtBf3Tn1TU7yqSxG/fX9fW8e1AMOoZ/BjZwShU6pO2THIj4Q8awNKYNb1IXRYyRQH/KC2dZV2vnCZyhtLgxCRnBSG/TyzwPCyfYSY0+vIttbL/ZcS1iapxFSJOr4+IKFLzbdQGe0enBYot7KFjlKpd7WQUM1XKEm0W1+HPCOyLIGmdTElVHiN0O/Rv/Uky+67RK6xPSofpfLI5Vs1XcbKBPiiolvkEx2q0had1J9FEcUZtr0mvtbJs+sElpdtmgrFXp3472TCGuyL1QX+tl/ZOZpkBcg7a/m7DPD2tzIpMNHcdq70iRuyoKsGoeb/68k5jDLu7H8I4YvaPhPCYjAc4fkoQOcYOZPoh7D3ur7nc5lH7mWDDlof0rlztxSS6o9B/fT1jY1vdoL0A5ezso9x16erpLoMkL9bhEXx+RjkPYGYx8fuQpTWlKjDC/L0kqEtVTMauNjKMDhmmI9fPXM6P9UkYr9pzLnVizA+GrH+8nzAt52UWeH3XWUNFKDa/vbKMeNKyuGseEqKXyEN4Q0xeVDh0JD923LQzZ62O6pv8AWp3Svn55htiyEi3h19xV6XfG8GGuRGdL7OWq4d/WOjbzNmxdGI1PTiPYE+6rhi9E6+ORWhKeJwdoyP4CUmsYfEBppUSpPuswTkthjcfx/f4xHFSUvTD83/jTRVa7Dixmjzpt6nb2JyrtCdcN/2bYsYSE9yw1InTqXshSiNPXf0G4+XgSc+4Bwaf+YYT9R3dTJUfV0+3ueN1DFyPftJxnhBM2GWF3CNtEWVT9oBdff76c2mKILWm8BXIOBA0uX37DDwcSbp80vUs8X7ig17rjLSEL9gyH8PxEpatMpfexuUbMVlAzXq4CFBd8M/qeEBGzGOxP3RJD0/TviVurw5PawL6Bpm1PuEh8eyUtVfAStm5UX5huNeCUntdc7vqkEVMMlvVcSGz5Sq0a91GEbcPrPTjdVNdcURY8tttmJujglraGt1eqpo8wdc2+uLuOL0yvnk/jizLrhWku0G6VncnUxxDm5l6/ZLVBWzXZK5+dCjHoEWEIVw6K36iSrZ+w1TG3x31CvRIaNJjz+hhPnfkft6LG6dU3jis/r3IsI/JBhGnPS819y6hxxqNZaSh4VDSnLVQsga2xjYV4I42k21hoZxf7Cmm2TB9hTuuR0Wb/tepjFsHRjqCMc9eHQ0utSvmQA6Hsrp5fJ/tP1ldw9y8WkFDCr5UThJb2FUnYaYJjiQzr482ueFelvmiBimhB8Fu92+1qu12rniesVNSi3bFAY0vb0urg5IHOHsx1jXNi6eNoUqfBZW99V9wVW+shye+PFC5BGuv55fq1XC6//oR/fh2G7uoF/v/5Wv4xcIISyPGUHMLHyT8HITNKkF0n7Li5xnjBDvMivfk+GLLnN86LZLh25xH6eDFUZdfXNop3rXGrC/NCriUplPBi4bFl2rjDnmC07441dXqUmcy9lL0aXin/PPCiFy3qoK9eqJCn10EInXDEQLdr9olxtjTbfmPermmOguu+G/TBQe7Vqkym0zCNxDPJ9ilrUPSwqfK50B769v+O1L957ncpLAY7G+58c46m9IU21wWiZ/J7E8w1vHPfLwm9TU1cdXzX7bbmbYlskz0/9yyojes9A434or8J9YZfC5al67r1f0L2ggsuuOCCCy644IILLrjggn8G/wP9G1HXDfV6qwAAAABJRU5ErkJggg==;labelBackgroundColor=none;fillColor=#B2C9AB;strokeColor=#788AA3;fontColor=#46495D;" parent="1" vertex="1">
          <mxGeometry x="560.75" y="300" width="80" height="70" as="geometry" />
        </mxCell>
        <mxCell id="VP4T0eHwjd-KZM7UqZH9-738" value="" style="shape=image;imageAspect=0;aspect=fixed;verticalLabelPosition=bottom;verticalAlign=top;image=data:image/png,iVBORw0KGgoAAAANSUhEUgAAATEAAABFCAIAAACtw0ZcAAAAAXNSR0IArs4c6QAAAARnQU1BAACxjwv8YQUAAAAJcEhZcwAADsMAAA7DAcdvqGQAAETZSURBVHhe7X0HYBVV2vak994bqdQEpBcpCioloIAgoMC66qpYKe5awLWwgoqKBRv6Ce6CggoIKiigIL0XIQGEQIAQQhKS3PQK+d9yZubM3JJQ3N3/+/9HfO4z7znve86cc957Zm6LU2Nj45DRCxobFScnBbSTE1hQwwGbZKbSRifFqVGxw1THpq8hQnNYwU4oEmvxm8NNt2u//zYjcEfUUqtClSNbBBcXVSpNgk+LYa3/P9tkhj1NSGwVnldfV1xRo5lj4oIyTheKg0YlMTrwkTu7tWoRIiz/fXCG//G8xJKCB9SqSWU4b2KogwxETEtZZ7SiMz7YYGoAI9CyFowxOQ0oAqWKYGpeZkgb9DIy+iKDk0gkZihFBuhtYR2dMQmtGJyI8cjE2AUsRWaNYTg8MWt8bAbIV8BaXyNzb1nLrJ7FdWCAA/sfxAw7OjI6ILR16JGSshIpIRHG+tl5lqc/WD93yY6i0iph/C8D5iT0mRY0LTJkednRWuNKMOq6poVoXNBgFIzOBo3hpJWrJw8mAKcl1ZeSTTA5oK+qOWk1jb7IUIUSz8jYtKSpRXxgTVGIZU3RAERCU+PYRdYYRw+PdbiQ4nAlDKTj+uomGbuiapnZfl0Y4MB+1cy4Qu3r55nQPiq7vjanpEI3q9MFD9A1rT7pxi0Hzzz6xuqvfs6oa7jE9v8eiH0SVpO0hlWNzGtNVJI05YW2iNEgNCpamprmQFQFIqAmV2iFNMehFEUDa3gkTY2Rl6o5XSUN/5Mvaz3VUXOL2LZoCxvjaKypn1RT0+xL7cERBgNQCLULWIfaIs2+oilx1gg0q7i+2gFzD69FN8mAa9QOmNFs7erqkpwaVe7vcvRCCR7TFAlommZTKyCNK7Cu/tKS9RmPzlm95bezXPRfArFP4gnwIgOpLi88GRpK1ghgoQXT8qVFry5oKsOlqWlw44WrhWaNyYOMB5SQajQtwZA5jmCMZ2b4X0pjkXjAqsYIYBAam0YWmtrCCLLWGB4F4wPGRy9VQ301DPmSpn5eISiCAOurZuzhtekmGXCN+oqYYUsnpIS5t/DLKCyprrsE8eUqMmjuENAFqKQxzpeiXLRUzf1y+9Pvrz+dZ6Fa/3lo+6TOvOq0RYYnIExWVdXFiiSxvKy15U6FBsb62Ao2gHFIi3bBV6QZMSU5NW+D9dSVGOPoqU5xsDqWilkixtYxikFTXJ3hkbqM3ZIZvTgYstDiTK8I2KwK1teRoTsO9HVhgAN9jcww6pAw34i24UdLy4vKa6AtLGS2BW1CoFNQycS4HBTlRE7R1Hd+mvfN7tKKGqz6H4W2T2InWVMy8PLSlxqxet46C4tYsghcvoZlTZFx+aoajzStJgzGIQ12EUFKMMFy+pEDMsZBbUpgjMNMMdELKwqNTUusJpLQFJGYvaglOCItarKduoDdpWa5PhcYwU6Mq9NXzdw3e/q6MMCBbpIZju2MRsXb2z2xfdR550vZF8vIgG3pVWStAeYFWZSQJuZu4joRhb/sOfnInNUrfj166dJlKv/PQL+fpEOhgXmlodbXsL74BMMDaToljiAWLpmRRTQqNS19dKNSYFmriYQHrKEVimZIPI6DvqStUhf+F4lN4SkOaW4LGcDtsmZf0ujFGuNwSxQHj4RGIGMdrkRetsBOjKvTDphbvxYts0074Bq1zCY7w1RHg6qdnZ2SUyOrg92PXCi5fJkSiQtp+AVkrYFmkNYJgrTwZTstAbI4OVXV1C/68bfH31yzK/McVf8PAJfd4NELxBH3lLvLHRWMC9raop6ZoYBqqkzpYWZjnarKgsqyvIaGmvr6qoaG6sbLlzy9gr19QuGfp1eIIZo1i4HV2V4rDtjUf8NZmHpuJ77sG9Ui6P+/P3ndOTY+uMxNuVBaZTVRahVVM9iVYXp/0kYEZJ5NWTemJUc8NKJLi4gA4fvvArat56RDaKPED2UlZyvKz1eU5ZZZclxdPT29gz08Azw9g7x9IwKC4tmFUVJ0oqIsr7rqYnVlYV1dRVBIChhdXDw8PPxzz24vKjzK1azh4uIeEtYuLDItLKI9pCgOlpoSal+axbbSiQt5TqTqDiFXBLaJ6BYhRUUV4uA/BXvnYjqBa2GGPfv1Q3CIr1ekb1aB5arDx7QIyshWc9IKevelFNXOCDbngT2Sxw/q4OvtLhz+eOACvf/pVedPFQkDQD176ig9Z6i6sfHyhXN7T5/4qcyCLx9HRkampKS4uLgUFBScPn26uroa3RQFkjMipkt4ZMfLl2uzjv5QZjnD9piYmISEhKKiomPHjrEFcOutt/bu3btr167JyclQwd/f/+LFi8XFxVBtw4YNn332WXZ2NlSLje/brsM4F1cPbXfSmcdP0px4PLpqEjaLDTOj2TmZZa3FtEpyfZ9kC+Hmp0c93sFLHBAqj+69d9Yxuc4VaOAHb1/WT3v+Lt048fsP2P7H8GNzJvSPFo0p50+OfnqH4/pXzwzSnp5uMS3DjhZaLsGlqmFaVOaKqkbY0rBPZp4uBM0F6CVmln2b1j6ebuNuaz/kxpYuziL2HwpcTzc9saRNbIjlVEmpw4uuc6e3nMhYUVdbNnHixHvvvbdLly6BgYGijGCxWHJycvbu3bt06dJ169axMTg4+G9/+9sddwxPSk7y9PBgI+B83gU48aioKHGsKOWVNRdKyqtq64N8vf193AN9vdm+cePGt956a/Xq1R6eQR26/Dk0PA2HlZKBK8hazKeZEZxOqHCghZ0GXZ09rE6aIWtDHKqosgm29snU2Qs6tTI9z9YVLr5/7UpxcOV4yJiTE77/gKXezavVtvix1405+cwOUcq4Ut0UYEYSW4fnVNeUVtWCE7ryw5WFEbC3T6oh8QGnmi2k1QK5khIV6jdqQNsBXZKwwh8JysnHl0C7nu6urSICzx7Kq6ttEIUE7uj5M9sO71uQlpb26quvDhs2bM+hYyculJ0rrjqTj09joQE+kcF+0cF+EYFeHVNifbw9IT9XrVrl6uo6YuRIH2/vg1nnf88pPFNgOXOhJMTfOzYsICEiqFvbuCBf3D22Z55+/9sdx88ZBs7dzaVfh6TB3Vrd3DEZDjdt2vTss8/u3LmzQ5f7Y1rcSM9h/Exmi8VY6qzuZs1iMTMq26hD6W1mKrVxPzl20Je3h1ld+lw6/v2S6V+R5G4yzB23w/9b98lGJSo2sNrbJa+00jgJzWPRRQOiaZ8EgeEd+OrMsyxrnZOjgx4Z3S05JpiD/xHAliAnxRFsa/5eUZ4epw7liWPChdx9v+38aMCA/mvXrj1XUPLeyp2bD2WLMlvo1jruphsSR/ZJ9XB32/TbqU9+2AUJKcqMaBkTOqBz8tCebaND/KEa/BMFEoL9vafc2Se9ZxvQ99133+eff96pxyOR0V1pBvWUMM9tM1j15cngOeFC0gy2WEGPIjEgOj6k6KK8T/o8NGvkQMP9tYozxx+ZsdvujY5j2NsnrSH331pfF2bY081GQKBXQGzAsXyLYSpsNXVFuIr7SWa9YSOgqF+nhHvTbwjyN9yPXC/geyEAbhe4uKw6o8ASekNkRJy4Lm2or8nY8z833NBh1Xff/Xrw5OiZSxwnJCDj9IX2SVGuri6vL/n1qY9+sJeQgBO5F+d/v2v0i4s+/2nvA+nd5k+708vDTZSpKC6reuHzdQ+8saywpHzhwoWjR48+sOujosIjmE7w7KUyDJWZpQFnxtTFZBMan/mQoTpq9MJCobFt1cJaY2oRopgZHtFXRmiHVD0hq3PPS5+ujI8YEyYkgsILWGtrlmGvDjB1zq6+LgxwoJtkuCZyd01OjSryctYTEhjCWDFE1pkDqBohaw0QDVmUkCYmTWtAbRF3Ql1jNHDCmJIDeiub9mc/9sbq5RuO1Ddc/3cyRU5KLSLn5JeeaahL6BbnH+QNt5GXLtXB7lRZ0zBz8Uaq0gSmjuqTmhAx/X9++mbTIWFyiLqGS++v3D5+1tKY0IAPJo/w8bTxGtdvJ8/f98aynIKSb7755sYbb8w8+AUlEpRgGrDW0ozGEM6DRlRidXA1jaymNE8J1iTCUmCqLjT2A1kkHnpJjDUF60gdGxEjJNxwl3y9ubhOHAACUsdECAmg8ALW2pplaHbs+ZVrmW3aAdeoZTbaE1uFO8X4Hi4ogWUgDzNrrE4MXmbNAdjCkLUGiIMsSkgLX7aLtlAKDQe0lnQtOQi36tqGxT8deuIPeCcTlxffT3KLJvZwd931z8ltUuJ27dr18j9//n7HEeFnH1Ehfiv/ce8XPx94b8U2YWo24iOCFj59V15x+aS3V5RX1QqrhGA/7yUzxu7bvWPQoEEdu0+Kju2mJqQ97jN/Ras4RanI2Dn2hbwh0/qN7xQQ5ONKwRoqzhXu/GHX22uL7PgGpT/R844eYXFa/YLi/Su2z1kb+erinu19FOXciWFPbMbJ48QGL8V0P5k04/0bO6kvhBXsXf/oO0Evz++aCr6MwpwXp27K1CYbYJyAsB4d77sdthAvH36aqqzOPnpy5RcHt420dz/Z693FyeqzANnjWj42sU335AARoa4u9+jJrz/ftw2uXZx8eo/pOqJvREygOxVeqrSUHlix452NJYZF4Oh+ste7i6Tm4BI6LH78+NSb28Igu5ARY2ZuyVz49ZlCY0zg8Aj/y0HuZ4sqRPpdHXMwVTO4EcZVvz+psdpng4M24zD7aUkRk+7sGhPuL1q5NtjeJzU+f3x3WXHe448/Xl1b9/P+E2RrApPv7AMb+udr94njK8GZ/JKpH/7QOi7swykjhcmI4vKqZVuODBw4MDg4uDA/A8YHBkhldVjpiYae24gFfKe+d/vjfULUhAS4+sZG3Tpp2OIXUsNornDHI8Y4Hbu/tWDkYwOi1IQEuPqGh/ebNGzR37UrTmgY/ifGTqCWWlSUvgkJ+ivTFcfX5ivKsd1npZ0yLHREXw6jgjVxxz+nv/l4Wvd4NSEBPl6JXdOmvjjoz+I1aRWSlwyf8YM+nd2jf1s1IQHu7jE3tJ36ym1Dw6IeemXo1NvjEkVCAlx8AoP73D/43Qej8CQgmsYmsIVLJbjdPuDD1/uO7BqsJiQAY3a/ve+br3TvqHnBZPh7JqRFnVXqISHBQjNIDCG1lc/ayNCimTmkqhmyNhVgIxKLjOOVw+2SSbCohPENbrSLIgMpThmnCibP/fF/Vu2rqqlHw7XBcD/JYM1ckpMBPGjw4LV7TlTXNt1eUlTwrV1aLvhpT1nlVX6WF65RYUNu2yL84dt7CJMRR8/Aylbi4uJqa/DeQ5sxGlZg6DlpeGQm+LZqc2ssZFdtfsbxhW9tfP3j3zb9Xk7J4RrUqefcv7fECBQIuDG03WtPpbUJIs9Ky+ENe14Hl0UnDp2Drds1qHMybpIInG2cPElrLYJhxC0RHANReHE9fThi9ZaL9LUihldCzyQhOQwDdshBt029JVjbUA0IDBvWVdskCXoXZAR0Hxymd0CGT8R9b98yMF7LVBkuMf1unNGHosGpMJvAFi7VEdBnbHS4zZDQYHyr+x7EC3UXF2fx7aoC+ogcxdcZQsIMksbwVgwt6swdUTXCpqYFohWQhlkWdnr6Vlvk9QM1SYsIqkbozOGo/7hmlEuXL6/ZdmLSa9//tCML618DDPskQ29XUeqrSz08PMLDwvafyCVDE7jpBlxhyzcd5sOrA1wh7z6Wc/+QbnAZLEwSisvxkwlRUVG1NWU0ZDSKmAyoaVjV5zDSoBDurkpd+Y6PV93/wtZl205tXrdvznNfT1uUx6+QBnXq9HQapxPyLY904KyrO3fy9WnLn513aMu27C3fbp7+5MrXt1ikbY7aFRNAvnKLsNW20LYLJffogUxWm0+flr4VFNS25QhWHIbRmDp1bISUkHW5Ow68Mn3x6Amr3/8lv0TqgYDeBRIyLIXr5q8ePXHxX+efzrVyLMk6/j6EnbL+26Pi8x4Er4Re8SKazZj27IDK0t3fb//rxMWjZ2xfd7RabjAmJaljUqhnQgDcOlbXX8Jh0xMAKwCLlJA0NkUaWhQai4m5C6pG2NQQh5hBGlcLxmcNNUnzylHbQpOsVWcRghTWR2atKOVVdfO/3TNl7k/HTl9E21XB/LqrieuqSlNS8KNwxWXN+qGEXqnxx84WlF7tJqnhpc/Xuzg7w2WwOJbgR59yqq2tdXGhq0oxotRfkZDqs5eeMIicrZtfWV8h7Z9O2d+u+eQAn5dfhzsTaejhOa9DeipfGlo2z9+0uYCnCus3NlZseXvdmmzt/VtqlxpTZ09vMey+aOlzAsWZK7SbzFPbzkgJ4B7cfayQCJ7rCfHyZwwKdmyZ/GHmwbNQWvLrwvUPfn5e2mkJYoWo06ajeN1Laz/ZiveHp7duXXfSmJRnjk9/afevOYpyMf+L2SePS4VBAaEimo2Y9u1KxdYPvp/z1anTIM+c+mT2VsNbPcFBYRUVhWXV6lAZGUIah5M1NkUaWhQai+2wLagTAlWoLZUxPmvw1Syo8UDEFFpnQwhgBO26OjudvWCZ/uHPbyzadnU/L9LE/WRdlSUxMREE3MiRwRF8PN07t4zZniE+SXctKLBULN1wEC6DUxOkVyYJoQG4fxQUFLi70y4Ko8gM44MpwQxDJjSWAuoKdr6fD3Y18cCOxb+sKMRLYViFMUlpONBOjcNiYzkfsnPfzqTE5vQmVhrL/+eA9topTQxNGzIaqA7CZ0xb6W3lMxe/lZ43f91ZIiWVS6sO3fX3RCjM0HhfOiDUFW77II/tgjfv2mMaY7lUxpn8T4r00tWF8maoZB/dXSiGAfhEQamwI9zcVTuxCbqXMDDqsk6/A1dIulf+iYtSonu6JpGd5sUR4zAbh1ZjiOyIbUFbAhAeKpkY22KGCIJx5aAXaWSqymwOgdD3SWZaLcqOwzmPvv7D0nWH66/w50Xs7pOMhtqq2NhYEJZmbH3J0fhbYNuPXIecBCz8aS/wiD6pfKghLgxfNsnPz3f3xJwU+xLPmMo0lKqFUVC6UE0tGDOdM/PyeQML9OpCDhGtfDkh8nMzYBo4jTVGr0UWTmOcAAgPFmIyUB1A206p2guVvPqFhDqKsuWkfPmqxIeODCW7ioQAaZe8WPYFMJcKrsy0GLLLUCqhsqoSp9N2aV1VHpwu2ZEr600vFwg7sQm6lzAwLBb6qIla6uzsdKHRsBx5oXOpuuhtMA0zSBsMvjpjdV0jZK0BoiGLEtLEpGlm1RZx5egao4ETxpQcBKvRdI1xwAEYn75RNtY3XP5qfcZjc1ZvPXgFSWF3n2Q4u7jyInN1FjUdINgfL/nOXywd2LXV8xNvWTx93NZ5j66d85d5TwxPkF7scIA7erd7+7HbV/7j3r0fPwmOYLmlc0su0tAmPryouPjixYs+PpFwiOmHQ0a9VkcUe6xqtCtKhYXf8MACmgYcaWQN7u5BOLhOPQNFPtTVVfJk4BBjTNI4bcUWcR0qkh8b4bZYK0rvYRHhVIOROHjCssXqv0XAfbU3SAjBHcdGYOO2UFkqfmlG5m2lxqtQrVQ6IUClBS5MVTvX0VFd8Itqt1Eq2Y0xEXbs9VX5mj0mPtgnMWhLpSHRsRHVF+eCmIaNSm1prE4MXmbNTbGFIWsNEAdZlJAWvmwXbaEUGg7oKVjXkoMagqWuxaqjisS0ZoDp50V2PDOvuT8v0sT9pLtXwIULF0AE+TX9MSLOyS+fv2f2XwYPvzG1qrZ+2abDe47ldGoZs/SF8Sm0izrAuAEdX5h4a9sW4WfzSxat3/fJD7vOFZZWVJvfpWzXImzrli0gAoLxohpThdIMy8ToWmkCpRM+6glGLIHsOjAyPND0qGlM06aC2mULsqqVpJvjr+xTV+EpLcX1gKE/CDc3T3wQ8y6xDM0udx+SpJ6ePNhu04vtTZaaYM8OcFKCgn1i0yJPVFflw/2OLV+x0FWmYcMSmxqbIobItjV3RNUMWZsKMDwxxmcNvji/aotUQOkkNMLggAylyFhmZjUaMK0K0idyip56+6ePlu8pq7TxxruMJu4n3X2Dz58/DyIsULrDsYPOKfjucV3DpY++25H+3GcPvbX8zIWSrPNFj77zLYQbO+AGrmYTkPN/HdNv/d7jc7/Z4uXpFuDj+c+1+8qqas/mG55aQv29g/19tm3DTyMEBCXC6WKqANMI4YjaZEXx9fEDTUOMrKUZjRihsvoUDqjTqUqxBbn7RMFgQghKXZlDAsVLomLasHVkHHvUw1qmGrbBZiAsYkRPEvICIrh7U3qzXeVUb/0VXYRcag17pWDBPqtsglxqAlusvJxc3JLSovLdG48XWPQ6Migajrk9hio4zMSsjQwRzIyuumbI2lSAjUiMbSHjShDtkkmwqITxDW5i5cB6MDCuKGBcJzLTqqAY63eehJvM77f8fukyHNmGYZ9ksGZ29wnKzcV3QcLolRXH8PfxAK9RLy76bM2eQkulq4vzLV1S7h/c7ZZOyZt+yx7crbWoZwtRwfgZiBVbMjOzL5w8X7Twp3219Q3hgT55xfizKxq6tYkD3rBhg59/rIurO40V9lQwjRP3XWhhgdvFgH568ohhQu4TG8tnVlK+gyyHc8Ur+BHhLXCQMRoyTQ/xMF/1QpwnEtMbHrAp0uO7Bku3g82EV0I/9Y1KRTkuX5qG+o8XijqC7HNztPEpUtiJrWGvFCzi5JoqNYEtVl6NXl4ZBSUN/GM2Wh0JuDLZCwfMFlMdGk6qaMXgqzMF0zTCpoZoxAzSMI/Cjk+pyNwurArU6IsmclI1QmcOh/WRWWMcYlkj0wohDb6V1XULvz/w5BurD2Wpr0sYYdgnGayZvQOjYJ+sqqqKj2j6mf/Y2QLw0j5aAHMz9YPv/zp/9dvLtx46ed7Lwy0y2Mb7jYxAujaurK3LLSqbs2RTToHFzdUlNMAnt9CQk4O7t87OPr1v376wqA78nAQ9pTHE/nKacd8x/XDU+TxgIw5LH0b1KW0okfDgjoFh/PJo/umsfBo+ZfGZU5wRiVGPhXE0ZIyM8X3+3DtMTQgtvWnoqUWnkI4dU/RNrOS37aMnLLb9b8rxbFELEdRGfaMSnk1/k5LSPaz3Y+q3TLHPStjAG7tLLyAhyE7dJGGCdhImyHYHpdYx7dgvX6Jes91WHWxEteP4ywxmmi6Txuo8jZrGYmIOr2qETQ1xiBmkcSVgfNZQkzSvCrUtNMladRYhSIlVRGZiXg+8JsXawJoUWddwGnlFFS/N3zh74eZ8q1+laOJ+0ic0AXjPnj1tY5v+whj/pLSnm/ZhNKW+4dLuo/iLBHARC5wQafeVnkq6b4wJwd0Sv1UO21QQrvwLJeXADH9vj57tWvzrX/8EHdOiF508gJ6NqL9iOMidLEITPDqMHXIXnI1ISEykpJFDxqfR16zrinYsykM7eDkdXpPJb/yE3Pr3/v2ktATufF//Ia21E6Q4yGLQwRI8KBRvcwWqT+88JaQ1Lu7OlF+Ncw/uPowaAaw+kSlds4f3uvnDqakdcdsOuvm+22YbPk5AYC/upjW07psg2x2UWsdU7QGBrvpkA7imxnZ8xUI3MVTHtWrWGIY0RBMai+2wLaAvAQNDTJUxPmvw1Syo8UDEFFpnQwhghL4OiXlVoK++GtVVxxqaIVb2Hsl94s01/1p9sLZO/9JyE/eTfmGYk7AvpSbFOEN/HYLfh3FzM97qEM7ADQZ9gpwPrXHsLL5Z0LmV/iUK/tJWg/TezqBurV2cnf/1r3/5BcT6+MFOQc9MEkvPT6jRKvfZJ+q+V8fNe6bb4N6J/e7s/fKb4+ZOjKIdryFn685PL8IwUYTGxl8+PnSIXhxxj016Zu6oVx9v3693Ur+RvWa+N+Eft4dLV400uCpTuxF3tpSuBSwlv+KrUXbx+dFioRAurXp1UWf51Kyv5A8GuIR36fT87AnLFg19/JaIIOsrY+FFbAIMgL1SsHCpVkeGXGqCE/0AefuoIm9FushWa1qzBoqGK9MhG5LEyBDBEduCtgQgPFQyMbbFDBEE00oAL9LIVJXZHAKB601msQKNjGXUALHQ8NDQcHnlr8ceee2HjXuzwQCwu08ynN08vAKjICdxDmKaeOHUzQWz0eY7pOX09ibcYfKhNeDucWvG6UFdW0HWCQs9c3h56AsQLlz37tt/6tSpqNgePBp0purzE54pPT8x0/lhwjAqy0+WNCju3sk9Ojwxrf+zE9p0TeSfPao9ufbnSR/Qxwk4AgxiYeZzczOPcU74BHYY0O2Zp/o/M7Ftl1jYVBtyMrSrDWyHpoqeEUH3vqGVdD1RkJUpvhpDXRSQ9Rfn5U/PKPERD4WSgDpbNkxfdN7Gx+gQddm/5Bg+68gx5cgaYADslYKFS7U6MuRSIxJSwlxb+B3Cb1cZy/iImJeXyRfnCyzErG0ypwRWtGLw1Rmr6xohaw0QDVmUkCYmjfNOhdQurQFVYzRwwpiSg2A1mq4xDjgAaytQZirE0BwZDnStNJZW1Mz7aufT7609ea7Y7j7JAO0f1Xrz5s2gu7TUNzGbCPD1hISskXZhDc7040IOchKwcmumv4/nbV3FG5JF9Gm+MPUlzvAg3xuSo75YvAh0dIueOA48ZNrzk6opPeB8KUn0s6n4+S8/zNtaVKx9xK2uNifjxLxpi5/45Dy54gChF8c5sPOp59Z8srUgv1I7nYaKc3lrPl4+abeWKNgOTZhoa8CAYOmz4fxFEALGVGHQB3eflZ/CglPvpPOlOoVrNzz40q6NR0vVV4Khz3UFWTnfvr/6bwuNycoxsTskTGC73C5DszdZKsPd80hZufzH5HSwiRgXq5UvNqLacZyJOQ2w1JbG6sTgZdYcni0MWWuAOMiihLTwZbtoC6XQcICrSNKSgxqCpa5x1WE0PCbmVUHtUmRdq6ena44DCfn0e+uwqoPvTwJfzNp5dO17GRkZpZe9nvzgB3C1h5f/PLB7m7ghz34mjiUkR4d89cL45z79cf0+u1/4gu59P+u+0sqa8bPEb5Hs+ejJBT/u+ei7HaDvG9z10eG9IiMj6y8H9uj3DHWOT0ywdtrIlCrEfT5Zjt+fVCrz5k9cs0quI/naiOCAhw75+n686KXvZGbyONEUYml03P/O33f18fEISwo5UlAMh8JsGDxkay+NuY6srxtzI6pmcFOMf8P3J81sFcEe24xpd5/UOCiuPTz+9NNPXdu0cHe1ca+owcPNxfotfkZcGO4fZ/KlWyQrQMe+2XSodVxYL/XXMuAMaQEghnRr9csvvxQUFIgLVzEPUCIYquoMRAwDhJIB9ZF0ZouIg8PB3Gf+ige+XTJ+8cxuYTBMPMQqQ4+6pAbwLWVJgUhIYOwn+MKUcMwmQV0UsNbXyNwp1jKLzl4Zu7g6J7eLrAhyO5KPCQkAMzI9yKwWGJnioJ+mHTBU0VYpayNDBDOjq64ZsjYVYCMSY1vIOPuiXTIJFpUwvsEN1wMxkMS4ToBxJcgsVoWIqTM+YDTWGBNZ5CRIDaw1dvXw8YtIhpx0d3Pt3R5f8rGHypp661/TYbSgz9Zl8x8ks49lmw7DPvnY8F58iD2kfvRJS0iKCX3zzTednJyj4vC3BcQw4RmRpvNCk6SpCp8HAzWdtrCzpqHR2ckpF5463N09gtMSH+4kBlTj8D79H+okvjXy+0ZqgezYFWyRh5UABg3XVzfJ3B3WMotuXgG3SA71TAw4fNFSRb9mCGZkepA1H8haY5wLkyZmbWYoNK1VI4OvzhRM0wibGqIRM0jj2mA7zBcxtwuzjBp90UROqkbozOGwPjJrjEMsa2SxKjgOMzxAk5rGFMUOIRv2SQZrmUMSu2zatKnEYhnYtRUZbAM2SZs/pQPo1jr2WE5hkx+Qr6yp++zHPW1ahPej72HCucE/uBd9aky/zVu2rl27Niahr5u7D6YHDRyeBfwnBhE8eBSFJrPhzNCCKSTs0kDggRgmJXvVcX4Dxq/X38fPn9n/3tsSb+qT1HfEjX+fOWretKQ4OsWSA4fezqRI3AfqBE4GRwOAQcP11Q6YO3ItWuXgEN/I1PCj9O0qKMfhoULWyJLmA1kjkwOQbW1iMNNUmDRWJw1eQmMxMQXTNMKmhjjEDNK8ElQNNUnzulLbQpOsVWcRghStQ1pXgjEyJSFK0hiCI+taPT2OjJrjoDbtk/Y4rFXv+vr65cuW9W2f4CG9/WhCRXWdn7dHmzj5x9gQgb5ePdq1WLfnuDh2iC9/PnChuPypu/omRAS5Ojtn5RaNufmGuPDAxx59xMXFvWU7/E0QcUb4QD1UNfZXYjprPgOG9BxGdmIcLCoUQUHue33byuP8FqVHXFrSmEn9n5nW/9mJbXql8ScMG/IP7Jz6jxM4lBCBW2GtRbsiYG9VsL5qxi5cm25UvOhvV+W5Xz55sYzNAFFIB8LCWmK9KrPZWWgYZhsMVWj4TRpdeVo0jcV22BZE37AKtaUyxmcNvpoFNR6ImELrbAgBjMAVJTGlHyjjDslpyRqaIcYjvXnwBW3aJ+2xl1+ob1jikiVLPN3d+JcEbGLjgazLjY2T1CtPDXf2TXN2clq3t1k5CXh9ya8xoQF/HXdTVW39wZN5Dw/rvvDzf2ZkZCS2Gerh6QenxRNDJ4mazkuYaJQE0wjwGTDo2cvIaMUQ+CDx+U+eW/r4/BOHzlVVSC9w1tXV5v9+5pu3Vtz3j8xCGm6MILMY1isE9lMF6+vI2Cn72sjQ+aR2kXVhnpn5+BE5UxWAGB5ZS6wWGFl3FhrnxSFDNGSobsUQwRHbgugbVqH4Rsa2mCGCYPO6ovkVbA6BwLUkM0awYiyjBoiFhgc1GtaipMXmbb/uytAs5w78kL39y/yCgiO5ZX/9eLUotsKUUX0m3Nb5gTe++e2k+NVmzMY3Hzx8Mm/qh9+zpTn4cMrIbq3jNhzIKrRUjOzdLiEh3lJa23fQq87ObnQu/KxDZ2SludOaFnYxWJq2YlEfHTRNkUUI1k1yTKyt1115EBlXp/94jo4NqvByziuttF2Fh8GO5gN7WmP0MuprYg6sah4rXatQ/14IuXHjHEFonjuO40hrZyFCUDtcyiZtFckryh5jBEmzncPZ3ScZmiUsBb+28M/PP7+5Y7LNn8lhzP9hV15R+ftPjtDeZkxNjAj08fxpz+982Ey8+fUm6F5ydMi4AR3feGPOhQsXWqbeCadaZjlz7sy2Myc3lJedx/5D3/Bk8FzggE6Pugsa/iONI4aJh9A0paLOaIU4FII1h6PqFELV6rBSHFWLCYBHEcAKWF/F1WkHTJ29Fh0Y7B2bFplVVw0JKVfRGKANLWtkSfOBWesOQgPpWmWMjAW2NVYnBi+zpmCsBWStAeIgixLSwpftoi2UQsMBzamuJQc1BEtdqysEj4lRU8qx5vQjrZ6erkUcfKCqjt+f1DjjhzcCnC2nTp3617p9Dn67tV18+Gd/G+Pm6rzz6Nm8orKoEH/Y8Sa9vSIj+0KTr/HIuLNf++n39C+vqIiOiqqoMH9OF9AydXRymyHi7LT00LXO6mkY7ThwVsylkuYh09gQwRbb3ietwcPKsNb/LnZ3d4lrFXG0yNLAf7uqierqMMhaYvtuoo6srxtzI6pmcFOM/4XvT2occ8Pg7OzstWvXjeyTau89j9AAn9ceSreUWmbMmJGfdbhDrH+PNnHOTsqnT41a9tLEtET8ZYDmYMzNHSAhQdTX17/zzjsvvfTSp59+unXrVtgwodN5Fy707NnzROay+oYaPBfoIZ4MnheATtXAeALAOFgSU10qlBjikMYyNZxgagC9qC2JeSgpAg90c4CBVFjra2RxvnbsxNDNxFbhjdG+hwqK4daR+m+qYmaAGAxZS6wWGJmcgXTtgKEK9Q2ZtZEhgpnRVdcMWZsKsBGJsS1kmkFul0yCRSWMb3DDuSYGktiwinQWq0LE1BkfMBprjIlseN2VwdqaA+PaewfFvPLKP/y8Pe+4sR3ZDPD2dJ8/7U5/D5f+N/WbPXv2iDuGDbp1QF1dXX3D5dlfbICevfinW0VVh4gI8nt63M1n8kue+uiHo7mlDzzwwIsvvjjyrrHugZG7T+Rnns6PjIjgX+663FCHaQA95LOjcaLzIi3OVGgEstBQHzT64pARs8YIFAf+UzUGwmkTGn05pvrcJiJodQBQquH66iYZuuDA3qhExgQEtgrJtJRZqmqp52qhrE0MD6SRrTQfyFpjGiujJmZtZijE+SJmbWTw1ZmCaRphU0M0YgZpnGW249whc7s0j1CTtIigaoTOHI5WAq0ZZhFN1shiVXAcZniAJjWNKYodQjbskwzWNjmmYzpsVjt27npwaPdA+jN1Mt5/Ynh8RNDttw/LzMyENoYPH75nz57a+oY/vbp0xZaMrzb8lhgV3KNdC1HbPnq0xQ/DzVq8YdNvpya//13XSe/Bv0HPLJz++YaSyvrUhIhV332/ZMmSoNBW7p7+eGLQNzF8cJJ0XihVjUzFpPGBNJTCAxIOmdCG5zl0IF8KITQFpeqqJgccetEi1kRgJRXXVztgcY52tZ+fZ3yHqFOXas9ZKoWZ7Da0xAA8XUkjS5oPZI1MDkC2tYnBTMNs0lidNHgJjcXEFEzTCJsa4hAzSPMsqxpqklZnkH3RJGvVWYQgRbOvrSIkYEpClKQxBEfWtXp6HBk1x0HdzPcnNY5s0w+2ykcmPQwJ+YJx05vzUHqH5Kjx4/E78bNmzYKr3JUrV+ZcKJrw6jdZ5/GPQPPXSgK86ddlHKJLK/ylPEhgEL3axY/sk/bo8F4L/nbX+jce/NOgLnPmzBkx/A5Pr6D2XR/g+jhueHrYRT5flEJjAZ2p0AjJgUZJZ/EMpzJakXFAUaOX0BSBQmNVHG6wixavFNi6CtZXzdhZ29rVzSU5LdIS4HJE/YQjna+96gYGCE0HwsJaYr0qs9lZaBxta4YqPJxGja6kIYLQWGyHbUH0DatQWypjfNbgq1lQ44GIKbTOhhDACFwtEtNKAIWsrxxeIayhGWI80psHX9DAUCb//ckmUVF4ev/X0ydNmvTRRx99unrX/O93+ft4vnTvbf06JE6fPj08PHzKlCkQc+uBY99uP7Y18xx/QXncgI5/HdMPxP1vfHNIfZvEHqaO6jv+tk7iQMK33347c+bMgwcPBkS3Hj7x+ZKcy6Y/XysDT46Zzlo9UNkhTNWbgCFyY1wL09+f/E+D+pbQMiz/csPFCuMvUNqCfipWfJWQne2FNrKeJFaFV4Hr/vcnm4TsqrGAaIALVE0FWl2Rk7pBZYa1HfjY2nmFWTs+/vjjhx9+uKisys3Vxd/b4/kXXpz1j5n79+/v1KnTZ2v2LN14sKS8OtTfu018OOx1Y/vfUFJSEhQUNHH20qNnC0R0O3jx3lt7t44KCQlu164dJDkb4TK4srLSwzc0ue+fQpLwD8IG+XtFe3ieOow/4QXAvhnOl5+ZyGKluZKm2c5+VJOe4eCY66BWn/+gVNJQzJWYwfLf9v5kaJifc6hXdlEZd5PtostcxZ42MXvZ0XxgT2uMXkZ9TcyBVc1jpWsV/9e9P4nqivZJQEN9zW8rXq68eObuu+++6667SktLP//8802bNkFRUlLSl0uW9OjenWtq2L59+8KFCz/99NN7Zi05bv9PxDLef3KEd4Plhhvwd+6cXdzcvAPcfYL8wpIC49oHxbZz5t9WVMcnITLAqagmP8f2L2dynZEvj384tXr96BVzycjnDgUjwJ5GdqhkBfZlsNZYhXQkgipxcUFFF5vxXsh1BHeLQXrojDH3BeTcO3N/WFLw0ULLZfqJtGlPj77N/JvygLpDK797hn4MwSqMzgzWUyGOcjp9Dv4idhNoVIY/esfDKfj54Jzdyx7mPxQPkEOLdShKDPrugau7mf56XNn6aeveEVoEaBKwT7Yb2neKf+6Nsw1/BZy7gOA+sEVdG2TWNULVM2aMS9dGsqrg3Wc3fC0OCOPTt/XQul13YPmKJzAzIDIkXs8v3ospBsuvVk2KVqhNzklR2my+1FB3eudXub/9yJFc3DzD2/SLanvz4R/m1FdZbrrpph49enh74/cnLl26tHHjxm3btkH2fvXVV2NfWHiyQP+JHZtY+vy4U0cODho0qO9jXzrog8bOTk5t4oIv/l5UUVqt29XJBh7+0vhJiUqFUvzFvT9+K+yNTo+P+rF/oKJY1o9aPlerqrLhWU3bJ62Z6si+sf8F708Omz7mz+EXR725u6q+wVSK3Rw78Me02vnPb1rFXeZCWTvgRmXaMyInpZMWbOWQ8torHYMylj28RNRhu8nLLo8duKZ97fwZm75TLXc8Ahleg2kp1+SmVM3gphiwT7Ybpuak5mVmnmtZ6yzCUfGM6ePSlezes3Zy6YwZd6dHlK15cs0sWg/TMV3L1jyxejb7Thi6tYd/+Yn9g9/7nep3/3JebNHy5U9u0iIbOsExxQfK+QSazy6u7sl9JiZ0v6u6rEBpvOxLP9sD6D7xnbyMn7fvWsXbJsPDLwz+QXKCrq9p+l4rLMB3S26ui5sXtKXOo2CASQPglvXI2SKvQNeWLeOyD+Re4p/OpJFkhvNVlOJTluBeQ5WVq9niNK1lYE6uJS6Gisk07Z37b8NXlwjnTgyZvAXGasTLEx4OLD4UFNWBfgCgImPnmBePYHXFaeq7hvrpk3G7gcjaX1CtPJpvaRuhbF48+RM8VB7S/5BrrmrkPW2jkswuYF8XNua+tvTdE/7rq3gaivKglS/9qdbupdgE/wAE28fPHDsy0U1Rope/0BsSbyUUcARiOCMNrIFG4FrnL/SUrX9qHVxN8Aib7G/TUGlwcuo6/60EfIkckE87J5cKVku7jV6TVohPAXcPXCP2Pdycn92MNSHNxiulJSlhUBP30qXSKqWq2BPSwN99eD59bnREP0XZDJaUV1/p2IFf+88/PfT1vVwfduaHRJ+xlec2K7fc1W9sLAxI4vZXfd55Dva0Vu+/1rkzfd/uzImC4JaBJ1bAVuY0ffq4tDI4DPdT6vbDVra59bxXRTV1M4Ru9UiNUM7sgv0WkgcKnGbNyk59LzF1vKJ84dQ4Pp3zExMSyoC/WNNHSd/aI2WG0/HZZEEfjENanCoWoKaneOAreH/Smp3dPX1DW/hQQgqLq3tsx/SeD8zvNGZW+xHPdxw9s8d9H/X407sxNwzhnHS+3MQfsfT2cAvw8z5z5oyrhzfExMmQGGDSGtfUNhw6d9GrVXA8pAGAO8T1SW8/Xp3UvR0+P6Glb5tYyzH+VDyFw4QMyps/asGQ0QuGbLQosS0/eRzHChEbFbR7QTrZfdM6vTYUI2BCYv3P0sFlA9af/xg2M+Cx9P7RpRsnLB49cfHuAPUPp4MDJqTC9tGL8gP7jXl5kNr16ORWWWhfeLQupt8ESFGuUxkdJ+rY9/VpG2RZpPkO/2taxCcfrJqfVacUnB5COyGCWJyLBDaMwMvLmvVPLRvy1LL5Jz1ve2vgNBoSSkjVnoX2qfqgAmAPTAjKOjhk2rL0pw4e8k/4+pEUHmdRqXHvw2CvVnL2LEufsWnVOEhIz0Mrl6VD/T01HUbc8RqkFiWbb0pACdkn0cWtvFYxDFtUFnBKeXVWxw5lp8FrKLW++pmuaL974EMpNT+DEf5hK9jnX77Z/O6JOiU/+0ZMSOX56Z07K/nvTl5645P7i2IgAxHYoqLEt/TcgnZIyFaQkC1z99/45NLek5euLg+fPIP+GqpTSVGVEt9+wBi1d05Ou+55csl4/IsujTMSYEs8AblH11AQk3jxiQNV/n2fwI+aUsphKTZGJ4kW0pSudNpX+v4kDo3KssVa+4YlBsW0849I8fAOADvcFjY08GukcOQI/HuTv//+u4sHPkdxTPZpji4oqTxWUhbZKTokSnwoF+1QDPigsCQhfgQ/hz0eFpdbyLeXXDp3yoIhf/pxJQd6v5D+zgaOG6Iyb837pNHuEZSIEd6ejPVXkbPTB1QfB7Rdx1j33M3ffwCHjcoHv4i/D6Q0tnm5S4BmV9au//qoknpLL9Hpyvx1tO+t3ltSqdRl/kJ749qc05XugfFN+Z7PeXGt4unhdvR8ZYXi4d22VNiB+cmXNRBrCVSla3qye84esTeu/PDIoWr/Xo+koD1Ft6/6SLObgSetZD37/LIxH2WRJgdmrUW4iE3zr8g68ixcSYB9ybr1+e4denUFjVWqS3fg7z1hDyEC95M1AMOItQqXzQlx1aU7ofLYpA5eZT/z3tiY9dzawoqI6FcpyXUsWTd0Gu7tohUB2Ojq9v+0EdLfyen444fp14O5XRD5Ra9wW/ekdFYKFsw7zu3OnpV9JiJm3k2gjz/xbPYZ7/DJ79297b1x2967+4t7wA3Xg6K0jvRTiotPqLc2EAcYku1EXrni5x+MKUqnRPukaFLTdNakr/T9SeqhYNnSpHZ286ypwZ+u83Cn31O1D/5FguPHj3v64vuZHAf4inR2Xsl550vJ3Vt4+fJlDKFxyzFL8I3pWAcvXI9vgZpkx0caDbzz/HH5/T8ub0mXZDhmKmBAkYVGhTz85fFrlt+/hutjiBB/rzqL9qutayvUl56CAn0U2AO1v+Qjrk5toLpgrXoyDCc7vmqdpLYR9ZHeh8vpKY/OAkFdZE09N2oCroq+PkFKXUmuVj0rn1ep0Q5ZJ+x0QMh65nCZb0rHNW+NXvPKTcPZbmKtrcbAIC+lpDiLNLZ7iv9GtjrA3CvsD5VqWvEKe2ju6DVzR69+a/TquaNvjSj7ma7Ghwd7KtW1p6AOVlUaN1eKt1yXnoLnjluh/tzRH49jk95nDNzPJ1ipyfuVzgvayq3B1za4Xa6DunEMxMfEG7ftXUg8+JdIv0bDlXbeM3lp7yeX9F6Br4vE94DS9BlUShEoIcW1mNBoxvUjNO2T6g5JWm1e7JaGffKqGZpyrN08vMvL8fR9m/rMQFwIfm04MzPTKyhGi2CTASYtM9xUHj5bWBvuldwJ4yCclLeOV3cY1LdRoQvXD9CX7PgsNXLm+B+X3T8prXo9Xr6eoH2S5lytROPJB/gsCPeZkI34su2oBemjqD4+L0IN4WANuN8z/A463CvaA7algrQN30bF21VR3D0Ol5SWVdfqzbKvxNRzoyYYtMQAORho3S6dnNNX69KfWpa+srDCK+xhyJyncd+jAokBHAIATFpvlwYYgBa28/pkhoLqwk/gWpeuRYnXvc12hljJkkXJem4GVv45X4nrDpl5B2yeWp+xLdbcrto6AFskQa3Tvgf3kHTh2hsY/+E9p+TmpPy6YTDa9+/HS9NWioL7YXBwayjkCCrj/llehk/OlHLgiRFQi1PlmFiXktb+PsmwtttkaMqxdnEXOentafvD6xriQn3Pnz9fW1vrExyjRbDJAJO25oqquoy8Yg9vZ9ip0QIXmTFhTz0mLlzBF4Ej065XgkfOxgWDR62Yi+MjSiCEJimoOMD6iVh/yKjlb+Oosh2eF4tKq9zwgpMxyFf8RQenEkulEhjWhjRZGM3SVr5OSkCQV1z7KPzb8ZfFK6vGfgoWy9FKM1BugR3GPShGdXJKiaBXYRolO4VX7UgCrBs3bxoDmbm7TIkInipMRFpVDGEpqVaCglKwD2B3UpL8aKtX04ntGoMvMhVhddLCQryqpEbx8kiiUrT0g12doHq9/TpkJtzNuielpYCJWqGSTZXFimcUJCoeKE4x9DdMoUytw61/U1wDK7UlaYopivF9DtgVUXM70KvjF/DSFNpvnH26zK9lCuyZdA3V6r3X7nz/JqXxppiW3nUnDuF3FaV9Eg/AWdstKV3RAmx3n2RY24Gpn1emvQOj8vLw4zv8V5YdIC0p6vDhwyD8IvG3fzgO8NVp5rIGGIdLgV1jA8MOHssNvK2/dOEKUCcyKKwdjonSbs6/6OcnAepcqEHFEY0t1gdLY2O710V9eF48cvB8XUy/2x/DQ+WxW9Q/ItB47MV9pT5tO+BrM+jb5uX5E/45o41omGFXG3zd3du+/umEd6e0PFZQInpFbOynsHM/2SJrBsm9a7Lq4rrhayHgOnxSO7hP2wF3hib7I5pdQ8rrr4z+Gu4wyTQ13l/JL4anJwQxrzEBp6xn8UK33at9qXTswNsi6g7twNdpRafoAden2mfWAAzDZ0cs9BK6Rn0GPzqiNKa8NijMN//8c3ifOXDNXOwzol9MklfdqYwstRWsqyi7MvLdOw8ZcBcet5rXXjzTYLuo8GoI2/0iC3a/9Ok9+Cycxg/d9i6lIttfHTBGRIOngwF94QZ1K70S+8WaNfn+6XgpCyvh+JM/WlJGjds2KkI5kaG/+YHt0klSk9puCYQl+HCF95PM1M8r065eftWX3S0WS6toR393JDk6pEVU+Jo1azz8wnyC8M0BjgN8dVpjQMG5ogKPxpX4o8ulcOGqA8ZEOfL0V3lKWk+4fP1xWc+g3TsPVSpxLftCAUTDKjhwpBCgjzzD9fHmU6vfB6r8Mm/1xvMB/enGr3tpfq6i3l5+8v3Co0rqRL4n7Jpwdu+9s45RgS3obZGWfL9c0CUi9+DoD4+jnU6V5lHUZcvKjNKKiIQf3xw4je0S06oQYL3qo+/oZdXRcGdIL7Ti6yIQxradhwOR9czaQoXvJ98afZt/4fw5e9XBUllrCwYMLnR313QYgZXXdPfEdym2kJ3KuSfq+tQ1AMPwLBCrOuvZGfRyK9464guwQ+fsRfvSdT/ni/vJ1SPCSnbjeyHg8PVhS3lE4nbIq0Zl9uz9+5XwKXCj+G7nkFy4J6y5sBnnV+sJzfXxx589dSYiUdxP9lDWTF4zi+xPPLtkTTndavK/UZ5bnlz+JL7xhxFmzVrSZ5eSTkVbR4kXdf1adv7xiZaQfhhZce80atzWeXdvhQrzxm197855N9OpYvNit8R6V/o5HsfAgRNSaOaj6z9458VH04cOG/nykvIq2z8D+8ZDg/p3bh0fH98Q2Da5772ar8YMWcuwZzch0Ncz1sfr1G/iQ3nW0FvkJaI1L7MdtIgLlj7v2uvdxXGWRV+/uFYcXzUiowPqA9zOFlfY6Il1r2TdDNgLZuKrhOxsL7TGBEoM21WuAo4+73rTgLV3em6evAbfwKC5Ns84Q9YOIbtK3PL9J4KfmEefIjIUcJOqVgsM+ySD9VUzB5Y1c3hKr5kzZwYG+D81ujeVm3HvoK6QkAsXLjx79mx0h8Gyr8YAk5bZnt3EpRU1GfklIR0iIltotyHorNXhZ011krCAR4w1N6PdY+AUool1u2mzR+BFKR4oQ2fExVSW7Da/jioeEc3Qfv6eLdpHnrpcd4YSUu2JzqI/rAGqBaVm0TSBtSjEc1GdZG1ieCCNbKX5QNYaY1smTczazFBI54LM2sjgqzMF0zTCpoZoxIQeS94dt+Qe2hUbled7h/vlX5QSUtxPoi+ayEnVCJ05HNZHZo1xiGWNfOLx93ZiDY7J0ZBp5yQt309e2T5JvRXMuCK9Z/G0vz/z5HPPPffVxt/e+Er/oE/HlOi/pHft2S7h+PHjnTt3juh0Z+wNQ8CLAb7XRVsDRqBNbEjJyeKyYv7lSAPYF5nHiiC0/QZaTLhj7shQcRtZmb/w4fV2f1CsKbi6Ose3iTheWlZTf0lvV2ZGc7QdOHbVmCHrZsGesxxaYwKcI5yprEUVtQ5XvyKY98l70rdrn0fNz9Y/cMcdaWp+mwFIQnrFFV1RC6tIPHEgmqQDg4YDzkk1xB/LlvO/H/p25jvvvD158uTcQkt+SeXly5fC/D3jo/HLHwsWLJgydWpk13FRbW92HOf6srubS+vIoDO/nW+ouyTsPEp2GQdX1nJxXEzzPu8qg7vCULsVnxxaqFwqKK82hrfLNk5MZa4jawPbdrLD7CVrie27GdjkdT1ZDKIB0fS9EBDYuANfnc3zK7PZgaJSEkps5WWPTdHY/m96f5J1YHTrFl1HTJkypUOHDj+s+CrCR+napkXu6aynn346JSXlLw9NatFvUvMTEmDSV8e19ZcO5Vx0TQxMSMOfC0I7jI/KOFZmhoFDDQc0rGoBOaDlSoG+KhqV0DDfsLbhRyoqCir0hKTIjtjBQODKMWoDI+ksBzMxANsyaYnVAiPrzkJjuw4ZoiFDdSuGCI7YFkTfsArFNzK2xQwRBJvnF/c6lc0hELgryowRrBjLqAFioeFBjYa1ICGxFjzY3CcZ1vZrZGj7wrFNp7cvqadPUACcXd0D49qHJnYNTuzi7unrwPd6McOmPT4iwOliTUGu+PgN2sWzF42eQ82BbO+T1g0zjNrLyz0yJSSz0AIB1chNM7cra425jj0tKtrTJmYvO5oP7GmN0cuor4k5sKp5DHWt4v+J70+K7hCuWteUFdZUFDs7O/tFtgQL24EZ10tfBWB02sWFFBwrqCyz/eIwxGfwGGJjEre4qu9Purg4J7QOP1lZWVFTjzEJIr6VNrUomGFPNwPWrhozZN0s2HOWQ4t1KEqstVaRYU87gL3XXTkygvvAFh5nKkCLXkl2aAJckRiTk40i/dQDc5MiMpr+Te9PWmsP/zC4lDUlJDDgOuqrYBi7zLMXq0I8k7vEurri+KCdFgczLxoxkvhAFlk3B9wYIS4hxDMp8FCxhROSI2AwO1pqUWcEds6OVhnimBmJ4mtaddUYIDQdCAtrifWqzJIztmXUGoMvaqhuS2MYYohmW3NgVTNkbSrA8MQYnzX4QsKwhTRFgxQSGmFwQIZSZCwzsxoNmHY/1rwTkoZmiPGAm1Rjoun63E/KDM2a9HVkgEnLbM9+RcyorK47nFvk0TI4rlU42nGSDIwjiQyDixrNZNKfCx0DAynBIT7R7SOP1lTml1dJMY3M8Ztiw8nL2sgQzcxcHeJo2g4DsC2TllgtMDI5A+naAUMVOiNk1kaGCGZGV10zZG0qwEYkxraQxTwSo0mwqITxDW6YbMRAEmMSAkM0A4sdUsTUGR8wGmuMifzve3/yujDApGW2Z3fADHv6Yknl72XlMV1iQiL90E7zAACNz3xkoPFEO42n0Ah7QUl7errh367yaDxeYEEDTj9Fs2YxX3aZT1togGpBqVk0TWAtCsGXNLKsTQwPpJGtNB/IWmNsy6SJWZsZCulckFkbGXx1pmCaRtjUEI2YQZr2NLKb5pGYfNFETqpG6MzhzLuliCZrZE42NSZHQyY7aUpatAAb9kkGa5tMvRUsW65FO2DAddQ2meFYn8gtznO5nNQ9zstXfNEM7eJZUNU8nijpAWAdiAAzlNQmoj7KK6OwpP7yZTiW4vBMqRY9pqpNDGVY1awRpMFLaCDWBNZUxb6WGIB9kDSypPlA1sjkAGRbmxjMdF4mjdVJg5fQWExMwTSNsKkhDjGDtI25I4s6j+iLJlmrziIEKayPzBqJdkXSGA2TFmtSZHm3FE1SZNQcB/WV3k9SDwXLlmvRDhhwHfVVMAN0w6XLh89erIugb36pZfCI4wmKRxgaQws92EFkTKB/q5BD+O2qOt3XKo6w6DFVbWIoUzUC3Wxo0WFJa+zYVWOA0HQgLKwl1qsym52FxtatGarQuZg0uqrnKDQW22FbEH3DKtSWyhifNfhqFtR4IGIKrbMhBDAC90OJKf1AGXdITkvW0AwxHunNcwIrjf8HGryE7FkC1OEAAAAASUVORK5CYII=;labelBackgroundColor=none;fillColor=#B2C9AB;strokeColor=#788AA3;fontColor=#46495D;" parent="1" vertex="1">
          <mxGeometry x="407" y="315.5" width="132.61" height="30" as="geometry" />
        </mxCell>
        <mxCell id="VP4T0eHwjd-KZM7UqZH9-739" value="" style="shape=image;imageAspect=0;aspect=fixed;verticalLabelPosition=bottom;verticalAlign=top;image=data:image/png,iVBORw0KGgoAAAANSUhEUgAAAPMAAADQCAMAAADlEKeVAAAAZlBMVEX///8klu0AjewAj+zD3fkAjOwUkuwAkezi7/y51/jU5/sblO2Bu/Pm8fzv9/5tsvGOwfSqz/acyPUsme2z1Pf3+/7f7fzI4Pleq/BTp/BbqvCYx/V4t/Ls9f01nO6GvvNHou/P5PoU9OvKAAAN/ElEQVR4nO1d2ZarKhCNEKGVxLE12jHG/P9PXgdAZIjmXKfu5X4569hE2QxFVVEUp9N2iKx4CMvfsDbrABBLgv21dZ2WBpYpW/Dg/AdxcD44/1UcnA/OfxUH54PzX8XB+eD8VxFDLMFOtq7T0vC+ZaRbV+nAgQMcDwIl2Lf6cSo/hbCZuYEtPQT51gT+ASGUVx/UuDKfSHkc1I+Vwr/SBxgqS27LOdBz/hvr88F5Sc6JtxyLz7AeZ98Ol6PxEVbjfAYWjN0FmUzHWpyT9qf2fUkuU7EW56Lb6cLZkmQmYiXOKWCvqbY3xFbinPENTVRuTnodzryb255elNAErMO5EF+HfpalNIpVOCdDPR1vLL1X4fwt/c7edp3+jLNqV03inMshGfHCrN7jbCtevYZcqD5uNMdS9gHCKT7ABMgttfHofjkSzu3jm/ZxIj91pnTzWTMlNl+wFoY6USy0CyV0QSjTuRndW1dqYahDux7czhpfLmwwhN34765YedzMXBcoaNaXi1K4al6dK48vwoc9VdpbFlnF2FCEp2Vf5/EBXm21G4UPpzrOFlhDimmE53UeneSqkhKn6003ti18+8ucNUuVtZLk3hlnknkvJwoK3/eLIHLcRYb6zsa2RSDEiAFCUAWvv8NZL8NUIIiCmf3Bm3HWrlVaEASCv8FZq5OYgOPHn+Cs0z2NIHDGab0d57tqY7wBnNGhsB1nd/KErkGs+ShvyPlkfTC4Z9VVNuT8yeCe1ZuwIWdPtW9MmNdrpPffzeED1HCGw28XUzt61tms8d/hxpy7/T8fYBsHmAD5KSyH356sltjz6p/JWUar6Lny087Ge8mPX/p3tBrEQ3ksT0rVHtcCz6uGbYlbNk0VQ3vYqZ0Bye1pwWlrFfqNwWZDeOk5LEqAycTVGc9C2cmh6stbDbV9jD9ZmIs5KP9MHFN7AIHfc1AuPrHhtgWBP7N4C1LVA7tTIFjN5AT9zILbCgRB6M+miEzW97YAqYFQrQpahTOjUbFnziTLM78IwtvMPr8dc0azLEu/izNc6rTOc7+Lc7UQZd3u/k4wj/qhQ7RbzsvFGKgekJ0ALWckO3vlDJY7pGDYDtwcaMG0TFO3A9cGWPBY6fTtwFVBFo3qne5UXhNzbkepiPeolJBqScrCeYAdYc6dVg32qHwu3M27VErAwtHqr/0J7mWF9umj3cC1ABY/RfvJVvcqWMxX0MPfm2W1QnT+3oQYjBan/FnsygpY5bTNvjgvvU51+NmTEFtBgDXY04QmaJ3jRXsyocEacfkN9rNCrzSyT7vy965FeT+rlb1inrGdDG64ZmqSfWxCrxsDdd2DbUVWPu78UYz8QpThnMcNJuC8vRSbOYZzAuKtKYPFdiGN2Fr/XMOAVIA2ndHwuQFlzWnfFYFXUzmH2FAvmSeG8x/gbNbR8DJeu4VQbdTRcMOo+3QbZczeQmJzBBusVwSct6R8OpWrj26Cts5S/bX26MY7SIH3varsJmA7gS3gsuKUJnjjqcyQr+Y9gPlustRW65BGq/qBxlCuQHquwySzYfmextZOZnKPiccW/xUI7jETWqBeEDkfY3DZfk3W4fbJab7PGPvXrcmZkGQLqGQEgWK3jBvcYjzvACeY3Pc5qgWEZEZNFIF8ldR+/xvfJZxlXiMYR7se1AO8fPg/TwqTmnCwtcH4IRIng5PPoCsdjEEV/TLCFLdnDOCHvEnNt3wqmSl+Ex7nZwUhROPzm9RsIUDZ/fab+XKkzt0vcZuAAKG632nXN//UTGuu9d9gnD3D174siP8Pzz1/R0GR5VVsNYeTsRWXZZ4Vz3t4dlfeTz1w4MCBAwcOHDhw4MCBAwcOLAEnL7MlI4gfRVltGgmlotmKI/ZyMcRXSJqd5sXe/w94dNkP4XjJf8RP6zCEe9prphePLJcJpNv6QZuEKRtAg1oX57yLgCiKg/MCODjvAgfnBXBw3gUOzgvg4LwLHJwXwMF5G3hpml77II/3nL2vQeGRN9eFv5TC7zknqSEmwbt+PYwfTtJhoNkjNVfz1obANLD87y7aw8z5FeS4K0yycCyYzb2zwigbxkW95XyH0FZOJzxCP6a1zLQxVncA7Yr96nwpIf+yXM3HE/eRbQRh++dl5pxEFuQHgwnBoHpn9IuFmyDWUohwfMPZLRvjHQ3vNTrnALOXNR8uFRdO1ETeojbvwfUC++BjQpDtD3r7acsRTgTmKTvPL3EOoRzbSmBpcpqFWAmExTHPnmPm/KQXVIg+lFepRBxCIsWIUi+Hc0oKJcScoH7UuJYupovYkc5P8qi0MfpAe1jXq/TXF7PswibOL14j4Va5Qhc8TeCP2Hs0dSEKtfHlhFcyNN35gWkKA5HzzRTciUs14ss1BTsjWtjAWWDHD994peE8BBIPF9LcwqTUfpmwmRKMxp4LnB3znSgEyULiZhuDIYmVGDmfxVBClmP7YQ6sJEKmKZZPWV+YJUK9C6OvidPDatqCnvNZpNwWFkuj4dJykwuLr+76T8M58YV5iAj9tCdSbqo5+LDNSas5pEVO9F4+h/dyLQbzIHS+I18WO5yzcPMNAtWzKVwI92gN08R8QaFweQm/nVAo3PFUOTviPLT5/OvP4xKI/XsY3ut39SV5uk+ZM4TZvf7w3W9aCXdDu0+pg0jIhcGtGsxaxjnhjY1gwPvU7Q9mDDKf83wmdeFrX5hWqsuFL3P2xFujcMzHV59sE2a8T1NRMms5w6qX6rfCD6X2A0Mf81kcOowz/zIcrnRuzP/Qf+PCn2UD4UZFcpcTS+IcikH/dn+gnydSQPFg2bzm/A+FhrP+Kgl+shfKCec84YAg5eyy/gTKQUZ2xowQ9oRPA6BsR/k2vXBR4vzIhQrDUpDGrAOgkkE/YD+hecUEzsRwGTIbrLrskf0UopxZliVdDpyMthBmzcFydusOerphSKsjco6EkUqAeJAuoi2qy1ESMUH9I3O29Do2uwVCOwg8Lsk6ziyBA9butJT003RiXd8W5ug5f4mqDq4Gyx4LAtderfekv+vEWM8ZGqwA2nNEn4mMZ5LqOLPbLEttYXbon6Y/ZynWRhJ+8f2qu7CUE2ls3Gg9sD7MnbZ2JxQ5Z9NB4oTWExiahKUj6TjTdV6Z+RT09iPyFCtiKjzkTDKxk5WT3vTNyLBPzZokHnA2NTa97MN4twa7DKTlzJZbfTf3o7n9O8vYPZbXTaM1YWWescY2vaSiPdfICMYZm86L08t7sLEzkMCZrhem1uajorkvl7fmWAiBqjWpTcrarzo7evhUyToLnI3XwtBBY05mTRfkljOdoeZbsiKhQDhx41pz97HSzTzNpnxnMAMdJTgSOFemL3bryZvEgpHA+TLWQNTwbEcNTYEKxjxHGkvTlkfd1KR8rSTxxjxs3UTQLwEtHKG7aJ8jY2HaH7hRxVgDjVDW5riWR9L3xDP1rSrGOBvPyVPO5hAW0TfEFE9jYZrHuJVBdNaM3qklcOa2BZHWpKk5+VpR7I1Jnbz7RmWsEm3ituVHaYj9TG8RAZM54zLlqi2JB1Niaj+3huIoZyrwiOnvbFq2Kg2lAY3n3xxhPjOBN3Z+jHFuVU1unKNKLHOexpm0NRvl/ByrWS6sjKFASf82WrgZFN9jhYecy8785QkHBylqudyG7wAqUfc0c2Y0TDFviahmsCXXqEDHwnh2J25QSLFSTHcepP9jtai8rzeg/TbK2R1RrWibdLYpUw1ME/o1WBlHCkucedP4nLQgeJkeO+Uc/CjnE9MtDUOQ2jPUEUBVPGx4HVXD6CpBZ4WpMIMyHHgCJ8FgpVJl0vVz45yLt9YPM6ToKsvWDL0UY94Hekkc+69Z5LVQpwC32nvdhA3HKVdEjHNmb9PmqL+B4R/ZvNKubVc4/GMC3xTuoXJOek8F1024ba5V6wZDfpxzby2qySS5uLTZS5mHS5P42+MVZVstgblwEvmXl4lzG+rbUeQ7LcwdpjFATkEtsgWxOoGzy5ZEJU8q9wH3Y4DbpiiXGtzlOlTFiTHVH8kJ/VyEEaK+H5141+gmJftwKcux1oUmVH4C5/6eYxSLgszzGT/xBg6+fpLB8pY8uSfL7q+Vcvo3DNZCmp1J6/fsoOomvV99mJz5Rre1bC41pnAWsmrDiu46n14F4E7PgZnz0+vEMdt1dp+9F37gkPGFwhFtizRghbFpH+Ok003uXBfD6E7nuedwL3xvs07ifBW2ITC08iwrhV1bqV0TwaOBIWoKY9EJP1xNhL0H1BaucO+/7lYxg+ry5KoXG7UZGrzL97NY2BHmImca51pWiTtBZLgVJie9HmwbWVJhLImrJH5T2HbfcBZ0E1b5QWq6JgWGuE/WW8PTOA9JDwEUce5pt6q1lGvS5sSBtAONKiq/sYD7J3OjqYFIrwTInG/BXashXGN91YjOeZ8Yvk1sXe5ktjulvJmOH7NaziZG78zTbrk3zScuDBLnMHqlmd5ZU2g2igku9Xf73XW7ytjSB1eEQNOeCDHBKNkYAhL24n6UOroUVlJbU6uA/Sr7irLU4AJ1K+l9BCJjds1rBqQNcGzOWfjwbWlDG4OAt/ybczfXTkTZgsKZFPK7EMglT1K3lLNfZddL8WW2sfwmVVCbLKeWjKB6e6YqvSCIWWEMyvCdr+/6tAaFI6HwtcnLBPXbKC6ofyTpSt69fVeTyaceLRAWihfWtcVfhZHnGsZ2h1d4yaqyyv37eTwZUBo+s6pqC48n00m/n1nevDlwJEXKu1S5aUClfpmrTV9/+KeK4zIvIq3N0fyqf+M5CAbV+w8bqOJG+qfS6QAAAABJRU5ErkJggg==;labelBackgroundColor=none;fillColor=#B2C9AB;strokeColor=#788AA3;fontColor=#46495D;" parent="1" vertex="1">
          <mxGeometry x="233" y="358" width="73.6" height="63" as="geometry" />
        </mxCell>
        <mxCell id="VP4T0eHwjd-KZM7UqZH9-740" value="" style="shape=image;imageAspect=0;aspect=fixed;verticalLabelPosition=bottom;verticalAlign=top;image=data:image/png,iVBORw0KGgoAAAANSUhEUgAAAMwAAADACAMAAAB/Pny7AAAAolBMVEX///9Gg+tAe95FhfJAe91EhvdEhvlDh/xEhfVBetpDhvo/fOREhfRFhfNEhvhDh/tEhvZQjv3C1P7P2/hBgOtajuxSjfVXhtzZ4vj5+/5MguLx9f03dt7h7P48g/rI2Pvo7/uLsPq3zfoebuNvmuttnvl6p/1Xlf01gf2Xt/gmevu4zPOdu/d8pvStxfdpm/uKquljkueBpesuc+KdtehvmOFf/4MqAAANzElEQVR4nO2de3uiOhCHFa16RG0tXggEiNbrglTEfv+vdoKuQiBgbmj/2N/ZZ5+zrZC8zGQyEwI2Gv/0T//0T5yyTe+zJnmm/VQUIzist+OatF0vAuN5KJtt1+123ZqEz9zdbp6DgxbdpMF6hVtYoPpZjO2ubpKrdtvajfPZfRILpul+1suyHD+NBdOMl3WyeLMnsmCamVcfi7N+KgumWTt1sdj7/nNZut3+vq4J1NvWHpLzcrc1ORqeYF6gBaqDBfjjpxsGm2bsgxpgnMOTR/9Vu0MdMWD5EhZMU8Nk4zwrjSnAbJWbBuz/vL9If/aqR42xexXL+/tOccYJ1u7rYNy1WtP4LzQMNo2vkgV9v9Aw2DTfSCFM8EqURIE6FmPbfS1LV13ViRbuq2HcBVIE8/mKpIyUO1ZUQqND/xfogFSwgPCj+2qSfr/7EaqYbMy1+2qSRO7alGcBwe4XGAabZhfIm8YY/wrDYNOMpcOzvdi9muKm3UJ2ccMf/QonS9QdSaZo6HeM/qvcNZKCCd9fTZDVeyjD4mz7nV+kvlQFvd+9uv+kdhLZs9H/VYbBpukLh2d788sMg02zEQ3Py/dfZhhsmnfBVTTn231134tyv8ViQPDr7JKoLxQDjO0vNAw2jUgFDRZKWPquu9u5O9d1VdnZXfBnz59j6dZxAtIdf683h8Vms/5uuWoCfZ+/gnY28iyd2Sb00O2En/v1WIl5+hvOGADCVn8kp/52cSe5ylwexrJnTU7c4qygzY0r2WJn84kKp0XLb1cex91wVdAg7HTkWHp7qi8A49CXpul0uExjbuUM03HDsrQDLd7krhOWu+UwDQ7Lciz9iktn7zvStuEJz57kgKleSEGSl+pCw749YCbXmvtg9dFZS9O4M1aW8I9cQw892oulHe0PYwVtt0ZvEhp1SCcDpu97Dul3B1eqiaSVFlths3ClmukT66i2H+n6RLdWfrZxM+5Jwry5CxYWb9yRaWT0EWS6ba5iqCeCX8fMxAN+4qEkTGfMEAPQQorlrf+dSdGNKNZviiOUuWJfujTNAjUeaTmTgxll0kBzBfVU8SltHWHfk6TpzB5W0M5GjuVtnG53s/exnlUznUrtA5SneZQ9g1BuxGBXTntsTiEBo6/upgHBF/53S1lTVJnrvlQDb6NZWjr5pGF03UrHrJ/A6EOpCN2vvv8EArmwTMDYxzyMnl5K7wKjD6Ro3Mq0yRtJjpi3UbqpEi1yXqY308avlpH0tM6oIjyjg6xhqi3TPBdg9NaHRGtVWeBn/+1DUhkYcM7DaGkw9W4wmEZcb/3SxQ2czcqyZGEaXn7ITO8DFizvMFI0buku7mAkzULAOCty0MB01iRcUIZmVJI9m9uOWpjGUidoMpEZRdnfSNB06PUGrpXlWUgYe18SmBsOOZwkaOgVtDeSrTFy0SwxQEoT6+dMq+EXATOZiDdIC8/2WjosF2EadhjF8WQSx3Ca3TkOpvlANxG+ku66WKYtlbDkYbBDhacoWh19lP1hIdHBNMJNuoXs2Zn1lKgAg62DEMr9xJoUYDCNaJuzfHjej2qDKeqYz3OuNMJt7snTe7MnwvhNGktCI2acEfk0l71x1bCwwBgR1TAJzUCsUZe4B71UZRgGGGNVxiLsaaNsBe1sFKE8hgFeBYuwbTILD3bYUmWYRzB2mC+l8zQfQq227ncdcK2siiULgyhZkx22i1MMSSMUBO4VtB0oQyFgzOhUzM+BefqqxhGzTe/v0qMxU2cYAqYdxxHFOkYhl8nRiPh8f3ZZe7QXO3UsBIyF08svmnXCaTWNSMPXHZzeQKV6JEySLYdOIUk3g0qcyVCkaTxzgoNbKwzGWZFZ5kXesQpnItCyewANWykLDUaPm0evkKYj/9SsmD1FaOyGt6sdBmt6LGzfAc4yKo8EAjQ7r7Go3zIXReeCrwEngKU4/OPGXTSmvefAYJziU8rA/IHlWSdv09OGUpRKGKgfjAKO7UXqPO2JMBinHRRnHXS2SnyNmwbDDLEG2ENvf13/XP8bDi+/z/zj+pFh+rnr/9w+Uwmjw3gaFoZOwzlq5TSXJm5t3zua6eEg7WNjqFbVMImvkfedr0PHO2j0Spqv8UbruTAYRzuZxaHjR9RIwEXTwtFMAcHfkooJBksLi/mns5/ScDhocDRbuLIkvVZrdlGrhYFYYPQ48lHBOgY1YWOnwfOMsZMhGfR72/U+9AwsL9xvZmwwOoSUMA2MI+UQZpqd0bBHEn7WG33vPcf+2y1gO95+47HA6HBVhMFhmlZVM9L0Rjiw7MX9bDTbGzbZJ9tEDDBQPxfrgqtxKOsdkwFLZ9xkKdAYiJrG/S4mwxmVw8SWV3qbGFGmUBbb9AZJKmuLhgDa8jsLDIyPVQciSlXNQONenxU0vnE84tZwtK5ESWA0mtqrB3vrkAXzh2CaB93p/d1/BILho49SWD4OD1joMO3V4+cTvXaeRtMnD7ozvG0xMFcDbpjBBvHDQI1W1QA7H0QCvXARHtAM7uYG4YzXNL3vxw9+FGDgPCgkMsDxwvM5NIhs2owKpqmmGc7S+6XOgdM0g1luQxFAqDCoczBQo6wEOOHKwimzFR2yv7PPFAetoullX+j0OeOj6ZH7iZzl+XQ65hMuEiamZMsN89CGFyNAOM3uhjSosaOUZkAscIMFV0AbEs9JgHOkJQVJOyJDbgZGjzVKHZPsBsgaLj0anYp+VhHTeuTtc4PLNIPsiEGr23CFcJ41TgqDO1rM+vFVILvcTjdbgJACU+ppg1luAAcjDsP0srstfzLtQivjuzcYnFTSJ3y/TXQVRmmffBpLGc0o/0wdmnI42jC9UWUfiWsIf1JfucJAGFEGy/XQXAS2Uuc1plTTUD2tN0X5U39+MIfnQeaGqDfPNZdyOpcRYZ3L9h0ZqxyMnhqcFpyvahau7Efx9pa9YTZN7/s+NApBVE+HMXZAaB3LcxevELLSRMdZlcFozdxF79GeEDaarDGgl27yck75q5t2yD7Bn6q0Om9UDTLB5CL0oEmbvsGR1TSdw72LZr5ROL+7oB1SchcjxfPm+WNX6UWqgCE9rXekBheHNQZ0FlmYXH6fbioDBRQ84VvEuMhl+pnfVd+TzrBMS4ZkyAjTO5Q3CuflSRvyo+weenTKXwcimlXAZGh6Zc/RoDUbDTlmciqtVoD3Y0E8r6ZXctkmekzMM+0Hd9jvXUGUpi7yRkzhORPNQJhvle7CyRqslayLwXbaY/sneyzUzil4WM2SrAskPRlWbGzGFTQLzDDzdHFuIwy06LWXHf5dsYTZDYEos+yH8wQiN3sAAy+2caveq2O0mMLzJOOoIRmQTrTTAi+Ct+gE06cbko1nt59D+JM5wMwHuqISmkGrqqoCQY/F0YaZ3Axk8xmiR/dPmIevzGcI24HjvI0zbs2aEz+l1TMFTYaj6ndRmUwxYDDNXBH7PNeuNYlmnYonB84ZkunbiXANJzwfj2fyfnR5MkPSPHhLGGsFna2kgHeM5pZlRSfKzQrHj+JcHwrDCuQugX1kQSESU7qcA4tphmvCWZHhh6FvoMLZkH8qrrTA6METSV5hrYkqnbL5I6dPJtMMc+8eByB/eRuXhXBqJg8rFwGLKVIJy/TxopV9YgloQ4aX3JtBpJV061jVgR8mFmwYhsdOjSmLaUpzoptAONeKy19325Qfxzb4cVHL9JaTPVNS05tW+8ocVnVKPyL6cQ4jiwbZ3j8D2AJa1dttnZ/4QZ9wIkYJRbbPNvYTwzC+tGm5Y4Fpjaa0/jSSW0bFEEbpTWHFxjaOZYOsoJj5nU2M2fNwSrtlZBsnxos733vIxlHw8sd2/BOrWRLDsrLgFI1Nw+bBz+E43mlaOu7zPYJWhCd/D8s/nyJ2FDzm2N9xBAKm7BnTTJpRaNzcBeDJc8XgYVkePI+3sSytMl4UDuN5QajJfP9pOLlc3tD3w3NwsLi6JCxy5fShaThuckzwRcWxq43/egpJIr5XArGlaFc1249bVyrI+Y0UwOdYSX82jcX7XSFoMWwx7xF6Lk27LHsolzGdNNnVfp60isWsMoH9kAOmqT0PprqAoMvkMU3rabbhC8t3BS0Oy7SeZButfX7cc4rQimfUPMnTtJXgK079Jo9tnkOjib6AGpz4TPMEGkhZzGKU2eKkqZtFgxLv0w9iLpZW8796YWKZbztxuGbOZnNYr6dB2lNf7FpyxoB6Pa3kFgOr0IFz1GCa2lxNy6zXC8mzuGlq8zRL9ksP7T1fDKiRBp6Fw/JNXClanTSaWFJGCIT8MHVEAQ2q+AIahzNFq4kG/ij5isDljB9GOU3xFpWY0ELANLpqGP5amS6+Cvpum/8Uqi1QK9NlBwIsimnkw/JNZvRiGk0uKSMlEp6V0kh98UxOvBW0YhrtBymEaXj8SY1CGqj4m6hXndfRUDexyMh0xWBU0MjUynQFX4I00iyxurB8ExKaORXQtLOvRlYlX5BFlgYq/Tbdv3J4V9FSyYwb7fF2HwEBT9jRJGja8/KnIGWE9qIsMjSqsuW8jEjYNMI0kapsOS8glj1fpAnCqA/LNwmsosnRaGpqZbrEyrSrdH5PU1eSUSUR0fjnm6rnCpRIxjacUaB2luTRyok4DgdKu/2jPL8syg6mwjg6O8r8LPv1uWwyj5HVbE5ExLIC9V/7P2tV8ayachw/OKymQpo/1Op09p+Hksh2TKMmmc5zHOyf/umf/gcO1spgDMOBOQAAAABJRU5ErkJggg==;labelBackgroundColor=none;fillColor=#B2C9AB;strokeColor=#788AA3;fontColor=#46495D;" parent="1" vertex="1">
          <mxGeometry x="492" y="28" width="74.38" height="70" as="geometry" />
        </mxCell>
        <mxCell id="VP4T0eHwjd-KZM7UqZH9-741" value="" style="shape=image;imageAspect=0;aspect=fixed;verticalLabelPosition=bottom;verticalAlign=top;image=data:image/png,iVBORw0KGgoAAAANSUhEUgAAATgAAACiCAMAAADiKyHJAAAAxlBMVEX///88Oj7iWhw5Nzs1MzcuKzAlIijhTwDm5uYzMTUoJSsrKC0wLTLgTADiWBg1Mjf39/dAPkIgHSP5+fmDgoThVQ6JiIp8e33s7OzV1dViYGNMSk6Qj5G0s7RGREi9vL1vbnCbmpze3t5ZWFvJycryu6jGxcb20cT99PCjoqRUU1a3treYl5ntoYbwsp11dHb42s/0xrbkaTX65d7rlHX87+nqi2kTDhfnek7og17mdknvqI/mcUP2zsHsmHvjYCYAAArzwbAHQYfrAAAXFUlEQVR4nO1dZ2OrOhI1EWCaDe7gEuOSglOcfvvN5v//qRV9RhLFuclz2vmy9ymApWE0c6aIbTQ+IXpPDzff/57sexrvDk+PzUG7PWjdfIluJ1y02gcR2q3Lfc/lPeGydZChdbTv2bwfXAG5Ucl97da6uGlDwbXbp/ue0DvBZfMAYfCw7xm9EwzaWHBfm7UerhmFo5v1Zt9zehf4MWAFd9D8te9JvQP0OIULJXe/72m9fWAukvqHH/ue1tsH61MT//Bn3/N683jgTVzoHx73Pa83jxuWjCRW7mLfE3vjOD0QC+6gdbvvqb1t3ApNXOgfvu97am8bf4DgcAjRvN733N40fuWCGzwge9ce7HtubxrAqTb/nCBOV8M/nF5dfr95vPnx6/MZxMdcyag7+I64SbNcHLdHD81WmHFvD5qtu/9ovm8FpzD322jcN+FmHfwsvO/++m7QbAKj2PxkiQEQcEU5kV/IybaE/uH0z9/fSGix5D5XYuAJ+Ia/4cAj8g+PPeb606tfv1uc0OJr9zD9/eEv8A1RfavMP1BPcNBqFhDmT5ZR+Ql8Q5z3xbFrFj9QTzAQq9qnFNwp2JnJwhn/EMYPp9d3j7xRY7fqwWeq8dznJi6zUTjP1Ly7KDBqDD5XiAYCrnzhOF8yqCG0EGIP/FEBtGuQ+QFhTrgK7YN9ruM/Bwy4co25E+Y2KxTuc6WMQTKudZWNnu6ucs1PFnLBgAtwXXEdAqDN2L3B7/2tYR+4ZQKuDL/LHEK72Tpg2k0+FRVpoCI+bhgp9A9hIuTm4gpGHKEkP1tW6QL4BhyjC/0DFdrjw1PIky9xY9jncgwN1P3QxIu/Z9lbe9Bqfb+8jQ3hH5xD+XxNnDDgYnbbUQsKrdn8eZF73dsWlOqnKySeXgOFa7fZPyf+IRTa499raPzvD7ho9vPg9ugHjUCBUnF8gvqH0BM83j2xlv8G2r/BDZuy+8C4vQwzuNju/+Wuums9/jgSuEvUFtYefJpk0tWvG0EysinoNRdzjL/QMbRBvPGR0Tv5e9AUpnBrC4AhIk+vOt83gpO7x1ZRjqhVk/r/2bXy+t5x+uehLB1Zt+v3Cqlr86O3p1Pi0W6WpopqdmBiWlxSdv0IuI+IR2kWl0YFtYqiPURE2gcfmYicfB+U61pI1g7u6gWbDBH5wJH9yU2hN0hWTxnuRV2H+hdHqB/3FMnpj1aF1Jq/f9XnYQwR+biHDG8fS/ZolFe73GWzMSV+PtL4KLgv7FUIE2vNH0e7xUq3mIh84HMQvwv0LUx3/HjaNdV9ippxBh+4p+uPMPlNiQd1oc+gEQwR+cCRveDcRzvMrF09i3w94Mj+AxMRwbmP9s0OLhTjoka74QdBjxfc4NkE4gk71P+qxOA4DjfgOPyO4a4Lx5ZLV3wNeoSrJcivFFRGm+2/z9tjP5GB+68cw6Jrdqdo5FA1TdOQp1h2Y9X8NkcjvdmhQS/srLOR9TfDiiXn2Ma3fJzQ68JnfstvFtX3wg+y7OxPG0xhn69OvA5cmUj2GI3YRKIgygZKzutKkrWA13kTM7rQPMuGAoskj9IMycr0y9GlCPIqv/tEXFJuN9t3u1s6zOH+m5hhaFEZdeCIZ0hEVQ0imQEYXVEh2VswMOsSSTcsw1S9bKwv2/34X8dUqNnw0pSILdu2CTW74FRgpHZHO6rdE1I5rqP6NaDRNUlAOShmCpk4jicRAhRxTqUpkcN8gGogUYZLxzk+zK3ciiiz+F9U93L1mitkwxnOq+LGmXZzsKPaobfwn3iHkU0mE8lcg6GpLvvR/5BJPnhIxUikbu4eJoQQr4HRsyQjGdvaeq5e5zrS1QSXJc1aodpd7sBir+Gz2s3XV7mlKhlrn1h4U0b/OSbA9M1MSdFysUQD5rHgaWoyZynTPQpfxtYxwUVpmxulww/1M0PISf/DWRBtPZ8Fi2B2rJVf58t0+/VluQ/GqFmfuVpAJZMtvdcher+xAcLYoI2cYG5K9mgbYmQDIYfquhmPx6s5c/1leVrpgKpd3dNrJ1jlnhVyLWdjnfp+xbIsxTTJkN1QAGsj1JuZRTb5mKZKEr3foi4j0/hAkbou3daZgB2qgWcNFgvqPW05hE2dbbatHfpEurGJys3k9qYkRRKi9bMus0PH4wTl60rMVoZCpBxENzbsm86wivRmbUpqPkb/K7yNWOYyHXJkIg+p+PTM4FM/iexiDF+WbCUCdSS5gQzddEjj/scT6MaRuIyaalz9sijumNtV5XoBlloiO3Us3rGhq1yNtj6B+yqguibbZDPNlzmlQ/52OyakkwxqimTyr+OQ2MNZiLMxkXN3ELppb00hnPLlY8GGbbceIlbi+IUvHgIVHHb8btW6o3BSi5mnxe+rRugZqVTtkO8q+dxGtt3voejKNaT0OjN5A44i6UP2ca4sGcnffVk/z8aHOrKhHK5/i+o1g3Ycq8+l7rLs7hT48P5OCZKhymtbCnXKX089I0k2FuAO1KnO8HUjXZKT6zI129B/x1qar8qjpDfmdL1DAnwu/0QWVw9s0abduovUzfVVYrvldydAiaodPoXjrgrULYbBS84mZHUWbiwfuEiHEBMbcWrP9FF03SHRU1pxRne5FWja3B9lF9ItmdhAqqO5hQxd8nQ+n59x9AXg/mIAjV3zMWYigW5T2l2Plt3jo0p1GbTbkcvkRiV3ztwRuspYRJTmZ5OjXMzCb5hSFjveudRy+enomIZqlqqaRk4BKXNOpEgdjJkNU/4n6VRf1VzEIpxeHrQGqbrFXnE5jozEqvS+HKhhum4/oSYVb9N0t+L9QmN53Y//OTeJkroP+m+CrvO6REn0bGoROx12VnGID546lpVEioECnOqxQSIokGULcf0zEl3zJtaWhRrpgiyIOoQ4fUZd1TmslBv1AMjIntsdO9mTS6tjpS5vYUs+evRY6qS+9MzuGLnXCCTVMKDDlrKn9AnJ3UEgdyJYQq+KQY1dM2l3WG7MeNo6u1UKgRLBfA+nCCu7Wm5UJwVE6l/gaBWByTNwHzdZ9qbdVBWUWmwkxCk6UFMngz4t9QsZ9HIr84awPrSyWQuYNlVj4W04o1l9CP9YrSU3SfompHNvDyNIrFSBWo/CGPH2O1fqH+yW0SSMgSO6QkNVzuoRY/g+Gp/WXThtlb9gapJeeIgwrCf+gUnPo50ymoHCyGcynR/Pz1ddTFBkq7ax2DNmcEEwe5ogUGM1PGhHPSY/L04y4T3ukNF0scLJk5Roar4JxpVNPQL+BjDV4Xp89s9n1DJFgUkSK4RNE+muZTKapSl4rHD6CujneWb8SFcQc71VjOBW4WLidciKo1wrPHjebN3chedrdshodlAWCdPswEheGymLd94aVnBFFuNAvchxRKwYn3WLO8Mu8GerStJLngEVzmCShaPIrZvjd7NNG1FwC1bEpK+02DBFkcktl3tne7DLMpqBBX6Ft6R0EkQVZfzfLlzErkwU77ipUIlT8v1MoIXFVm4LDQJfCFirulSSPEfohdhtkfBubT0/m83O5t4/Bih4D+mQxvU26Wqj+PFnleDKvgeJDAKs6CUY+TXW4a4X201HNlQanfvT4503tjbrb0zVNMOsnWl0D/tn/2Ab5pAMgMoHxTjzt9EOFn8juOZenSAywtPsahVaBivLtOSE1RBZN63xbAet0YKJosjo/cmKsq0R09Nw1zsLzocJ+vEt2PiAOlJjm/8lCv0rvwZRkl3q4bwIz3qqZh6sDEGQYcrDmjqz9k3+/nAm6rjKRNDfVgzF0lN0Yz/QhxkLuKAhUMXIrZ5UCq64d4kRnGTuxNfcqSpcdfhKu4sa9m59aBQmZuTuqExvnfMu89tG7AfGiI3kSaUFtH2RG7yv/HJLu/hY0opZuLpDYBXIllQMZVKlMsuxUZoHtDrFT5h3uN9OigtIFfIa+Az5DCXK9JQVF+OtWvyFmxGbMjfrOtH1oaCWCEG65UnboFuRrqdPKCrT5Pm2/OJJpOIO+kOWVMIpIMuPBu9/fa/42l6xVw3YF1e3KjQtKYpl0y5JW7tjs/J+Qakjhi/IICZcaokWlHo7D/2YldOu+6fw6GFRz1jJN7w8bvrypA4B2dRKfirjIkPnSVXqlkhOxL59kYlISj2Yxpm9RJrwLes4sDw9uXgUfxuztBWAzcbR5/L9MNyySb1lFz5rXkNfY6j8fp8KdTWpPeKkUkxMcQZIXvFvU/ABhKqDSSgJE8OqypGvzbrLLnhWYFTfmcJgGd1anLFOigvniMZF783ZwNdsFxRa74+wwWtXfG5aE+w5s7TnoHHc5W8pXrfAQwR1k/XR4hVsdJ2CUmYi4D4UUtw8sYGUxy6xRKfXD4/xV7rDMzpV1Zo+r3LldG4t3ClR8VP0B5OLRuYifSOybeu26Am2j+6eFnCgxA9gGhduX2QRCSn3fadXlz8eBwc/L6pPNjmiZajF1cilgAnopjFZjTeSKmAoNmvmPP4HbXr/dtQfjla6oXOPMCC3dIqsa1Jc4JJKI2T05BcsSZ6JJGcWcTC3wy5MNyc0sA9fUE+bjRVOgVWcBXXYBxDL2s6zkyHekKPVoAOdMf5S1AcVQY973x2cVPIaCxTzK3VZai30RdSiiHuyxWtZHaKU17LPaiQKtNPkaA6LBIwRW7ABBcxG+kjjiDEZ9WPETnWJtMByZyq6+kXlRoUhUn9VKLkFNnDEGHG6700YpUM1YcbAEaXPG+vlIZ4QzBMisdsbVhLHaH4dlGMSF6f/BeLeEVHYusRy0yVRMcJhCKoOnLSDI3NZFuqAOxHG7424xzgXKJ8/ZHYyegHdl6+caEKHqPI/tEHXWX6B6xljnVPyvwyRTK1VATdw8frzkgty6YK4eijgCOnVr9GI4ImYFW9KseYrhaFoD2tMblqwxpbEKDN0YW4mzxTRaA6/MKQRhCAvgWMht7IYA4a2dNofJ8ISvYisE7OxRVnGTQlXwvkuM/UfMNCRBVHJpiimEQa9L4GZUOcO0VZCapCkcQowglsmM+7YQsllXJQx66nOQo3SeVlwXCeFVbtNbmcsRDono0QC2oBmaTe3hmPtRMaI9fOHkhBQZJWdJ4EaJWh90wrCCtGufjFMRZJTQPCFDHPVK0TGJsnxoTCzqscUZR/S01xIowSsTBCVJOt4zV6EkSgIBbNDHsuqiOUQL0gOMCBDKmpcg0CvKT0QgBRZ8IR5UZqwKkb9N2wFig64EjTsbE8GB0ThE+nD6ndlU7OLHFHSO4M0qsvfxCW0M3Ah84tiLPjd7BQgoixW5QuEuaeEskO2WM3ioQtPj05DPcYns2OU0DhRfuvlsOJ/OGsogW9TdPSWwYSTEkzTM139IsAEUapxCzA/Jt3E3cOi3Jv9I5wJTyDTFCw094JTkywgZYsFB9WlhuRhZTllHiM4JkgaMklO9F+C5swXhCC/mvJMqEJq9dsbc/4P7qNKG4ndano5ZCOiR6DctDXHMbjFHbx7SSy5LGySDnOhbxC0JLNAxCHyf1CUFSQuBKwepIkl6DQFj8ABi+oyDfXGq/ZHrrmKQnymBrpJlFoUowcfE3MBqLJGtcpCjUsiBwc+VPAInNWnXneLbDaRX/iMC8aMpXOxhaoKrxlA4hBTmh5U5SoW18D2LDHsiOMIIjacVLL51nB/J0nsij5DSuIGjAUYFXyKgAX0wfF8e7vQ3wbe2UmlC2qU6DzllIuQz5jNWnH09R/BpBFjKwy9ZA2NW3FmHG3eGklsOAs9HprBlyc4T4mSLzGF2eJU/6tyEib/nHAB6KGqWRhKvMVSQhpXfTatB/x7+qKgXxYRGkHDuYu3z6tG+6zKxTNAPqNbZWVRtdaKhnpwCdVpHk2QeYNUUvAEXAJI3g1TxFNe6MSGK4zVcV9EZOOYZu6KgAldncZLkKAIygUMoM6myRGoUQIOjrUr9bpMUvhFKjbOoisMAbB3irgATtjY5U0S2LKkWUi0kZQq7wDtRdIfiJJKAgGwtcF4FL/yl+AkvcCyxHv+DAkuSqDjhE3FqV+UP8p+YsSb7hJAt5wIya3wy3N8/C2dIsOv9LqHzYswOwx/R8imcctPlIVYMIWrspDJRdFHll7BOR++pwQDmotESEjrBcELbjjPve4Ye9Z/4yTHnbhXS6hyyMjG23LEVPDV4rySg3xLHlvjJsYSMuqGexvRn1h5EAcXhOzDgnODLpMXrkEii+CtsjYDgcrhbRlnR9iEjVzIgV3UVgXKmT0se6Wo7uRKoVkH8Xxas4AaRXz+RjRHmDxhNmvtT2qw8HzQ38FUshrsTosPpzCV0nDdBf7Bs3F3B5jkFvu3guZqz46+IioQEkoqCWwkiq8UuCGZzfo8TqKNTPQYizGWLmpgTPiSoLtKLLlzplsThuJs8dYULL5HHxB+nsQFvDH9uFJVUqmYMWlM/M21edYBlx/HEvA6+O3ExkwTlF0truWlsWa/NGSi/ciqrbVhFzCnHitSUugIUiGh4qKgNojeC04ZBsxmfc63QI65Ypa1yqylO2I0Jsn+CdswiTFCs1tzJz4YS8g2t9EnjIHolsFh+OuRN4IF6URIDuob4YNO7Hy6zIeI8ZZ5Difp8UleW+mvXcfRjkcWU3RIy+3ckhPBqKvAC69wl/Mpf76IsDUdvrnHNib9s7XnrYP+JDngFCkYdARJRgDFvzrvGRH7ZMNpjTETz+Ekoi5a2TQoTM6Spc9fFNXdiGUaqqoahsL3oPI5EFGLCpGV8IuEVnaCMAoyYRO0KkgqdfhYUdBwDsBsVqm7Oydx63eNZy0Q3NGlOhB02G2L63cZInFDapEUUFFtUBDrIqrJf62P6cd5DifZ1pVCXv8u7AIqgain0xG3piNEId4EEqb4XtSp5PPP5hvOEZaMtXkGJ2EfUbz0bKs9Q+HEFWCv8rejT2m6YCAVEnzfgtogPkIq+uwr89P8d14rMSzsFMBLz1TGqSvqfPlqQel1XmUooiAQEq9USCipxGsznqMoxcywoexjp/XBnu8VA6jMUsRGymDbha9TeD4EIFIw6AgSGoe+i1FZG2R7IqMrmNefcRJtEVA01mH/ey8oK7YLW1cx0HFT8WmaYpirkt6SihNwkYJBR5AICR1hEFTEET8Va9M5IzkjkZEbnNuzWWP6jS7Z+1ZaiRKeCoGQCST1iMYVffY2g10Yv8fQDstMRbQLIbUwBEklg5fLDLERcYaZDV2y3JYWOqDplN61nZaX8Gb8ySL0RKwyuDgcFJ+kl6JooKqU5AxLfj1K10D6k7j2eUVt8BwyHVFHToNvPMzo1jIS3Mz3nMm6ovZ5bBeunlg64xGhQ6MvW9uqRW5WVjd1Gg3Wq4L9Sozoa8AoqRTfElQUdlFtoSjBzG7WlJMkgluPZoFXVTR2ffG3BIhin7MWagVZVfiyPd8URAo0jPDr5h3WY0VhpS+b1nge6VLXyNBNtGJoyhlMQcM52oaFH11mN2vCSWLBBY1Jx6nSOIrjlcqunljqhv/cCqpxJs/1pkS17JTPEiJbJg1cd4lj3MA3aaQmhwc2ZZveLo/m6RvzAJKNv+jnGAk8X1cF+F+R2nvoMlXtxmZuGaay+kHj3G8c1ym9etOJYlrR3GXdUgyyWojsEywU2fnL9oLtpKObYZzamfjnu38bqNHzZkN/vNqM/VFQ9f8eUQUNobBF2dUYRLPuhT/uOo2e03BqLkM7Dqbb8WrsDxdny4J7UHIMF4IdTVsuNe1V24DeL2ARokYz5hdSoBrnC5/5/NCAybHKEvwXcsCETdXJkC8AgJxAjS7WL6SAh1xqNGN+IQVMx1Q2y3whx1pQ4/xCDaDk2Hv55PlbAEwq1Tig8IUU6MTBe/oK9b4Bk0q7Fzg+MSAbeW5r2WcEPEH1yod6Pha8b1YK3fiicfWhBdH/CeUsrD0K85yfA/8HyvayNS4AWw4AAAAASUVORK5CYII=;labelBackgroundColor=none;fillColor=#B2C9AB;strokeColor=#788AA3;fontColor=#46495D;" parent="1" vertex="1">
          <mxGeometry x="682.36" y="32.99999999999999" width="115.56" height="60" as="geometry" />
        </mxCell>
        <mxCell id="VP4T0eHwjd-KZM7UqZH9-742" value="" style="shape=image;imageAspect=0;aspect=fixed;verticalLabelPosition=bottom;verticalAlign=top;image=data:image/png,iVBORw0KGgoAAAANSUhEUgAAAcsAAABuCAMAAAB/esicAAAA81BMVEX///8AAABcTuVAQLJVRuTCwsJaTOX9/f/x8P1oXOf19fXX19d3d3e/v78RERFFRUW0tLTf3987O7FSQuRra8EtLa2goKCgme/Y2O3Ly8tUVFTGw/UhISHo6OidnZ3v7+9jY2OVlZVxcXF9fX2pqalMO+MaGhrb29uFhYUlJSU1NTVfX1+Pj49VVVVTQ+Tk4votLS3b2Pk/Pz99c+o2Nq+HfuuPh+xhVObOyva3svLu7Px1auibk+6AdupoW+fPz+quqPFFMuPKxvaOjs6urtvAu/RLS7aNhOy5ueBaWrt4eMagoNVjY76GhssnJ6zCwuR/f8hGRK9iAAANw0lEQVR4nO2daWObuBaGwUtIwQtOaqcQE7zFuxPHk25pppO5nfZOp532/v9fcxGbjpAEGLsGE94PjYuELPRY+9FBuLsVMiC9ubD/LptNkxWudnuG+9Gcb0boz2jY6w372oEyeBS6/PPxNO08CMJYnNl/B6JosMJVUfSoGaK4FISq6GhxqBwegy7PKyfv086E0I1mqbgfzY2uCrKFcVMbrNZXh8rhMejyvHRy/uIu5VxswdKWJoqDA2TryGSxLJVOrl8/pJoLgmVtZtW68RT9f4ra0ZmCWKrLuSiurDZ2POug/9e9eycLVElRHzrtTuXaQFD1vtJriE2F/V35lc2yVKpcX0gp5qIrru2/NcRSd7rCnjUUcj61EDtHI9Rf9iFLxQ0Z2neLoi5ceZGZw6gcy2VZKt2UPqeXi64ormeWGojlZCILhlUJJWEudiVB1mSbZXM5FMUpxdKqlSNjskE3WuFiY4RYrjShg8A/L/ksrW7zQ2rdZlf05faXffRpLo6duuWwk1HtC7JsWDVREOpooDu0h7iIpWGPd5/bwAizRN3mm5TmJ11xPup0OqO1jcHUNM3pOVGb2Te9sY/JYunMS6w5ShWxlAWPZet5s7S6zfOnVHLRRaMaS02EYerXUHlgf5gULGOJZFk6uSldppCLrt1QOiwtYs3+1coduqAK2mexVN1bC5a+AixRQ/vh8Mt6gKWp2HWu7w1DZdQJBlla80sdYTNlYS1urA8dFAGzNO3xbf/gz5GuKJaooT34sh5kacHS1VoDARkuliOrXnYolvZgqbmZWZitFrmnWuQbAmC56dXmuOo+FzFYWjRvng6bCwuM/deeWjRRHzlGLP154shej7VY1tz12NbYCdLte5A0e6XBZWmredhnSF9Mltb85O27Q+airjpL59W6atHoDJeKoNYloaVOh8ORdaWlqlazKY9UBf0zQVG1znLZqaIZjLYcTtFtgqaqaMHDYtlZDmvPbXbJY4m6zd8ysRuWQFecRd3ci8cS1c0s7IYl0BVa9XuO4rMsnVRO/pN29pKoYMlS5THt7CVRR5/KaechFYWzvBAEabeGdsfbC22hSJYP57uYHfy8f7W3rBaKUCTL08r5i6Tzk1cv2+2C5cEUg+VJQrMD+VP7rJxflq2qqo5UtapkpnOOwzKZ2cFf9/flcl5Zqgu84yqOe51MmDDEY2l9rGxndvDHl3a5nFeWqhhUPfqmX6+4LLczO3h4aTWvW7CUt1DiR92bBhTKbExoY7NENP8br9uUPnkk47KcNeIqA7aUDJRi2nmytQXLuGYHf5fvy+XtWI4ZxcNRb5en3YfqrFylnSlbW7GMY3bw6mu7XN6WZZdVPhllyfrdZWN7bTuWttlBWLd5+s+Ps3KuWTKr5TDlTDnalmWotZ707f6+XM43S1ZvmRFrlO1ZovnJEzOtn1+CJHPIcg3yMlCrWl3t1GaZmJIkYmmNaD/Sy3qvvrfPKJS5Y2mCrGSDIFYilgyzg9N/fzBI5o9lC+ckc2c/L/9koYpkiWhCs4Nvbbp53YJl42hYKjgnnXRzwtDn0g2XZhhLK9Q/hOst2CVmudAJrWa4xDYrMmz5C8sihjScswyabEoX55VELL1DuHjBLjHLoMBgMWMeCbLN0oLx+zWbVwRLi2ZJEoTvnOZ1Pyyr+37a3ZR1loJw9+KcRSya5QuL5Ut+rSxYpqH3JwxmBUtKx8BSOH2kq2ZmWUqyaRqmGXv/ix8xEILSNVohSQOWYdNLlE5rmwyGbvXLpjFh7nZbAQYz4Pb3IM1MspTrQ90b584XV0EPE0a9aqvuB0hqs+fc6IRU8XCqruveR7PaGehz/L3zFekIyr27j2Msq57qBDPlauGns9an1SAmjbqrNXXcpCjOd9TBbqgyqunOUlN3SFBrqUM3YFabMIrw3VuSZgZZKj0xoBk5z/PXvt29C3PpfcZTQydERoeIbJ8XxmjA3nUb4sMMBjOCK1yY5pKeKw/I35sP2q3YGnK2ocHHXrlpjRZkQl6rLquBUmCu7b+/gfOTzLE0V8yihHF8lg37hhr+jFmiH7jsOilBtYa2+fA19dINZenXmCk7XIcHXJreVftHWHUql32SqeaFSOggVJNOx45VZxQCcw3q9BHMT7LGUqMfwhHYp8B7UrLvVMapiZjlxD5868eCC3OUmlIMlu53t2bcGGCg5DMaWHny/rMkWCrGkJ1MS+6zA9hnwG8/+A1txlhW2Y9BPgpmqWi44TQIllUFd4yoeYQL5pT02CyVsCg4hz5LXcDEhgTLtcjRmrvayRlmXb69ySLLsNqDl4cwSzCQsYcWCjPETp9bdkidSJZ2Ex7+iwA102c5BtV4RbBMIO5x06frSvZYhhZ4l2YJpQm8amMXMbsb9iRHsZzb3zwPiYHk9ZmMftDN/y4sN9zCPH2Dus1MsRyFP4v3u2Sz7HBZ2l1tPzrpMJarGPnzR6dsluKuLHmNLNLdh+uTTLEkZg3dxXQ5XcDOYx7KcspladtougPZWVNf9AaDhU42AXoUSzuNwLinsV4Hd2VbYSzlXVmGmuhelq4zxBKS6LoXpRH9LGyWfS7LGrppMq6NNAMsvhhLGMe5ZCKB6cvI9GQ7S4A36Cq6JssaQWcaxtLclWX4hpJ08ZgdlmDmNsPNCSjBEZ9lrRX8NXjqsZZMbMFBM4jEXY+FkwgQMgFthzNEYrHsOnfQLOdLtWVojDtm05FiTOANUcvDUnZYgudRmDFdg3aa5cAddNAse2HtElhaAT95Lksw8iEWouDo2wg+iaOGl1KA5cJf5QusSjVHBn1HDL8pp5y9zZgsf+yJpYSvzGFMXH0cb8IUS9/pPsVS59ZJW6A1BdR4LMGEpEGmAyqss2gXZIkhECz7YPmVaPFr4BcIshPHZOXihmd2EM3yrP1PorM8NEsZXyGsRMCQxLlAstyAKkWynEVtpoFiumJeJViC6jflpuMsT5EsoW8FwLJPlFsHB/QIfzfga2OZHz28Zm5Ux2DZ/prwxB7NcsLLNL7uPD3Bkmh3CJbR1skTZmQeyyrnOlFj7XEWwbJJtPKAJZkGYEmu02/L0pqffOTQDGV5f/Z3vORp0SzpQY4rfN1pkwDLBbm1B1g2YzhzAsUEWgIeS9AiBweUOKRn/x+wDPRxcViSqW/PUhA+V262ZHn241NyD+6hLMnfPb7u8KlTt3oCLOP4V0vMMrijymc5C8T81SwfHDNY6eKa0W1yWVod5S7OYEJZDjpXQCEsAxv/W5q2HoBlNxDzV7O0xrGOGewtw1qPx7L99Y/olEMUypKngmWUrPml9y6ad5S1Hpvl/dlf0emGKh2Wk7ra6Xu6AosTOWKJ30XzPmAWzWK5U0fpKgWWVcr4BCvGOPZoWGKnMNIj0dDSLM9+vNzDK4gOztLYhKWcL5al0s2J4xTm9jdAk2LZ/rJbR+nq0CwndGpQeWOJncIAa70Ay907SvqhDsFSjvB9kTuW4HT7U6XCYHnW/ndfTikPzHJJJ0YohyxRt/nkXHzjNLSA5Vn7+/5cbCVi6SyHJWEZlXIuWWKnMLcfEE3M8v7Lz+i0YiuUZV02mXIiJmAZ+TvJJ0u723ROt1++vTnxWN7ff9vrKxdDWYZvoCdg2ccBs5HSMhxR+xvBfBw/S/wuGunppmKzvG//b8/em0NZhm9WJWAJRs1gNR4U03Ys46+tp88SO4V5eG2fpU26s8UXzRKACDeGSMASFy50trcdS7DnFVi4D9nzygJL/C6aO4vlXmaUpGiWoETCtx4TsFwzk96OJYgdOKhTDaaTMZa/+l00NEtgI6KH3pqAZZd5fTuW0Gid/FqwNhi0EckIy1/7LhqaJbSNCt1I3qleQvOT7VgKYBGQMBKBg+Sg7VZmWKJ30ezyioQwMViCSxvKhkjS/E4qAUvdvw6PvoHyi8MS2lSCnwQ0WaFsKrPD0nZaGZ1AEjFYwkIZq4Bmq7pER05lOl5clgCDN58wrqAZehyWxCR11tfQu+QU8gwlZeucJZalk497nVb6YrAMLM6se8PhsNZr+qbEnhFUApagpMRBR1X7tcB5gjgsw48u2XL7hqyyfHE4lhGLpoyzQXFZRuySxGQZcrjaUc+NWLCEFrIseTOBJOuxUS7CY7HknBPBMql4z5Yl59SPJ8Y5r9gsO3RyhOKxjDhL6+emYClEnZJ0Bz+J9qJ3379ECj24jVeDCpZIocdV3SFoIpbM43zYeCsmS8HgH40Gj1GwdLLO75NWu7BkuLVYTPDJ9xjnSVz12ZkbQAv6Z8YS7FwEgGgsc7l5DfuwAiwDhQ1Y0h5UWoTx1niIpjh+CYJ6yT834sjsU3XTSQwLROA/NhkALLq5LNleYQilwtJQfFHu3szqUvf7t/Gm1tGINT150nI1Cfq6wyEsH3La0FmXHa+uFOepZC8P4AvkkJy5ao1qc3fa21j3KCdvQgsrGIIT55YH+VAxsgOUCstomWi7eN9vt5OtNPf0vjDkdXDv+dtVGWVZKIEKlvlRwTI/KljmRwXL/OiU//qSguWR6TTkXTQFyyOTFOIUpmB5bHp4zfPXVLA8Pr3jOIUpWB6jmO+iKVgep6QLRtUsWB6p6HfRFCyPV8F30RQsj1lPpFOYguUx6/QR+lIrWB63oFOYguWxC51uL1jmRJL7LpqCZR7kOoUpWOZCd+gVbgXLnOhz6aZgmRdJF9dvC5Z50cNjwTIz+j9OqF0pvXFbTwAAAABJRU5ErkJggg==;labelBackgroundColor=none;fillColor=#B2C9AB;strokeColor=#788AA3;fontColor=#46495D;" parent="1" vertex="1">
          <mxGeometry x="421.93" y="461" width="208.63" height="50" as="geometry" />
        </mxCell>
        <mxCell id="VP4T0eHwjd-KZM7UqZH9-743" value="" style="shape=image;imageAspect=0;aspect=fixed;verticalLabelPosition=bottom;verticalAlign=top;image=data:image/jpeg,/9j/4AAQSkZJRgABAQAAAQABAAD/2wCEAAkGBxIHBhMIBxMWFRUWGBYaGRgXFx4dIBkgGB4aGh4aGB0fHSghGR0nIBkfITEhKCkrLi4uFx8zODMtNygtLisBCgoKDg0OGhAQFy0lHx43MC03NzctNzArLS8tLy4tLy0uNS8yLzUtLystLS0vLTctLy0tKy0rKzItKy0tLS0tLf/AABEIAOEA4QMBIgACEQEDEQH/xAAbAAEAAwEBAQEAAAAAAAAAAAAABAUGBwMCAf/EAEAQAAIBAwIEAgULAAgHAAAAAAABAgMEBQYREiExQVFxEyJhgZEHFBUjMkJSobHB0TM2Q2Jyc+HwNTd0grLi8f/EABoBAQADAQEBAAAAAAAAAAAAAAADBAUBAgb/xAAuEQEAAgEDAgQEBQUAAAAAAAAAAQIDBBEhEjEFEyJBUWGx0SNxkaHBFBUyM1L/2gAMAwEAAhEDEQA/AO4gAAAAAAAAAAAAAAAAAAAAAAAAAAAAAAAAAAAAAAAAAAAAAAAAAAAAAAAAAAAAAAAAAAAAAAAAAAAAAAAAAAAAAAAAAAAAAB8VZ+jpOb7JsBUqKmt6jS8z8p1o1f6OSfkzP0KcspdNzfn7PYj0vMfKxSr0Zcvg0T+VXtNuUfXPfbhoAR7Gv84tY1H17kghmNp2SRO4ADgAAAAAAAAAAAAAAAAAAAAAAAAAAAQsjlKWNhxXctt+i6t+SPvKXqx9hO6n91cl4vsjmjlVzGQ57ynN/wC/JIt6XTebva07VhDly9HEd2slrakp7KnPbzRZ2WYo5ilKjQltJp+rLk/9Sip6Jbo71aqUvZHkSrHE0tOUHf5GSlJfZ/8AXxbJclNNMfhzPU81nLv6uy4s6EcZbupXfN9f4REyWRVzS9BQT5v/AHsfeFv456yc68VvGTW3h3X5FlRs6dCXFSik/ErTPTaeuPVCSOY9PZ84+j83tI05de/vJIBDM7zukiNgAHAAAAAAAAAAAAAAAAAAAAAAAAAAAGd11v8AQy4enGt/zKfQSj9IzcuvBy+PM1+VslkLCdtLluuT8H2ZzaEquFyO69Wcfz/lM09L+JgtiieVXL6ckWns6oZrXm30XDi68a2+D3PXBamjk66tqsOGezfXk9vAr9eWs5zpVobtc47e1818f2IMGKaZ6xfhJktFsczV+fJ/vvW8PV+PM2JT6XxrxuMUav2pPil7PBFwR6q8Xy2mHrFWa0iJAAV0gAAAAAAAAAAAAAAAAAAAAAAAAAAAAAELJYqlkobXUd32fRr3k08rm4ja0HXrtKMVu2z1WZifT3cmI25UFtpOnZ3cbqlVkuF789vzZoOJVaXpKW0u69vvOZ6j1RUys3Rt24UvBdZe2X8Gg+TvI+ls5WFR84c4+T6/n+pfz6bN5Xm5J5j6K+PLTq6awrrvXVeNV06dOEdm1z3fT4HlS13cRl9ZCm15NfuSdTaVrXOYlcY6CcZ83zS2ffq/f7yoraSvKUeJ0t/KSf7lzHXR2pG+0b/NBac8Wnu1GO1zRryUL2Lpvx6r+Uai3rxuaSq28lKL6NPc4vcW87ap6O4i4vwktiXiMvVxNf0lrLl3i+j937nnN4bS0b4p+ztNVMTteHYQVuCzNPM2npqHKS+1HvF/x7SyMa1ZrPTaOYXomJjeAAHl0AAAAAAAAAAAAAAAAAAAAAAAAOd68zLubz6PoP1Ifa27y/0N1k7r5ljqly/uxb/g41ObqTc5823u35mp4Zgi1pvPt9VTVX2jpj3SsXjp5S8Vtarm+r7JeLOn4HA0sNS+p5za9ab6vy8EQdC41WeIVzJetU57+zsv395pDxrtXbJaaRPEfu9afDFY6p7gAM5ZRchjqWRoOjeRUl+a8n2OZ6lwEsLcbr1qcvsy/Z+06sQsxYRyeOna1e65exroy3pNVbDb5ShzYovHzcqwmTlichG5pdPvLxXdHXravG5t416L3jJJp+ZxWrTdKq6c+qbT93I6H8nl66+LlbT/ALOXLylz/Xc0PE8MTSMseytpbzv0y1YAMRfAAAAAAAAAAAAAAAAAAAAAAAAUWtp8GnKm3fhX5o5YdW1hSdbTtZR7JP4NM5Sb3hf+qfz+zP1f+cfk7RjoKnYU4R6KEV+SJBXaeu1e4WlWj+FJ+a5P9CxMO8TFpiV+s7xAADy6AH5J8MeJgcj1NBQ1BXjH8b/PmXvybS2v60P7i/UzWXufnmUq3C6SnJry35Gp+TWi/TVq/baK+O7/AGPotV6dJtPwj+Gbi5zcfNvAAfOtIAAAAAAAAAAAAAAAAAAAAAAAB8VqSrUZUqnSSafvON5Oyljr+drV6xe3muzOzmX1pgHkqHzy0X1kFzX4l4eaL/h+ojFfpt2lX1GPrrvHeFFobOKxruxuntCb9VvtL+GdFOHtcL2ZqcBrGdhBW98nUguj+8v5Rc1uhm8+Zj7+8IcGoiI6bOjgprXVFpcx3jVUfZLk/wAz1rahtaMd514e57/oZHk5N9umf0XOuvxWhltbZ1WVm7G3f1k1z2+7F9feyBmdcrhdLEx/75fsv5MVWqyr1XVrNtt7ts0tHoLTaL5I2iPZVzaiNtqvg6tpHHfRuFjCa2lL1pe/t8DIaM0+7+5V7cr6uL5b/ea/Y6Sd8S1ETtij27mlx7eqQAGQuAAAAAAAAAAAAAAAAAAAAAAAAAAAzGo9JQycnc2bUKnfwl5+D9pgchi62NqcF5Bx9vZ+TOynzUpqpHgqJNeDW5f0/iGTFHTPMK+TT1vzHEuIH6dbr6ctK73nQh7lt+h509K2cHuqKfm2/wBy9/dcf/Mq/wDSW+LllChK4qKnQi5N9ktzX4DRUpyVfLeqvwLq/wDE+xt7a0p2kOG2hGC/upI9irn8SveNqRt9U2PS1jm3L4pU1RpqnSSSXJJdj7AMxaAAAAAAAAAAAAAAAAACBqCThgriUHs1SqbNf4WBPBR6HqSq6RtalVtt0o7tvdvzZeAAUtxqyxtrl21e6pKSezXEuT8H4FxSqKtTVSk00+aae6fkwPoFblM9a4mShkq9Om30Upc/h1JGPyNHJ0PT4+pGpHxi0/8A4BKBlMPWlL5Qb6lKTcVSt9lu9lvxb7LsaOre0qN1G1qzipz+zFtbvbwXUCQCBlMzb4iClk60Ke/Tie2/kurPrGZahlqTqY2rCol14Xvt5+AE0ESvkqNvKca9WEXCKlNOSXCn0b8EfmMylHLW/wA4xtSNSKe28Xut12AmH4mn0Mlru6qTu7PDUKjoxuaklOpHk9orfhi+zZ519BwtKar6erVaNeLTUpTlKMvFTi+qfsA2QM1rTUDwGnp1Y1KauOFOEX957pPaO+7RZ4jM0cnaqpbVYTajFz4ZJ8O67+HcCyB5WtzC7oKvayU4y6Si90/Jn5G7pzunaxnFzik3Hfmk+ja8APYFflM5bYlpZKtCm30Upc35LqZ7U+VheSx9fF1VKErqCbhLk+T5Pb9GBsQUl3jqdXVVG+nXlGpGnJKjxLaS7y4er23/AELHIZGjjKHpshUjTj4ye3w8QJQK7GZ22y03DHV4VGuqjLn8OpYgAAAAAArtRf8AALj/ACqn/iyxIWZoSusRWt6K3lKnOKXtaaQFdoP+ptp/lRI/yg3k7fCRt7WTjKvVp0eJdYqb2bXt2KrAXeTxGGpY549S9HFR4vTxW+3fbbkWt5Y1tU6dnbZSl82qcSdP11PhcNnGe69vYCzssBbWVgrKjRhwbbNOKe/tk31ZnMFU+gM1fYi33dGnTVenH8HEnvBezfoiVRzmQtqStrywlUqLlx06keCXt584/AlaawlShOvkcy4uvcbcajzjCKWypp99l3Ah6DxdO4w8c1fRjUr3G85zkt2t3yit+iS5bHlm7WOA1PaZDGpQVep6GrCK2U+JPaW34k+5+4+F5pODsKNvK6t026TpySnBN78ElLbdLxR72djc5zNU8pmaao06O7pUeLik5Plxza5LZdEgKPIZ/wCgtc33o6cqtWpSoKlTim+JxUm99uiW+5d6CtoXll9P15+luK325Nf0e39lFfdSJOPxE6WtbrK1oLgnTpRhLlvut+JeK7HlQxVbDapdxjI8Vtcc6sU0vRz/ABxT7PvsBm9P5NXGXusrfWle4n6WcISjBSjCEHsox3fJ92SqlSVTVVrkMPZV6LcuCu5U1GMoS7y2fNp89ywja3WlslWqYyj85tq03U4IySnTlL7WyfKUX16k/G3d9k8pGtWpfNreKe8ZtSnUb6dOUEjopamIp5b5UKzvVxRp0KUuB9JNt7cS77eBuLe2haw4LaEYLrtFJfoUdljKtLXFxkpx+rnRpQi9+ri3utveaE4K/N4ajnLL5pkI7rfdNPZxa6Si+zMxdWeQ0rQd3Y1/ndCC3lSqr11FdeGa6tLxLbU+NuatzSymEl9bR33pyk1GpGXVPwl4Mrb/ACeRzFlLHWti6EppxlUq1IuMU+TcducuQHzrmpRzHyfVMpCCe9KMoNpbx3a6PsX9pZUrTCN2tOEG6XPhilv6vfbqQsjpt1NDy0/aS5qkoRb7tc+fhu1+Z66cuLm7snaZi2dFxgo8XGpKfLZuO3RefiBG+TT+pFr/AIP3ZGsXw/KVdy8Lal+rIun532mLT6FnZyrwg2qVWnOKTi3uuPd+qStNYe7oarucrmFH66nBLge6js/sc+b2XfuB56CsIZK3qahyEVUrVqlTnJb8EYScYwjv0WyIuscJStNQ2GRtEoOVzCM4x5KXdS26cS2239pLtLe70lcVKFlQdzbTnKcFCSU6TlzcdpbJx359e5HyWPv89l7TIV6SpUqVaMvROSctu85tcvZwrcCdkv8AmVaf9PX/AFieOFtI57VV3kcklP5vU9DShLmobJNy28X4lne42pV1tb5KEfq4UasZPfo5NNLb3EW7sbnB5urlMPTVanW2dWjxKMlJcuODfJ7rqgPPXmLp0MRLNWUVTr2+04Titm9mt4vbqmt1saewr/OrGncPlxRjL4pMyWQheatgsfXt5Wtu3F1XUknOai0+CKi3sm11NlTgqdNU4ckkkvcB9AAAAAAAAAAAAAAAAAAAAAAAAAAAAAAAAAAAAAAAAAAAAAAAAAAAAAAAAAAAAAAAAAAAAAAAAAAAAAAAAAAAAAAAAAAAAAAAAAAAAAAAAAAAAAAAAAAAAAAAAAAAAAP/2Q==;labelBackgroundColor=none;fillColor=#B2C9AB;strokeColor=#788AA3;fontColor=#46495D;" parent="1" vertex="1">
          <mxGeometry x="875" y="147.94" width="121.25" height="121.25" as="geometry" />
        </mxCell>
        <mxCell id="VP4T0eHwjd-KZM7UqZH9-752" value="" style="shape=image;imageAspect=0;aspect=fixed;verticalLabelPosition=bottom;verticalAlign=top;strokeColor=#788AA3;align=center;fontFamily=Helvetica;fontSize=12;fontColor=#46495D;fillColor=#B2C9AB;image=data:image/png,iVBORw0KGgoAAAANSUhEUgAAASwAAACoCAMAAABt9SM9AAABKVBMVEX////+/v7/bgD/0QD/0wD/zgD/zQD/1AAYdKeenp7/ywD/1gAVdqsacqT/yQAUd652dnf/aQBGRkYcb59hYmIQe7T/2hEdbZv/995FRUX//vW3t7dAQECNjY3/xQDz8/Pi4uKwzeBra2tPT0/p8fbG2+d/f3+pqan/8r/T09P/dAD/28P/3W3/+PPd3d3/7+PFxcX/99QAcq9HibH/z7Hs7OxZWlr/wZv/qXMsh7v/5NIAbaX/6IiWlpb/3TX/eRYzfqv/hTD/nF3/uY3/k0z/iz3/yqf/7qr/s4T/++pSl8L/2F3X5vD/52n/3sj/0TaWvtp5rtCfwdi51eiGtNP/j0f/gCgfg7dqps3/7rH/q3ZElcT/6JdJhKt9psH/31f/6oH/4kv/3GJYch5hAAATZUlEQVR4nO2dC1fayhbHE3xCq5JIWxEQJAiiAlp5+aTio0q9Wt+29Zzec77/h7gzeSfzJsG2d+V/1jq1QxImv+69s2cys5XkSNySfnUH/iRFsAQUwRJQBEtAESwBRbAEFMESUARLQBEsAUWwBBTBElAES0ARLAFFsAQUwRJQBEtAESwBRbAEZMGSfj/9Rn3Cw/plHcR8cbC+uOwhuF4XVn4zk8lUKVcPC5YsX97dfr2/eR4MfvzY2dn5MRgMnu+/Lt9dBrm114SVz5STUOVN4vXDgFW6XL4Z7LwD+ggE/phza2dwf3uZF72m2ZXXg5WPF5OmKqQvCAwrv3IDOEFEtuZ8vPbm3m7frAxzi68HS3ZYJYsZ0kFcTUSVvv54h5HHtN5C7b3dvi2J38Krwaom3WoRusPVRFDp685HHKt3CCud1ydhXK8GSz5wsyKZVhBYdxyoXLDeTu9tXwrew2vBynsMK5nDf0UAWLdYUiS7grCmZz4tC93Dq8FqeWGVw4Ylymra0K3IPfy/wLrjQIVhJUbrV7nhQbiwSs5T8Alkoaxw5cCamRaIW2HBqtUaumrEU70BfpPQHa4mVLdWbH/6Ch5x8srgI48P6rS2+TPUwLBqjavOefehFzO0dtT/ftxs1NADPalDOeTUYWDZ0op50s3cHNkHHVgzMzN7/EGeCqteyeUyhNvS1Vj/ftSLKUAxS/Avytpj/2zXD6ziJKVJgmENCytvOt7Hr1ZLaYcCa9oNa+aZ2zQosORKqp1KtUkeIzWaJz03Jo8AsNPjXU838g4tUgI/LKySCevJSTPv50ispr2sZj5x56YUWBWASlcVc15tvdsjgbJ5xU7OGu6TNnNGcK+Tu8PVhMiCNXCa7tg+aLCameEO8WRYrZSlMhICa51TBinbvr7vur+tvrm5WQh/isaCdeM0rXDaFdAKxzcYXSHCyrRtWj5LqHUeuVAZvNa6Df+XUrrD1YTIgvXDOfiWK16FBevAhtX2+KHcPOImZeI6xzwcCd3hakJkwXrn3Pczr12FAiuOh9Xo81uVjeuoydsdriZENqyBFazv3vHaVSiwqjasopM91DprwqggLaXP54tBYc0967Tk5SdmMhoqrHzZpNWu2EcDsxoClY6rx2VcQWG9m9u5X767HQigCgWWVEjqtNo5+2G4/jgsKyieyBUYlm84iA9XXlahwJJaB8VUKpmxWXViQVjFlD6bVnBYxLydxGo+HFgAV6Fgo6qdByGl0zrdRTvAJBPEsmxQANVbgl2FBsulGjVcKS5RjupdsbrD1YSIAIuat1us5udDh4VnZcBZezw6fTjp97v9/snJ6dFjL0aCpqwxaAUP8HgnJMarUcDCsIKUTrvHZ+uNGpBxLrwE+Evjqtk5P9GZIbZF98QgsLjmZFC7Ch9WV/GDeuwfX+GmrZwrN3bPukdrPmDKIzXhGhbW08e5j6bm5j7u2Xr7Fv6falehwzpWPKQeTzrIbBVetUazfxRz81JOqYS5mtBj7pZpuqeyChlW0z231/u+zj3U01W7Oj5yJR1KP/xZB4ZWaKhChrW7Zt9o7KQpRsrUVdcZJinHlO5wNYnqFWHVThXrWdZlPfrJahw78zrr5O5wNYkKD2veDetiy9HCIql3bFjfFTM0HwtMTGFUOzNnDClBnhNW6fJyRUC3KKt5h5UOa//N+ze2Dn9+xvJiw2qaz/yAqKBq5lSY0iUdwQOrtPy8Y6y9wmoPI4oP2rBsTU2Nj48f4nAxYdXg/SkxkelOiqwpHpIjsmGV7t3jwCHHgx5WKKwpyOufLbQrLFgwa1BOh49VfjW6CiV/YMGSbxFUlBeE5ImGeSKsqTcGK6BvSFcYsBprwKz4p4V51OwpMaWD/4wBq3SDsSqe8SCNlc+yLFTjY+Of/V1hwPoOUlDyw2s4NR5AtobnT4dVGmBAidvV/DwFlm1XUKu+rtBh7a4pD+FEK7dq4J8An2xRYZV+4FarEYfOpDkZCqwpD6uxsfEFb1fosPrK91Bd0FIn1sP+G9Bgyc8oqxDsygMLonLBGvvpeSbSYTVi56GwQdWMYU2LBmuZaVau2T7O2O7AmvL74BjUhCds0WEdU0YmAbV+gjNZCqzLJ1ZsF84ZdH1wYHnilQFr7MLdFSqsqxDGGiRd4fyQAgtxQv/6dub7QQIrGxbKCtB6cXeFPdwZlXBfQoa1wgpX+HlRlg9+ADJh4ViNTVy7otYvhIUTGdYzK1xhnZBpVzas8SkkYEFWExOu9OFPgVUaRbz6YAguOdJhWaRsVhDWhqsrfwgs9FHIYVc8PuiChfoglCvEjxSW3KrTFlniziA0yT4vRALWUM9BU3B5xP44gZXbD0cKK9NOExdE4kWChXphaHb14S/4HnljHIlXJqzJfacro4QVT4cFy78nAOuD00Kx3Yb1N/yCnyS7mpi8droyUliqGhKsG1eSFV7OYGgZXH/xPcLKojXpBC0KLNffJdfh7r/mCy3akns/LDmf918xX/dcgABL/kExLPE5GQ8rPWRtkewKwJqwZwEpsOJFY1V3q2zv4WqlisY+kkqynJeq5VS7ncoV9DNyzuJ2+HMdbtZJaVoK7ls1mus5cHgxZy1QzSUPpNZBSvOsHCfAKj1RnDCYXRle+BkfrwAqIHt8SIGVMyNOQUunzA8K2bSxQ+kg227F1Ww6nVbVtn67lWw6aZ4NTmjnwbFZVdPUbDZb1i8Z17JaKqVmNdPYitlkq5hWszywLnlyhuFYGavgN/yoXLQSdoSnwTKdqKCpDizVgBVPtw9ULbdZrRRVVYNrTlttTTONppJW43CPQCUJDqlUKhCHfJBWc3U5Xy0ah0tSWU3mslrZuyieAGs5kA/6YX1wC0Ys6WIKb1e6YSXstHRYWKqmGuty82VVTeaNww1/kwE/g4ArZm2m08an+WI6KRuw2lqygCGDafpKMqugdvXB2EH3MuZBZcd2A9bPEGCZa5hbKS0NbaeqqkU9WNc11XRIB5aNCGBTs3UDlppCng4EWPcf8bCGmmeYR1gtHo4R7QrAuraxDAtLtbdXVlQ1JxkGpfMDXpjxw6o6NpZvGzZWxOUVBFhm5kDO24d7Dlq7fvc9rMa8rCYTE9bEw/Cw7DXMddWwpEzagtZu+WFV0lqlamizrR8m2cGLA9YzI7YPx+pvc9PO6hSN1WRi0kq0hodlm0VeU4uwsaWpWks3opzkh5VT9eciVFpTyyasAicseYALV8PPyehWZaGSFqATElFNJhITYcJqm8HnQM1m4IPSimauo8ogi7BlW5YQrDkOF4R8pqc/MfTX9t+3K/a+OYMVkVYiIWZZbbZl6T9UoT8CLyxacdsDq5p3JAxrjmPsPLM3vX2/vHJZYsr9Ld/ej+ESd8euACzrhRgHrFZbbecpsACjsnEWyKsKdTVtRzO3G6r+PZ7ClsVC9elevITRxQYhb3fRmk0IwMqnVCvdBDHchmUFJvCzhSejpjMVPXBZn1iwzODvlqhl0WHNTN8IF0u5WN2YGsPPNLgNKyECCxgMzMglmC2BeGPlWRbAAkjdzbsGNphMph0qIHxVrE80zWdaYrAYuai39sfFwtYqQ98+7/88hO+cMawmvbCELAuYhXGnhTJ8ktlJqbEduF5U03GrlwdwNOgkBJtZO36B3KGdMS6fb4nCkvywUFb2UsfF1f1/3rv0xi/Piwn8TIOX1axIgNf9UEvmklo2l3RggZstZzI5TU0n7US8rplphCFgaWrxIAfpyTkw5E7GM5l4WYsLw3rGo3IehBarrf3D94iwvDhQmazEYEnVNrjTdFaN55PZpB3gKxrMmtJazjVo8aXlGRWeZ0S+uJY2Uy3Dk1NZNSgsC9WeWSNl4T8oKZTWFOmlF96uZmcTHBl82bnxVjxZLEILyRxUnKdhNVcsJg/cJfxg9u4Z71XLyWTZ9Mv6AbhIMWlVishUKujEIQcs1KxmBsZpqxirwtjVG/fiD6YPAl2zYcG47sRk5zPJhgVbvTeWceUN9onun2X/GXyw7qmsTCf8jLcqPy26D3ozLBOWp//4nawpVxLgF352Haavgu++MGQwTbcUH5zee9aPw7NCULlh4VBN+O1qdumL3RUsLKiMiqRGjrCwWtiJBCERYN2hduUa5OiGtcWDyvcsZMd2HRZr8i9fiGt2KsoHS95MqWlCwbWgsC4prGY+wdC3iI/tfifEssIE94Qblr2QBg8rXwaPLo1iJfG0HxacMU2jtUXCgVV6ogyedS/8RjCs9wgrJF7hB4Q2q9lZ+5U0wbKSWa2MK0HjwPK/PpWLWfUgKCviq7ABkdX0DMwbZKxhUdNRMqtJD6olO4EnxawqtRIUCOXVqv+ATI5Gl1MEWNINEdXMHgxZhIiFcUIyLIJdLTkrtMgBPoT7DOUietMyeb5dr0OHexTi7Eoov/LHd8br+5GsVLauLbKm9JKwDnnaLH/1XywqN6+pN+7QzghYsy5aS85GCzqsTnjbUPyqYTdOkWDJ28RFRdvwgJ9csR19DrJ8EMpZC0+HddULe3eFpVofuzOMBEu63TNJIfPtOqx/cIZFykUFfNCdkrJgSQ+xs9D4uNU4VbDb8ImwVgh2ZcBa9MPCJqPs2I5htcS/pnRdiR2HErm92n1U+tgPiLDyOwRWBqxDNisUFYdhLS0JrFaWTxSlG3qYh/vC8PUdiLCkr3vIc5AIi2pXFFSTqF0tubdYMGBB01KOwg1cjS7cgo//jAzr8onwKpUDlkB+5WflNiwmLLkPaClhbjhswrpSa4TCIWRY0v0e/l0q2w054xUuYC15NtGxYMHdmXALeDOkyLWrV8EjViugwCptY1nN+2HhJrB4xjg4H1za93aFBcuoFqIoJ2GkXI1zfYs0uWoIBZa0bJvWjAgs/644il0hrK69u8rZsMyyDkqsHxRX47hnVD1YIwZBGiz5Zg9lhbghLl6REyyPC3pHOZDVgq8rTFh2wRCIK0DsslHRSobQYEn5AabmgM+yuGI7On+FRHccK66l3R2r0ocSe+gMtwm41nTqqygPZORUWFJJp0WBJZiLTlB98MsF0hUOWLJTPEtR1rri1Wh2j4+cQkfUElp0WFLpeQ9ZU0SDxWlX6IAQmBWmCgYPLKn24K7ppPS6TX77qu2en3pqQlEq0TBhSfLtJ//6KwPWG+Fc1AntvpxB98AXxKx4YUmNnrdimNI7YZQa0znVdpv9x5iv2hh1sMmCBZLTm097blYOLErOMOVbjYzxxoSl2dnrjS186R4+WNJuz1eQDhDonfaPm1e4X8Qg1xq7653ugx8Uox4UFyy9Fs22a2nawIZFsqux/QV+bS1ckIocce/dQWjFrF8qcNTvnh+frVtqds67/dMeoUQiqVKICCzYlveujAMxi+KDYy+YSwwjXlhwogC9d4eZT4RDYwxWvLD8ApZFiVevD0vaFaxsjhNzciwILGQS+RfCghN2gUgpa+xa1GFZljdnuN6gyp97knvHD4tRBJfJ6pFjuBQSLC+rcdzwZtJ5+q2yv8DsigAsSQ5QipqvInw4sERepgJao4ElSetDuiLv7HQosDy5KOtNzuyoLEvSa3cPgUs5YdbrJn6xMCz3PAMmA0UHzyODZU3fCaF6POOdOgwLFsfEqDMeHCEs/dejCOBS1s75R5IhwPKsReZhNVJYsCYkLy5F7NfuhABrCgvL64MJ7/zVaGHB+ak+Ou7DoDoVnP8KDMu7xh1vVxurCwur+5P2REOosPKterXur0kg73ZOabzAmOexK1iyOjgsnnhlvglcHQWs/GYlfgD+q2z6l6rVdo/130OHqasPxtfd9SEmVYPD8uSiOFj22OebNX8VHqx63BFmjWlj/fzkaC3mGUM/PnTR327I2R2uJkQmLHpsN6atrp1ZvZ9hw6rG3cKv7ZMbV82zTucYqHPWXB+Sk++LaU2IdFjeFVg2Kqv+jr/ugCS9LIULqxD3qsB73SE1NCyrZB9r2XbC9dr0c7iw5IoPViakF9PE7nA1oTqcwq+CRPL2EVpWPe4XeWl8KBoW1sY4T36lxyxn0vgLbj0DtXdUWBkEFukXtIakYWF988Ci5u32GqJV813OLFrLnNQ7GizEC+Pxymj9cFhYF4eYmn0TWFiT5oLa1cSSYVizuLde+N7RYOURVr8rLGhaHD5oaGNrcXFrH+akSxDWBvvqVlf+T2DJGwgqAizoe4lJ530qvxcy3PDPgSVd/CTloh5YyIqGJYG3GaIBPuAWOWZ3uJqwuviHWn6HsAzSt1yN0TsqrOqfkjpAXWy4SHGwWhJlxYCV9z8OR+yFgWCBlPxQwK5gcL9GfqcHvXf04Y4/Ky0IXVxcwWBJF/vjExPEB6HfBWexS2VovaPDkjY9rELYJMfoDlcTRQsvh8QFWAkPKfyqInrvGLA8YWvEAUsKAZZRMmQMlt4hLVYDoGa/vBBWFdF7x4IltSzjQib/RqAQYMFTFr7t/+tdduX43/XGy6qwTZnXZcKCVWqrm9X6K6AKC5auxQVYnee/Gxsb/3758u+/4M/9l8+rWxcBHlE8sF5RIcIagfCwfif9Rn3ywYrEoQiWgCJYAopgCSiCJaAIloAiWAKKYAkogiWgCJaAIlgCimAJKIIloAiWgCJYAopgCSiCJaAIloAiWAL6H67i/w1FNuHhAAAAAElFTkSuQmCC;labelBackgroundColor=none;" parent="1" vertex="1">
          <mxGeometry x="679.98" y="298.5" width="114.28" height="64" as="geometry" />
        </mxCell>
        <mxCell id="VP4T0eHwjd-KZM7UqZH9-753" value="" style="shape=image;imageAspect=0;aspect=fixed;verticalLabelPosition=bottom;verticalAlign=top;strokeColor=#788AA3;align=center;fontFamily=Helvetica;fontSize=12;fontColor=#46495D;fillColor=#B2C9AB;image=data:image/png,iVBORw0KGgoAAAANSUhEUgAAAR4AAACwCAMAAADudvHOAAABdFBMVEX////u7u7/zUHZRThra2v/z0dPjvXbRDdvb2/YRDhOjfVwcHBoaGhJifRLi/VHiPT08+/n5+eysrLGxsaMjIyWlpaCgoL19fXq7fLoycfTRDjZ2dn86cmmpqayyPbj4+PZpEnlsTj9xi++vr7suj7Kysp+fn6bvPnQMiKFaqn0wD+QkJDS0tJJg+mhoaHPPif8xj9eXl7g6v3HRDdEeuDbPC7BNyr84rHhsa7XOjjytzr8xC71syXT4vylw/lvoveMsvg3gfR1pffJ2vxalfV/X6GtkLTQkIbHNBfLKwu0OS3XWk+5zPXtuLS5Vk+xKhrmmJLEeXT66efgdm7RnZn00M5XhN7/7bCmmYk0bt3dvbpCZb//4ZPJrnUlX9Dn1tX/+OX/1zxkdbD/2XPnwF2Ni53BTEHJbWbnioThamG8poDtqKRVcLzbuWcAVNTt2LTw0JXr3sj803j8zFrJckHgojPZaDfjmjfaVjfkjTfiezfnkSNsUmibAAANmElEQVR4nO2cjZ/TthnH45xCdEh3h504BkKacV7MjeTCHfdSKOMlhY7SdWXdWFsYLbB2dO/ryvqy7Z/fI1lybEnOJdfkXAf9Pi2cHVuRvnn0/B7JOSoVKysrKysrKysrKysrKysrKysrKysrKysrKyurKXXz1qWZdOtm0T0+QV29fer0+vpppnWmNaaNSRpt3LtadK9PSjdPmSRpSWZCa2sS3msSQIGRTh6eFJ+g6J6fiC6dPh6e0Z2ie34SurqWTyfGY6LDomf0OqSftycEz+nc4OGZ+3bRfV+87pqD56i5xfGM7hbd+4XrnpnOFJkZdKro3i9atyYFz5F4RreK7v9idXZ9xuDJ4tkYnS16BAvVnRw8RwVPgudO0SNYpK5uTAqeKfAst7nfNpt6Ph1lboHuFT2GxeluTvCcngHP6P2iR7EwnZpUEU6ik17Orxc9ikXp1oYRz5jOVHhGl4oex2J0FuhofCbu8myMRqaTy2nud9YgUFQ6bxyhd36m6Z1fFD2SRejmxjbAyfLZuHRmsoL7717R9OB3RY9lAbq3vQ2ZJR0/kGcC5yi9d17T6i+LHsv89f7+NuOT0cb7Z46iEzx5mAbD/l9d3fpV0aOZuwDONljTeorO+r0j6QCfD/ZiMimt1Isezbx1aZ/zyQTP6OY0eJ493EuCR2rr10WPZ766yulsr6f5rL09BR3g8+F7e+ngWWHa+k3RI5qr3o7xsPBJCI3OTkPHcdyHe3urig5+W/SI5qmbjwWe7TVeDLPaeOPWVMED4fPocG9vRcaN0NYymftH+/v7aTwc0ZR0gM/LPRY/aTor9SUy948/ebyfDZ/19dHRpp7gefKQ8cngWVkic69Vfz8On5jP2u2p6XBzB2Xx1OvL8tD0abX26WdK+IyuTk/HcZ491Pkc/Knocc1Hz6u12os/PB6HDyTmjTvG4HFBxvD58FDjU18Sc/8c8NS+SIUPyGDqbtd1ApDT7RoAcTzns+Hz56JHNg9dYHRqL/6Yys5rI83U3W4qlTgaoOCagc9SmHtN6LNxdt44pdLpKnlWm2Pc3GFdkZle54sZ0Tz1cTWmU/2E8YkBje4qeLrabY7K59yVeOmVmV5/LWBAc9WZqoyeF3+TeDZUU3cNNwYKn+DLw/Mqn/pB2c39aYKn+qkMH9XUTXQgfhQ9e3dP41N2c3++WUvEzR3wjBRTd3NCQA2f+yJ80nxKbu6fV8d4aq94+Ozvq3GRc686vRyJJ8WnXmpzv5AKHggfn4XP4zfOTEVHm17BtSsqn3q91EuvWjp4QAzPR6qp596t7tMHL88rfOr1Mpv7xwqdF3/5bP+xuoM6wXw0c9/K8gE69RKbu0KHmftjbQd1Ah41SQVfnk/zqXMdnNx45qvnmyqe6t//oS22JjSgXup0k/Bhu2MxntIuLS5oeGovQu3B34QGtGuDR6vjZxZ1gaesydmAp/pqlujR8XyQfqIj8Jw7sQHNV/rkqtU2/6nymdCAZl1PDjPPuzieB6WtDF9publWvTwDHi33vLeXeRrIs0959+QNs6tW/UrhM71zBY8Os3R4XVjWuVVR1hRCN9S1VP7tCp4uf5ycfVxa6ueBpuxT/VoJn9y7ldQTfHio0Vkpb+ZhelrV42fzX1OGj3LZuYc6nYOSfxdhs1pVCWnmnnOrGjwv9zQ69a0THcz89Sbnk0WkmbvxTpXOtUONzsrWtRMeztz1qpqSCJ+dKbKzWvO4YOoqnRKbutSFzaquo81dqwjvp4In2SsssalLfW3Ac0N7kKXcpC0n2HfEVDoHXxYyoPnquSl8vtCWXukA0r+vyp5TqHTKvtEs9NSARzX3mAFDxB4j66+w76eqdA7uFz2y+cgUPtrSa7Je7ml06leKHtec9KaBz6aanSeJLbZUOktg6lKvdDxVdek1Se6hDJ7UI5zym7qU0dyfTh0+bLGl0ll58KzoUc1PRnM3ZWejnr0r8nL68fEymLrUGVP46PuqOcHzwaFGp741aRutdPrKlJ21fVUzHWnqaToHj4oe0Xy1c3xzF4utNJ2lMXUpU3aeytylqWfobD0pejzz1nHNvRsvtjJ0DpbH1KWMSy91X9UQPLGpZ+jUl8nUpUzmblx6ZeiAqWd/m4I9VS/5d8KMyjH3yeKmrtCpb5X9G4VGmcy9evEnE/XvLJ34qfGSmbqUydyrly+a9I3Q+czUih+ql/gLTxNlXHpVd36qKkF08dtVnc4y7KCaZTJ3Ax+J5+J31zU49eX4TQqjjOYOfC4nYnTeErr41vc6nRJ/IeNomfZVs3wuX34r0X+ua3CW09QTmcMHErQJzzjvJHSW1NSlTPuqPH5AKp7/Xtfg1JdnB9Uso7kLPjsZPt9c1+DU63tF93/BMpt7BpDA8+2qBqf+YGlNXerziXgYoJjOd9d1OqX+rtN0yjH3hI/E8/2qRmepTV3qaR4fgSdl6gqdsn/XaTrl4NnZSfMxxE7pv+s0nXLMPZN7mKlrdJbc1KWMS69M8HxjoHPwsuh+n5ReGeJH4olNXWUDsfNyqevljN7cubE51o3NG0I/j/W/LU2HS7oHlqPnFybonKbXwNGtrKysrKysrKysrKysrKysrH4Eant+s9/pzXxfELwGe5+9CGECwtSb8U6P7ur/lOWSyaeEIAr/YYKj2X7Hw8PI/K81VioDnyBEfB6RznA4VXOBvM4bdjqdYSfkvekM2/l3eL4fztDh2dXChA5ZDDghxtFskyUXjxshhCiFPyK4wKV0quYceV0TY8TEwzmijbwbuhTR3dxX56EhzCs5QQJ/xpvz8LQhGL1uELghzNhuxUVoquYclOAZNsIw7CPUgc8PqQD81iD+gZBmezBjn2cSG8jxf2kqB49DcVOGYbNZOQYe1BPtU8eApyXiyaVowdbQJPgHzN0cPC3SyhwfA48gEkHvdDySXhfhGTp7DAWUmN+h0fE747DtwVEvfeQ5lXbbSfBAYTAcv96mNBuQEk/Q8DzRqPwXEeTfPS/sGvAMkSfxuKEX8hztBC0cBk4lcNoIO3EDQS/TcjvswctBJQi9BouvbujNXrWABoiYTKVBmdMjElvGACN2hOP3b8N5jGmH0lDgCVoUQy4lMpA6uJ9tTuDpUJatMetoe1eAiCuDHsvjtOlOiB6f3UxZoseU1SC7g3AXukXpbpBp2d1FQQSeUOnseg1mDrQN9zKTyPPYCQKzEnOr3feF4CzEFGlhsLQBZ8WO4H8+4yFZYcyOCG4IPIxds4WSJNZCynyN8fQx9UMvwoC10kYkfomgLv80Ii/s0xZRck+IqRvj6WM0DD14o6DSigiJIjIIo/iHADI5Slp2UdSirSb76Fq0yW6JfNpnf5MfgmdASSwKGY/w7nmI9cahhL0tY8bmDAZPYkcowdPBpA+fYBuTphyyUqhwPCGKT3dYus3gCSjusJ97lKScC5RyruEuv7nFr5T03Dj3yJZ5IncRJw5HhF/roLjDkMbzy6c89TDxJB6YIJjjGRIsjIPlbU8m7xCTTvwHH2WCh5KIdQM+n3gIOXgSD2hCtzN44HOuiDYlHiLqHvZe6dTc5ffJuSdSc6ZlQBa/6OE4q/ZF2GgxPYXceGxjRXBMZLoOEOnDGWk7CF7z5RRykMADfQwrgz6F5BPGNhupVsPwOIkJ91CUxZN0fJx7SHMIiqvmGE/bJ1AueLwzWTzZlqGN+MhDcVbtoPjz9NGsSyaOI/NRw0waQjjI1IoBCEoAMlApWALPABMfFm20nxjdECvlJcOTAIFB0SyepAsBVXIPF8cDyRe1WpQa8LQTe2fHift5AktHYDkWngbKhE+HZZ3xKQQFzDinsZ9aGh4YKbial7LyNjIY+7hGaadhMTwREmRTeFLxx/C0KeaDC7GOp5tUVazVFB4ZPT8AD4QDGdswmBRhoS0m0IAlGl+kOjbvfZZyBuI1gYeVTgO1zeb4YBDjCahoBm5qMoIxEARn/Tgzszbz8HREemqjGE+6LMy27M4XD2R2EsXDC4aIQJXAIop3xoE83WWWxheqQcR8HpIVYeyCsbHLwruRTFOXjisfKD/i1NzHMbMAw3AdMSRoAN4BiY8jIvl44vnaEpMrTOHJtjxnPBUXswJw2Ok0WZXViDtBiNfzMMFD/u4EwxHwYGPuyKMED6sD/EbDR2RXzilWJYRQETmNiG0icTyMGStoCZ+6YAEOLxYYJng/IOtCB/LwNBA7w65AvA+R64zxyJaZrcwdD6zTZcmDRZkMPSLM5KkvOkuY56P4M2JXw2HE8SAo21ilGF8+TvJdgmJhNg/iDQ0oHeAQYRLEAOGADiOITwhFdp5SL3Gu9B4G39CAInV8BSx5+T5GV+SqpGUntXniUYGHCueaebNPyu1EUJST/rhPDTAJ1JQppddCFLWkmQzgNezx+qLh+3ymQcFCSSezeu5BkUxxi88Cx+ecnSGcikQn28yGwsrQ57W+Bw20BhVfWJ7np7JZhx+wt2i1g/gK14/YYsiV16daduS5htgnC31RB/nHWnYJabvGweSjLsLptzNtOhvOZU5lXj56Z2LyFT+SXe+u+GDh8z7GGm/Z5ewSzDynjZRy24qLmU2zA7mbLnQXs7TymE8RnL8//prL8VpR01uqf9XLysrKysrKysrKysrKysrKysrKyorr//tDCYPPxuObAAAAAElFTkSuQmCC;labelBackgroundColor=none;" parent="1" vertex="1">
          <mxGeometry x="535" y="-151" width="208.75" height="128.47" as="geometry" />
        </mxCell>
        <mxCell id="LHDsr4IzRCI7zc75dxat-9" value="&lt;h4&gt;&lt;font style=&quot;font-size: 15px;&quot;&gt;Cloud Storage&lt;/font&gt;&lt;/h4&gt;" style="text;strokeColor=none;align=center;fillColor=none;html=1;verticalAlign=middle;whiteSpace=wrap;rounded=0;labelBackgroundColor=none;fontColor=#46495D;" parent="1" vertex="1">
          <mxGeometry x="460.09" y="234" width="112.81" height="30" as="geometry" />
        </mxCell>
        <mxCell id="LHDsr4IzRCI7zc75dxat-10" value="&lt;h3&gt;&lt;span style=&quot;font-size: 13px;&quot;&gt;Dataproc Cluster&lt;/span&gt;&lt;/h3&gt;" style="text;strokeColor=none;align=center;fillColor=none;html=1;verticalAlign=middle;whiteSpace=wrap;rounded=0;fontFamily=Helvetica;textShadow=1;fontStyle=0;fontSize=13;labelBackgroundColor=none;fontColor=#46495D;" parent="1" vertex="1">
          <mxGeometry x="405" y="43" width="71.92" height="37" as="geometry" />
        </mxCell>
        <mxCell id="LHDsr4IzRCI7zc75dxat-11" value="&lt;h4&gt;&lt;font style=&quot;font-size: 15px;&quot;&gt;VM&lt;/font&gt;&lt;/h4&gt;" style="text;strokeColor=none;align=center;fillColor=none;html=1;verticalAlign=middle;whiteSpace=wrap;rounded=0;labelBackgroundColor=none;fontColor=#46495D;" parent="1" vertex="1">
          <mxGeometry x="286" y="236.63" width="60" height="30" as="geometry" />
        </mxCell>
        <mxCell id="LHDsr4IzRCI7zc75dxat-12" value="&lt;h4&gt;&lt;font style=&quot;font-size: 15px;&quot;&gt;BigQuery&lt;/font&gt;&lt;/h4&gt;" style="text;strokeColor=none;align=center;fillColor=none;html=1;verticalAlign=middle;whiteSpace=wrap;rounded=0;labelBackgroundColor=none;fontColor=#46495D;" parent="1" vertex="1">
          <mxGeometry x="710.14" y="234" width="60" height="30" as="geometry" />
        </mxCell>
        <mxCell id="LHDsr4IzRCI7zc75dxat-19" value="&lt;font style=&quot;font-size: 14px;&quot;&gt;download&lt;/font&gt;" style="text;strokeColor=none;align=center;fillColor=none;html=1;verticalAlign=middle;whiteSpace=wrap;rounded=0;fontColor=#46495D;" parent="1" vertex="1">
          <mxGeometry x="99" y="175" width="60" height="30" as="geometry" />
        </mxCell>
        <mxCell id="LHDsr4IzRCI7zc75dxat-20" value="" style="shape=image;imageAspect=0;aspect=fixed;verticalLabelPosition=bottom;verticalAlign=top;strokeColor=#788AA3;fontColor=#46495D;fillColor=#B2C9AB;image=data:image/png,iVBORw0KGgoAAAANSUhEUgAAAOEAAADhCAMAAAAJbSJIAAAAilBMVEX///8AAADt7e319fXu7u729vbs7Ozr6+vp6enx8fH6+vooKChBQUG8vLwICAhsbGysrKyNjY01NTWfn5+tra3i4uI7OzuDg4OVlZXf398QEBCmpqYfHx+JiYmAgIAdHR0VFRXCwsJNTU3W1tbPz89ZWVl0dHRJSUm+vr5gYGBbW1srKytwcHBmZmYFyk4+AAASp0lEQVR4nO2dC3+jKBDAVUADJm7aNLtJ6ubR9LWb2+//9Y63L1BUdNvecb/tTcEIUw1/ZhgggBBGKKAp/qJC8L+Gn14IIpq4lFABfEEhQDQB9g+wf+DLCeI5IqpvwgTw9YQoEBKEsVD1ywnwv6JhksTisSZxvPhaQhzQfwnvcxZfVKjwEH4AfE1I/ORjNGga4ktEQvgBAD0J8UHByc+NfgCaReI5akR6Rz+Cs/IdRo0iQXwNEAB9EwnjOemHo0YRnFpDOKeGproU8TUiPaMfJXhGvsM4ahSZiJ/4Yi79WszH90QKELYR368AIcYz0k/URb8V89n4tLIZB0nYVleZ+IUAfVj9rGtz/xQcx3f16FqJXxJGo196DmYz5AGvDXUT3xepUYwN8J0O9FC0GVtt/EngC6e6cwO5UGlot4D/viWu29r/U0BpaPZUNIhfEoahX76l8xnyCLY2tdXGH4b+JJrRkE8SZdy62fj9BNnL1wXWyViKXAXnZiTKL5E0QD+W+BHtiQkTsEEg9iIXAffREAur3dHG74H+xebu7m5H092dQdjZixyEFXEeb0Q4wl0Xm4lfQr+56BCaEs89G4v6pDviOt7grCeg26vf10jHK3PT0oz+OOWj1MsOTEU34gta0OFvp1e/N80fLBqe6CPM01EachV/Eqf2iGfQ7kYYRnxg1DDjb+iB/d+Dit2gx9JngZ28+v1QK57hr8fNZvPIEv3/5uFh/bCmv27Wa5mji/oIXMWMvagdzaCgl29plIz36jfQz7+HG5ZD/5JY9PJKgKOE4imi9oZJJPT06jsLhYYli96HLYvki8qfYtvF0t61g34k8afWUKro3avvjv5CQ5ZT/XOO8gwQduPTRryoP2zojzHuBL0r8c1WP+E9zY4oa14mD9Y65k+QbBQXTehXrXE0/7mWff3zoi/dgdJcQOx6n1YBxlxDSHYt6BfeA2ZMus/jDyP+DtSxM94UlhpC/hQz9qLaEOdqLo8hfqEh9K6hVvHOgH79DN017GW/a+LvgCqCEfRjtkeJ0JBCGm0c0T/NPH7Rl3o223lfGvLeAW0EOOgAzjBfMHAefwwP/QiED9v5uxITqSJFf9Of3Wn4+ie+J+GF3fld5LAeVaho86H4JH5VqBJ/jDe+LtyxO/+WOeopWtHvk/gVgRKf0koR36d/njxzla5E0lq/qINnGdyJX7HxHw639KyJ79NRL76I90Rat+pF3VHbBQ664TDioxV9htmG2p7JkI+3Cfida/QLScDyF/V8Y1b/MOQOIT7ESPAQYTyBe3/JVXzairoY+g+3E3tRh/01h9j4fNRGYbxDamTo1VG/lQbUjuXRr1KwPqTiuzjohoOJn58mIT4VwEV7bF5eWTou6SPM6IuKlOE7PHKvBw/TfBoeUgHVfJUHWleYp+eQfvEHBAaM0HA3kYYQPVe8ynmahlmaHsInMkjDgcSnFdaID5VLCoA+AjaECxIB/kLDPGRavoEepv0Y4iNE6PfwfN4Elcl6cn1cD0l7A81REK2ftN81o//lpzx/I8Q2y+CX+BCDh8MpPbOvRanI4gfvThdsMuRxAPbPK5YuNL2fT2n+1rupw4gPokLDslU6eEbmO7HWRZgXllcaSg3nID7lIXqg/RvVsFI0WMN7u4ZawGGej9GwJ0YTSvxbGu5wpeiuWxdzWuPuSnF4y8/L/k31auOj1fH4g6YjS+7Cj0vQXanwbtzj0bH64yxgLLst3X+5CS6Ig1LDQT7vD2bjT6ChK/ErqK3Y+F7C/MyxfOrOhYbT2fgVL3rVqw/AYAO8jdRFhVSAAiuT2vjM1a1c9zWvPpggIB9WLXo+n/F9yA3diQ9YQKxStenV9y5ULXqt4TTElwEBRa11r35pMKBmS0YL4hlCu4bevfqIfd9lTt2rrxz+LBEvApHfiIL46i2dhvhxBOMu4ieLb0MHNY2Un98urC+dj/gJrsWJG3iIfntTkNqeebiFvnjooiFU4WMtGi6ysXE0Ot2y9BQ+4DmJz8w1O/HFNeA+NAe79UyHlJoR1E65wlIzrMR3iPDvJD6qwddEfPaD7EdGeykNWWjV+bQjlfHGhMRHJgO8TnxZtNjuaVrQNEKIEypsF6ha6YTEB6a4OBvxiYo1GyYgiAEUOU0LOJyM+FA6Y8pFNuKPFNiwyeK6b9OwHf0uxG+67g3EHxnhL+MBDHV1Eh+NIH4SJxYvets8fqIXyvVcXheL7npOGx9aV+h3WcDAXmQXMLK2ZyriR9Y7dmjoHkZQdoK0fGoy4luX1xnn8cfFlyo/v85JXIg/wsZHbCYdVEHfSnyKfO6hXr2v3mmSgs7pElaXC/9Bf2M5zwT1Iz7oS3wUYW3ROxLfEr/vnKrD2hdcqXQC4uO25XVG4ld93r3GqOdbnuYH9q8Y+a0qlU5AfDt8zcSPSE2nPireDmwOrZq39qqhMYiuJRjPSPxjn6dWTSf241x9CbaVSl1sfDP6jcQvGdd9vPqPf74NTK+NnGMyJfFh94IwIw+B7LYIUQJq5BgE4Zkpej1VNCHxqYJdcwmuXv1O9Cf2dfRTEl/tFDA2cg92O/z1csy41Vr3SHwEgImnLsS3uQjab8hTxzW9bPw6+mvER9i0pN3VxjdO+kOHVQDdlXojPlsQ5gCZfl79zni09sVnfokP3HYK6GHju/jeHa7xSvy4keNGfKvQZfV3GOn9vfqok/iJ51h9o9neS/BM/PYV8VDzcFfOaRVwAcbui42CokWzyI9Xn45XxMgDEcSFd/0MVU6rgEj3Ne0CELSo38ffPD7YDB9WT5beQFcYgJtXn3vsn0c3x9+8TZG+Bf7m8dfjmzOBhvfAofGO8/iD4w4nTffIofGOkXtcw/Mt/Tipp4adGOUa3hHuHdIRkX0FMO7jFUHQAzg03m0eHz5yDUvs/ssC3HMN/c3jY6VhX0f9VAKWGnoj/ufW0IX4WkP/4XnDBPWWeovcI1LDXhPokwpboaE/4vO+9CfwHZ43XFiU+lJ/xP+JvM5pjxIWkxD/M2voRvyfwNcSvDFz/UIov6Veie9/Ld4wIfqf+JMSP6oHMladIGIG+1MTn8VuJeYigmnhArJNpdQe/kACq3kxUEsxPBG/1a/uSHxEyOr1npu6t28rQKru/WDx+CRmQfOn3Z6wyDx65we+eOZ4rVxMnlne8fUZfTTibyoTv5tyEUn+qVivL4uAh1VL/8hr5T6BDDcm1n3+/w7x9/WJ7XxbXHMN6+lBLFmTk9vVG4q8Xx+M+JeGDmG4J/KaraFwBViRXPJ2Kd9Q3mr1oYiPje64cxSJa76bShP2LkndX8s3fOVZGfpQxAeq2W93q8taf+e+8WugirU5vl/319Uf9Rsz24Ob+KXYmzdKhF/uFQ0hfmNKospD5Xvvz0PZ6vMzi7kFAfjFf0vDPbsGiZ5jmSAR0SUVzgjzpktn87veelZujRE+2zejtfNw4L763RrKjuQMdM43FpSehT95g+556VWH34vXMLyyefy9fNp6mx0k3oC0ZdbermEz2tAT8eUj3JeK8jA/hAfWSSZQdJgLHX4v/yAP7GLyFMpSeUOxV1R4h4bY+LARbejFxkeJ6i6KomBHH8M/62fCMsR37UcgwwEReD3+3D0+XtmVRLqbV0R8lFzkA26btTcS37j1X5P4xo3sOoivdt29FoH99O1bb7l7k+W8iPJ/WI4eAwCAizl6Rj95QxFcdbLUZSc+Kq0f9Ex8AH6KbyFW89WAnd7BrxE5j7L3DG+bKyagOpGuRjAyRwbIbVobZuRhaXWdb+IT8Yx+B3pGXh2go/a6D4t0enm8Vj5OViLMbyUWIVyKr3R/DZtREX6IT87ya6hz4tqhNrXg09vdophtR0BEMv4RHxf97BtqbZiJ+CiBPYiPKjmdxBftPgYyR0TdlyMASWOK9de2+PhRqMj/3Il4SR962viq53S18WFPHopG/whkjjrUJiqm3dXLV0or/XE24jswrQI9JgV9LWD7OTNeiF/VUC7li6rXoMZjvOj7pFzFJ3ax6En/9Lfx+52k05f45bc0wtaAvcvPZUXFSBXxXdkOfL9ErXwvr36LFl6IL5v1LSjMfeNe94QawqvXItz5h0Q2kWOcNVG4J63tqRAfIbnxbm8bH7oTn4hx5wvRh9rQ0WH1JB29KS5B6Co30gtzFZAPhHX1RJDoSY+oYwfdUl+KvOyr38FDIL48Ga0LK+LDxf16Qcc0CuuLq/4UBkS+rQqMysBYYNGTPnedR1fiITCtrvNNfCDHLM9YrySEgCFwubnSLzw5/l7esvCiBxyJGno/K52lHfwo7Oi0MyawSnzDoYCeiR/JBh9JrEGv1nYzH74YENzh4lNEdyg8J5EGxsuPUNTUw6uP2s/782XjiwZmjOKRWJ0nlX5hFYlB3bk0ES9Lr5HK0fEs7DXdd7RHEz9qDE56e/WhowUsusD8RrgNSi09IHvMlf44P7VCfopIE3ihay9cVYdwGVjbU+MhtPslvHv1lyzqKT/frpQYGAQLqWDOron0Zo9ELlATL2MZ2eSXVjHcEHcNo87G+/Lqb8M0TQ95Gv5+vFwedXP5Fy1Baj3NeXe57i+7k/z1oWSbvxcaLmzO/Arx8/TNaYN9T/P4gFkP5/RQC9D7RyAdgdCU7lGxBK90OM9T4DKPf0rpMyy8/tN79SMW3Xe4Vd3ey0C55Y3e1H15y75i3dRD0H1o74JtnjGvVx9yLaoK/ild01Qxu4LKfbTfHzvNcqdnr179NQuetHsxpEUPKsvX8vfyNaS+ucsxri9CMPxdWjQ8pJ69+ofMTnwE5YkMwXYjXYPh6wpWL47RfvOin+46aoboP/AdZ1+vDu0JEtpvp569+gcb8dXpdbHa6/563RPzfRBF/XW/JewUqmZdfMgTYIfDcWI6iEoPh+Vc8/j1dfQOs9we5vHz83zz+C07BUwksKkA1pfONo/fCejBguXOTMPTjJF7o4/WtQpWmpOZ5/FRXNludw4h4hrOSvyZhf8j93zb+PML08/j645uzoA97SKYI3IP4iEbwA8WoKy0e5bbG/ETuxd9AgGriRA5gz1l5F5Jw/kENQyMtEWPp4rVJ4jIVBbQXIJOaCLip8vl29vybfn0tFzyH09PXBSJFk0liAqp8PL0JDLflpMQX9nmec7OxD2HbCP4cWf/uiVZ14FXWN7ixa+NX6owTc9hnp6YkPrZDbI95Wma8RM8qJCeSgU+iV/2shyE2zDjCs7xDE+0Hqoh/39afoa//BF/AXbVSs/5Ka/8OSdNWZYdcvoHzbOKs3IZ+SN+DNGCnRePtovFIgaIrNj5Fjs2jclydNFEQpIk24ydbwGTclFXm/sQX48qIim8Z+wEj3LOlALGAPITPBCuFXkjfmOR+ypLT4dNOWdKgU0Q8hM8QLPIE/HrAnmgFU5ydp5RoD8hq/D7kI87Er8m9NiBx5Mwx776ZWGOffWrwsT76jeEiXbZnVBDp21tYBEX128HHh9CZQeeXov7nE/SiSsW/WSn5ZZd9xDqYLzaDjxJn/u48rBz1/kpDN/mDjwD7uOsISjnzKIhNuwxNERDJ+KrcEOVM91puZVgPF1pc8899+N7HIgP1Nb6ZeKHjnvuDRIQUj+Ue7+x5x4fCPgivj4QpYX4TkfVOwu038ZdxEeOx/e4EL8ZNTY18cun9kxOfLauoKHh5MRvrCuYkvgwqUbdl4kP9VIOz4KK4tQ5oEz8Xuv624mfFPCtFokd6di+QfvtdrvAUkhAPae/sJX3wZWifYX4Bj//8Mg9SYtakVg+kQkPQ6ZcDRnfs6ya01M4h6c8NBRl0xDfvgWudXfykduyUfXC1HoYpn/ix+qOjSL7/uujVGTHGoeZ1cX1HRh22e1Ev5X4QIAemKLuSXNltg8Vz3nItMtsGh4D41w/akV/C/Flf20EK/obW9T9JsamsoisYcSXGLRvgRuQQO5F6UsI2q4JWjzcg2L1cXGMnW0wEPk7KU8IELddM2wIYSV+DJO/MEcf2U7S6RAGx+qr7miWTXUMsXxDpvgdia9nlWebyo7guMAAbA3aN2qoneedRwh4EyAeHRhg09BA/EHb148V1F9z8H1s6B/k1fcsIM1sD/fpJr5fa91JiLGfSqFpD//6vvqRXEc/nD+D7F2XzfydhCb66/vqw66Ff1P4LHDdZzFQMO7PXyM+iuK/AXrTOvphQhP9A0/S8ReMB4cdtNcD/RUeqlnlyelXIjW2ccwXGI1nBc2nYTJyKGP3vLQRP54T9H38846RBrUbNomPRjB3gAAq8wUehxA9vPpTC91r8cagf9g8/icQNPqHzeN/dKGMfvd5/M8qOM/jfzpBH9o7K/3+ivAf0LDFq/81hI9g408qfATiTyt8WeI7ePW/ivAf0PBflY6YIBNjhTwAAAAASUVORK5CYII=;" parent="1" vertex="1">
          <mxGeometry x="96" y="216" width="57.5" height="57.5" as="geometry" />
        </mxCell>
        <mxCell id="LHDsr4IzRCI7zc75dxat-21" value="&lt;font style=&quot;font-size: 13px;&quot;&gt;ingestion&lt;/font&gt;" style="text;strokeColor=none;align=center;fillColor=none;html=1;verticalAlign=middle;whiteSpace=wrap;rounded=0;fontColor=#46495D;" parent="1" vertex="1">
          <mxGeometry x="391" y="175" width="60" height="30" as="geometry" />
        </mxCell>
        <mxCell id="LHDsr4IzRCI7zc75dxat-50" value="" style="endArrow=classic;startArrow=classic;html=1;rounded=0;strokeColor=#788AA3;fontColor=#46495D;fillColor=#B2C9AB;entryX=0.781;entryY=0.197;entryDx=0;entryDy=0;entryPerimeter=0;" parent="1" target="LHDsr4IzRCI7zc75dxat-29" edge="1">
          <mxGeometry width="50" height="50" relative="1" as="geometry">
            <mxPoint x="561" y="181" as="sourcePoint" />
            <mxPoint x="611" y="131" as="targetPoint" />
          </mxGeometry>
        </mxCell>
        <mxCell id="LHDsr4IzRCI7zc75dxat-55" value="" style="endArrow=classic;startArrow=classic;html=1;rounded=0;strokeColor=#788AA3;fontColor=#46495D;fillColor=#B2C9AB;exitX=0.5;exitY=0;exitDx=0;exitDy=0;" parent="1" source="VP4T0eHwjd-KZM7UqZH9-727" edge="1">
          <mxGeometry width="50" height="50" relative="1" as="geometry">
            <mxPoint x="696" y="140" as="sourcePoint" />
            <mxPoint x="746" y="90" as="targetPoint" />
          </mxGeometry>
        </mxCell>
        <mxCell id="qHZJH0wMnek3G9vu_7Hu-3" value="" style="shape=image;verticalLabelPosition=bottom;labelBackgroundColor=default;verticalAlign=top;aspect=fixed;imageAspect=0;image=data:image/png,iVBORw0KGgoAAAANSUhEUgAAAIIAAABHCAYAAADLJp/6AAAAAXNSR0IArs4c6QAAAARnQU1BAACxjwv8YQUAAAAJcEhZcwAADsMAAA7DAcdvqGQAABoXSURBVHhe7VwJlF1Fmf7uu2/pJfsetiwEhIAJWyBBwLAo6oEJiCI4R3EZjh7FcWFGAWfmsHgMo0dl9OAZ0ZHjEU10ZlgExA0GQehAIGEJARIgHUjSocna6e7X7727zPdV3fu2fq+7E5J0TnhfTvW9t+qvv/7666+//qp7X5yQQAPveCSiawPvcDQMoQGDhiE0YNAwhAYMBg0WVbjLD+DaR3hMo9wEHPvYwNtELgjhlQ1BynGQTux/7Q5qCBuyHuY+CkxKesYo+tw0Vp3uYESqYQp7A5c9lcUftzmYknTQFTo4b1yIX5yQ4chEBPsJgy4NNFiMTrrIuRnkEmlWcBBEZQ28fWx30hiTTqMvkULaTaLgUOHO/tfwkGIEGUMo2WixYdDwBHsdAYdBaUDfvG8xJEPIRwI6NITEMAp7MGK0HIBu5AmGMfIakiFYhHIIDexlWEcbza5hVPBuGEID+wI9ZuytIfjD6G0bhjDMGKnBDzUMIdxhXHcbhjDM2CmPYHYJHIrG0vDOhYJFuzLQGOJYYRjQMIQDAcYRGNegm2FBwxB2F2bS7r2Za5YGg9LWXAuFb28HwN71HoMeMb/e62H+4y4yrsgSRtiVZ4YYNcARc8iu3La+gG1ZB3lzEmUxZ7SLiw9J2T5E1QM+rM56uGV1DvfuyGBsysXrvoNJrJbzCzh5ZIDvzXFxdKuqsO4QwI0uesnjZ6/14duvFdCSGmHa7KTwowoe5o0KcdO7EpgzNmnORq57uRcZE7ABTU4CV8xwMSUTv12pAtXl04Xfv7kXt7zm4pneJCanXeQpbyclnOTtwk1HZfDxaWkjx21re9DhpUx3XaeAc6e0YsGY0vy79Ckfy7vYVhQnLBjbh1+fkDb39RGiIwix+Lle3NnpY3t6FCaz+jZWaS50Y9EkF9fOzuCIZAKOMzQvs/cNgeWXrMjj6S6rZDPiVFyfl8ddp4SYP7bJkMnif7I+i1vbm9DlB0gagWOeasuJ6gMFKslLeFh2WgJHZMg3JquJAr7+QojbO5NoJpsE2zZ8OMDsLOMx3jPf559UWMD/kOelKylfwYXLNhOkXXKSh9NoJP0R4PdvFvD55wpwUi1IGBvXoXuJryQX79FU1CcOKeCWdgeZpAbW5n92Sg7Xz7Y6ED74tI+XutQh29/54wYwBMrf7gX4zJM5vJxtQtplHZOt/qll275OgpO8C5M+HjolgektohvIsAY2uz2CjOCpnUalVjimbg70faeyk2MzhmZT1sf5j2Xx7VfTnLkhhdbs00CpWyWEVGZII0gyu4lU57YlsGKnZ3tbA3l4uLAth19tdkEfwBkoBYinuileUUVmqSxIJHHBkw48zzWGaGZPpQgl0LP94BUfV61OIZlqNfUNMXmW+AbkYeXtZfkPN6SQTtIbxPk1tG1sSXzY9zrdIlQS4DcbfJzzaIhXc800AuWrjuQQFyuP/rmUx5c+/QTmP+Hg5x0q59Sr38BeNAQq6kNPFmgESc5CKYhOnynNGfq304GTRmmGWaHfygV4ridlXrmaLCOhTZs8DztzvrnG/TMDxHufDxcvD/Emy21hDFv3H1ZksbK3FemEuiXGcRKtaKg4s1SV6qbpKUp08d9KqLW7O/K4nrNbK4icaKhpJ+q4qozBVNYfW57hjJVHKhHVhiZAsWpNhPj1hgBXr2X7jvQrGShXoo/LZ4gduV7qq4AdBR89fA7oPWUn8hQtvF6/2sEdGzwEscHWwN4xBPL/yAofL+yyQka6QCtn9L2nAke3yH1KgyJ2MJexwreOCVDQCyzmbQ8KuPKwAu46iQZwlov157rYsjCBP5wSYFamUFS63LbrpvDj9bLuStHv2FjAn3e00rj0JL5M7HgYerjycLroucCtc0PceFyA8yf2YjPjDyNnTD8AtvYV8KU1IcZpSsc2xCp5LneXTcji5tkhfjQnwHeO9fEpttUcynQogpFbKDbUT+EjSCIqSxnTl6ABf7Y7wNfXMEKScjm5RKd/Hxjt4cH5ATa+vwW73udi83kOnjq9gM9M8pGT+RqvxWWC9W5a6+Kx7fqaxMpWjb0SI3zkaS0HCuTkXikoi0a6Hu6e52Kmgi4OiIJCU9/UCNBHyz27rY+ewsG/vSuDSRk7K0QVG42CMuly7mMesgV6FDO4dLNeFqvObUaLmfkhlwTg7Eey2ORr7RUXBqlBgC8c3oOrZ7WiySzmCcvbNoCtjO6+9ZKHpZ1pNBk3ayVT/359YmWM8I+runFvp+aW2geypPnA+AK+NzuJ8anS0EqTUjUjGty/JcSXnk2YdTzmrcavmFQZI1QGiw6DxVxFjJBlP+Y/UkBXyCWGA2pGi17tczN8XDOdy5pZWKk75hn18J9o7tvq4WvPJeAZj8cFhHWnc1L9Zb4+JeiPWnlDBxv/8LM5LFdMwE4aIyCmuFncLyOQhqUH/pEJlBpzqPwEHnlPM26d04wJNJaApWZdi6jiTineXjo3gC+L0CjSE7yZaMbmHs0JS3jfpgI2ehook2HSRyflcd1RI2gE4qeRVgyiexlEAuPSSfxgThpnjcyRrxGSsOZaBDW6g/HNbzo5cKSxpsplbrSPn7w7iTHxZIgqiY2yMnTfiyam8NO5NAtDUuJqw8YS7MmiAtoEgupX/Kz2x210+YGtZTwMZfoQvdA102SojFdIZGopGDa6o5QU5ILxDv75SIanxvLZZw7Ni70pPPhmvqZPKI3NbiPAxc8U8PQ2WphxWUYEHJry8Nt5TTicM7w+VMZBNtaqYdKncJzpvLemZCnUBelmzsgMWsystfmjWW8z4wzTR+LOt9R5O6PUpSbHxw2zrYeysFcZl27NhXVV42fzMnDjRov0EUj04MYc5bSNS6lZDsQ3pjP2MYrXRzpkFE2AcojThyZm6Em5BJVB3qs/tPZTcrmjcjDv9nUcXpNvjVjD+MPjtR1WC2q33hAm8dkjUjgsFbfPyUf5f9HJ5bWqGWEPDSHEpc8WsGJHyqzbVihgWsbD/85L4vAmsi3OsiHCRmG8CZAl/7W78nhos4f/fCWPL9OFF4zw9ALsjBxrNnpVp+Xj6Z2xjXNomD1tJI2FnmBwERIYwWZHJeLh0dCWw8EfuLVLiakxyxDjXR9njOMWlk9Webrr31Cs2O19lUYik1KOkjia7xF0Y54qsSPvY+UO3sRFvJ42qmB42AbUrgr7J3lolxPiUHWwCAfPb9M5SPRYhnKqIUEd+PJLAZ7cSiNQhmHqYGYqh7tPSWKy2SFq+zIESGYyzDLd3+Hh06s9fODxEMc/5ODMZSlcuTqB776ewr2b6C/MqNqOazcSLQzYQkV3Kn4wsK79hJYoEDSQxBYV/eeD5Jc77a57UBWis4dqF1PbNGYwupMviGEVWMG5DAHyCQ1bZXn5U190rYUtOXqKJPtWVuGNbBrnPe3hPMYWg6X3LQde7qoc4o0FLq3cXVRjtw1BQj28pf9sO5JB3wjp08xqWb691gXpdno+bnzNw3EPefjiy4wZOl2szXOtpCtsFi/pQHpUEt/I88h7xNzfLHB/btZWdUWuM8CMJj1XCTgA/OLaXBUjkN+2cp2RbGyaf+wU3iOInVqzRghwrA3sGUr0EGGrxyVTbcXNsXhLwcWruxJRSg6YXulOUsfGfxQxIeGj2+sv/+4bgoFVenn1P2xJ4fbXC+yoTGBwRa3u9nBOm4fb3iC9m2YfaVyKNVjXGhmvHCAFOXY3FiupzH3zxgRDZtZZaL6O1IlOEYN30Y+Mtxa2x1tAfVNIXhl6I8u95Gnqg/TVAWAd1JPACSoHsj7lEEHlVqgnwuBaGghlMrlk9a9rXPx1e6E0YWrKHGJdbwEXL3c429JlTpmzkfSKjMcHOZzGyPyciT6+PM3DLcdok0TFm6DMLg0GpE/QOyS4xbIDowOs0J5P7AYypWixH8zuT5ZpOkVXb3Yeyhya6twqI6veNShGMBRR38qhLWGgra+Jw2ye7LKXf7L0Fj3c0XQFHpNvU2jvdZKrsl2+zS+n68gVMLrGEeceGkKAw1pyuO6IAhnEStSW0MUlKxJY16fekXX1eFApOra4ejX3/mbHECs0RAtd1uVTCnjgZA/Lz27C0hNT+K/ZLr4yI4ULD4lOK4v0Ja/QSgXmpcRogJS/vo9/K3U6ICxvc1fkaxHiCO0Hi26bW9zaYX9d2NimhOrqJqY37p9tx0tfhPHc4hr1qlxFvCwa04vnznLw7EIXz7/Xweqz3FI6015XvTdhyl6Iyp/n8+qzkia9em4zxtdwCdLebuOYkT7+b14aVx6ZxMUTGO4Y/80C8h/jJvD3K0J00WL7gR3qYCT8lx1yd1YYTZhR3G08RSG/fUwSx47WnBEzJYtYF3ZASvnCoQxMDkty7TAELKfin+hWSY3266LEs5I7MEJvrsQrKniyOzC/TJLTqaatBc92sy56o/JaZBObQvRFp5QGJLp3VwaT6UYn00Anp0KTJppnpRCTyu5L1zg/xARea0m+24agLe1v5iajFyghFh/fjJkZRekxc4eD7eKqFwtUmDpRPiAJdPQkWFeVLb3OHO8+2UGzUUWcr6RnSyMupXVchy+MHaKnDG9mj1YbvBEN07ouBqLR9nJAkEThYfmsrRyQEKeajwqZG/WvizuUx7n8CQO2YLodIGVijDjVVnjsCaocAkYlXVwwTmeVJbheEut0tGn0YSuU8zRvWHm1ranc0tiJZG557S9FLbmGCHFNmJO//z4taYIom2dbe5Tby9vW5SmvBIkk4KWP6/kY82CbVoB/ePHdf2w0sVil3UF0flZUWjnePy6iU2+Zsk4S33y+bCbVgc/2frIuB4YsRNxSORxcMtGpmJUt9Hg3vsIlggOsSVGrljJ9Fj7fw9A5oSkoKktZHfrFG19bWslNrV4xjfXLulxIBjjzbzrYkq5oJMUq8Y1dHs0pY7FMB1akN9bA0v4qLGp8j6HDiXGMDX58XB65aEYaMP+m19J4oLNAedSyzR9Hz99jbu1zlj72rg2l3bTNlVXzjoI7joe7OshbLPis9/7xa1+pQjH8hw9L0SClNkPE6g7u3pbET9tpiBHHaij3/rcK+A5lTBn3ppzq7aODI1rTOHdMbKCCgzXdKXzqmYIxarVoYPpubvgvwEtdARY+mkOy+K7Bqtr6khJa42pmIlVCRnP6OBeTM4osREXj4y5C8p7+aB7reuQZYwkMF6sCg9BsE7//Shb3buozdDrGt+jf1ts2BGPhbPzsCc34ytRsSZW8NFEJn37exRt96j4HigM4Y5SLw5PaWViJOcHwjbUZ3NlR4J7XvrTx+VdR8Tquxx9dnsc/reZSZKhLnS72lzej2c5Xp6tW1DYz9abuhldd1i9gZbdvvoHYlA3wKret92zz8MG2XnxpFa2S7duf8dVXxb/MdNDNqDuGxvbxHWmc9Ffy6vDQ3uPhdfJf2xPgvi0ePvZ4gAufSjD20VcRlajeNRS/Ypa7ruHt1O8lc1JmN2U7bfu4I8jgmCeS+NwzPVi9y8eWXIBtOWBbPkB7b4BbOQmOfDTEj97I4BMvZcxrdHNSXQdv4+2jLN8qT/KpVMfAFz6Zx8s9+hijxFbn3X9ekDIvmkT5cyrv+heTVGhck4m3nexM3n72g/FOChk2Zo4WDHQTP4T46ew8zptU+tWwav3dE314Icu84nIUyWCUDHRQpkP42MeBbyJv61nK+er9RQJLqt4+qvJ31/bh1g0ZUlYZjHiwcdOiYUMjjYTu9ztR0la/fTz/aR9rdkYLBsur3z6Kn/r20HYPn31Gm3ShJIOal9vv9e1LPbWoqzYG9lWO1acm1u3HcwJM1dGv+l3iIVQ+7SbUaNxVXbUa3ndaGlPSOXv+EmFjIY2PP+OZgE9z+YqpKZw0MmutPAZvJ6UT3AGkTWrmtEtEL6Usd9FG9DVmjih/dQrbdvNcv23nixA5CaZSa/rqSecG9iCK3kekxfimevsYw8HVRzXjovHyOVW8JYv4il8kn+aWMQLy7UdfA2qzdruC1nwH5411cccJlJ0TpXySxarQS7lm9kfhFtUYGYHoLEErl5MVOySNnk1hBfrn1ECxK+SroYxRurPQBE9RCXecGKKgY0wR6MK8lV1J3LDGulfZ/53zWnDGyC6KJY78Z5iVi2MqmnRsqoeGVUCggx8qorSSx1eLkdyNPHh6CnNaczaQU6qgoYB6VDOSlZerpnVhrNndV/KqhqrcQhf9hcNowGQsG7Yyx/UipmqChXob+m43h4lOlvn1edtzGJWLoaneDzYvgTPHcpt9hot8fhf7Jxm43BrWliI2CnNlfmAUEKCVcdYDp4X45jHNtsBWqsCghtDKmXmc24eZyGEmOzWDgUv8LUbchQrQGma1ZvCz40lPRUxx8iap/rKOPm4pScMkFnecOhJt7wFmpAvY2FMwgxcnfYX87pZu/GlBgN+fkcEJNIBZPvkwvpiV6MMUveY2M7kEeWQtP7+b34zHT/dx8ohetDLi0JIlnopL1tNVtefpZif5ePEsB1+fNRLdsN9SqkckGwCkP6oFa84BPn9INzYVGPsYZdsl0xd/js0x9EptCx387swkNuXNxr2I6hhhQXMOs5ryJs1M5nBKqyZLvWHJ0FMCG94/Ak8sDLGwpQ/b+3aiXfMj6qNSF2V4M9+Ny8b34sn3OFi1MIGj5S4Iu79SqsSgMcL+Q7WAMmsmZel2jxHzjZUr49F96Xr0ww6Nxa7t2pUtPcGv8xVzLcR8yhG36ePQP4VIp+LhD3Dl5DyuK4sR9h4khxD3rVxxzCs+lueXUN2DYUVogjrZrJKEZYeqZv3uQF2WnxQvuwDFbahAEG/Hfv1Uhno/aSiHanDi8RrxoyFZLpanTQl0JU0hE3PYdpOxCfu812DYxW1KDg0r77VGxP1VkUHxpgKqcYCAIZFkZIouEWoLPhSYmoZf/I/35k9UwNRZ8JEv5tlvI8bWej1XBVHIXgylqW/5FxmZq16pl5YGBaoTRhZr7T0Ydvpjk+VO4zedtRjM9A4gQ6iFyLJ3AwoljX83M3MgiG+IJa/78HUqFmlqZ+hhbJ3P7OQBBkepbo73U8u3kGxjruK1/YLIIPSHqUyKmjjADWH38f31Hj6y3KMZqOuDzQPgl5t0RsIbLUl075eMDTBSJ0bVIKtVO/O4oK0P63sH2mUwn4ao0k8uz5lDrvjwbJPvY5r9ZPqAw0FlCDes6cN/vJbEE7uSOPsxH5vNG9DaA6bcS5fnsTUfuWpjNw4+N8N+j1gN/SbgkpVJrMqlcM4yF3/cXM/jWF6/3bQLj3VFn6CbOCfAF6cEGK2Vop4NDSMOoF3D20GIW9/w8O9rHLjmzaaFwqaLJnj46iwH05q1CwjN/2XY1umZH4x0FT/jsnWawj6sXJhBk9bWMmtYsS2PS54hrU5pdHhElekncke25HH9US5OGZM0ZxI6SH9qax9+uD6Bh3cmuVXUoZhhge58gCfOAGa2uPBZVy2WNTHsODgMgT3Q9/9XrHTNPjuGXLJccxj4GJPUhx8Bepm3i/SjOBL2h2GWbivpHpnnYa4+vKwaoTf7fFy+wkd7IWWMQO1ZOMgFAUYkAmQ44r0MIvqC+Ecttly7HvH/6gwPV02Xt9EOplh6wOCg8QjCyz0+Pvmcj86s9mjKszPYbKPKjmXtEMSuPcHZ6uGXJ/g4f7Jeqqusaoj0CZgX4msvBnhoq/25u4X1JCXLqDW0AT5+qIcbZ6XMl1BlgfwBhYPEEAR1Q1/oOvi3tQF+tcFFC7eBOiIofYomWAOIv2uc05LDt2YncOLo6Gf8Jrv/aElLAWf3HRt93LxWM59LTQWZ2leGlg56GwafI50+3HxcChdO0klG9HP+mOwAw0FkCOUIsCHLHcHGPB7fFmJtTxId5lcdIaZyEh+aCXDcuAAfm5jG/PH6IYj9uZ1+bVWa5fUQYju9w70bc3hgWxIvdYXYRd5vsapWhGObQhw1OoELRwe44HD7AyDzJjCqfaDiIDWESuQ4ePp/GAR9I2E/i4uXBkHPQx2q8ikd0OM42Gm+VbBfa43Qq3ZDEvE3XiZub3fa2b94RxhCcezKx3BvYbd47wsB9g7eGYbQwKAYbEFs4B2CfWsIy27m8qgtU1W6aCk2RyRDgvjsbp0qLLv5bcpwkGPfe4RFS9DB1UcrUJza5l+OqftxIGQEC9DWXwbnZiyLaN7xoFL2HdoWhzSEkIZQhY5wySKEi5aUlYjWRlNRWhy29cuP8qL65fQVvCrQFi5m+WJbsQw18ivaWhRWise8cuKOJeGiIo14LQ6XLFlk60Z97oifa/Cr7m9/+fYvhskQIiXFvTdKKVeUHaSK8iKfyAjKNGcVXqXoIiL6OnIUUS1D1fPghlBVburHhkuUP1eXVfAaHgybIQxYRlQofhDawRUZDVRZKh+z2FiqvUq5DEMxhFJxbX4WtqyyfbErmxjDgANr17B5KS6KgrkF10Z5A6AYAE69HPdEebUxH9fE8UHHEixizrULVDeOEdrRTgbzp08xTzGmTxflnqA2PwtbZtsvpamXD9yDfY1hM4TN7RyC+dNhVBUbAAd0flsUzHGK1UNsAAuWRYFoNLhDwpTLcLcxig4sWXQtbl46PHsHTn5rmOXpmvlR6f7HMBnCZjy89B4smj7dPj28FPcstlH94LpYhoevXQR6XYR3X2YNaSCYLWyt3cEUTGdb97S38346NPmXtVcaRbum7h6hNj+LgcqGEVT+vkOdtd2st2X5Zn2sftZaHq+ZFXyq1+N4/a8XI9QJFqvjCrUxwLOVqRTgmT7UjREIU79OQFjdViRj/Z3Pvse+NwQzSFWpX1AUDVZZeaXiqwa7gq/ybPlAirQDV57KBilGP75RvkGljIvb1GZMU8MQiKJBF+tEBUR12XAagdB419CAwYG1a2hg2NAwhAYMGobQgEHDEBowaBhCAwTw/0UyHPoUgzP/AAAAAElFTkSuQmCC;" parent="1" vertex="1">
          <mxGeometry x="-62.91" y="167.69" width="130" height="71" as="geometry" />
        </mxCell>
        <mxCell id="95BSXxh1HP4HeSVz1PFE-1" value="" style="shape=image;imageAspect=0;aspect=fixed;verticalLabelPosition=bottom;verticalAlign=top;image=data:image/png,iVBORw0KGgoAAAANSUhEUgAAAusAAAIHCAYAAAAmfxLEAAAABGdBTUEAALGPC/xhBQAAAAlwSFlzAAAOwgAADsIBFShKgAAAZqZJREFUeF7t3Y13XPd93/n+Kbt7cna7XVWOTljThVlTax7Z5XFYhq6Lqqa11tqJ9sCwpFrtMpKTErF8qCSWq4Q0HaaymQeEKW1FdeIJYzWRH0CmdhTLBL1SA0WEajp6oKYSLVPSmCILgd+d3zyQMxef+f4G4ABz71fve87rSMDc+WA+9w5mvri8uPh7/9P//FMGAAAAoHwY1gEAAICSYlgHAAAASophHQAAACgphnUAAACgpBjWAQAAgJJiWAcAAABKimEdAAAAKCmGdQAAAKCkGNYBAACAkmJYBzbAu7fdZDMzvzIyH9z9Ifl1UC5pP33xi4ft2Weftb/927/t++/XvvY1u+OOO+X9Nkr6+sXnVnquqnVXSz3n19J30PeOWhcAImJYBzZAGlJGuXz5oYfk14GWBr40NKftlobl5OTJk62P12NgTl/vxIkTnb3lL+mxjGpAXq30tYvLqAbhlFNc0tdT63oGfe+odQEgIoZ1YAOoweValnRUVn2diNLR6XPnznWat5d0ZFqtW5SG4DSQ55YLFy7YAw/8hsxYrfQ1i493mGU9fmjISduxuKznsD7sfus16HtHrQsAETGsAxuAI+trkwboNEgXl2GO0KZtroZRb0lHw1XWaqij1cMsacBXeesp6pH19ewFABuNYR3YAIOODq51iX5kPR2dTqepDFpyR2jT/dWQP8xyLQN7OtXmWpaN/iEs6pH19ewFABuNYR3YAOnoYDraN4gaLNPAodZNRnXKRhmloSp3GknaBuq+XWpYW82Shm6VmzPoB4w0hHd/Kbj7S6dqn6fPFTPXU9qOxWU9h/XcflM4sg7grY5hHSgBjgS2pX8xGGbxjtAOOrqdBuGU3x2a0/YdNFynddfyS59qGXS0vHcITV8vHdFPn1Prrpf1fN6pYd3bb4OonLSodbv4fgIQCcM6UAKjOhKYBsx0vzT0df/bHU5HKeV2v8ao8tO/Fgy7eEdo1VH5NAwPGoQHDfdrOdVILd5+TIN8spYfDEaxr6/1edf7tYvbN32+uFTtyLraxmvZV57utkv5uf1XfDxr+d5TnRK1LoByYFgHSuBajwSmgVMNKN2le1R5mEEjPZaU1f1v9xzuNBgMuhxhGpCHzfeo7aCG77Seuv+gwTu3LdUR9rTN1Loe9VhH8UurvUa9r4tLblul3JSfvo5aUt+0ThoAi8ug/eZJj0ctxfV6n7PqsaXburen/3o/jKVtnNYZtKT9PMypaGlb9D6u9N/0+bR90g9palHZ6WP13ErLsI8lbUfv90DSNku91X0BjBfDOlAC6Y28uAwzrKc3fXXfQcswb8jFJeWrwUstaXC4lqN06QeC3kErPVY1rKXHpO6vhpFB6/ZK21Etw+yDXoN+mFltjrIe+1rleY813aYG4eKS1lHPmWH2RdGg515xvdUu6rGsdhunddN9ijldKiutn9uG3e2XMrwBu3fx9vWg56VarvV7GMDoMawDJaCO4uUGvEFDzDCL98ZeXNKb9zADWnfpHTTWIh1x7M1I26G4dI9QFqnHmRtYu9RQ5B19VbxTedLgNuxjKVqvfb2a553XTS1qXwzabx61/9NSXG+1S3FYT0P0oKPX3pI6DRrY1fZVn1NL2n7DDurdRZ0Wk57Dq13S1/Z+CAGwsRjWgRJQR+C8YT29kQ77pj9oGfRP56NY0tBzLW/2vfdVw1px0ErSfdQy7ONQpyWor5Oj9mXvkgahdKTT27+91nNfD/u8K/6Lx1qXtWzPQT+oFNdb7VJ8LN42znVPQ3VvVlfuuTDqJT2ver9+eu54j9374WQt+wrA+mBYB0pADQreMOf9s3Z6A07DQxo+vWFh0NGz3JIea8pOX8N7s1/tUelB1LCeHsMw66WOxfUGGfbr5KRtOuwR2rRe7mj7eu7rYZ933hHe9BjSY0yPQeX1LmvZnmq/pKW4Xvr66TmX/qsG1PQYu7en//b+ADPo6HPapr3bI/3QMmhbqO3mbY/VbLe0pE7paw96rGkpPt8Hbbve7ul50fscSxnpY3WUHsB4MKwDJaAGLfXmn6Q310GLOoKa1h80DKRBobj+oCVlqIEvfU21FAeHtVIDhzrqN+x6gwwabNS6OWk7eQNucUmPUw1H672vh3nepcc1aFGPIR0JV8NyWlazP7qGPbLea5heXWmbqcebBla1fqIGZrW+ehxpUdvBG8LTPi2u3ztg9y6936PqOZ1+SOjN6UpfP+m9P4ByYFgHSkANWIOGi3QkVi1qcOoaNMSpN261DBrUuwYN7N5jGpYaONTwMux6gwwaStW6w0qPadBQVVzSwFgc2Nd7X6v1is+7NOSrxXsMgwb21eyPLrVf06LW7RqmV5faxoMG2l7Ffunj4jrqcaT11PdS+pxa1PPCW7/YUy3pB0mVCaCcGNaBEljNkUB1xNY7Ctg1aBgtDg5qGfRYeqkO6UidWnc11LCmjkwOu94g6v5pUeuuVtr2aehNQ6C3FB/veu/rYZ53ap1hHoMaglezP7rW+8i62sZpP6UMj/phpDgAp/WKi7ftVrv+MD+UeP/Ck+6fvkfTD17qBwgA5cCwDpTAao4Eqjf0YY9gq2Gx+HXU0nv7IOqf8YcZ6nLS4ysuaXsNs15aiusNMuzXuVbp66j93V169+V67+thnndrfQzqyO9atuda9uswvbpUv7Uuw2xfb9ut5nEnw6zvnZZUXNJg7309AOPBsA6UgBoYVjNcpDdktW7RMF+nuKT79N4+iDoCOux9PenxFReVO+i0gGGPGKrTPUbx+AdJP8iopfdrpv8vLqPc12tdZ9jHUFx6uw1LPa/SotbtGqaXt+5al+J2Wc3jSNZr/fS4hh3Y05KG9mIGgPFhWAdK4FqPBHpv6L3WcmQ93af39kFGddpDUXp8xSVtL7WuGkjS41LrFqnTBdZ6Gk/6msMMPOprpg7d29d7Xw/zvLuWx1BcBu03j9r/aVHrdl3r99Nal+KwvprHkazn+umH1vS8VM8LtYziFDYAo8GwDpTAagYite4wb6yDjjwXBwy1DPPLaOpI8Sje8NN2KC5pG6h11WMYtG6vYbeNJ22j1Lf3B4bc6SLpdrV0b1/vfT3M826tjyF9reIyzL4oUjlpUet2DdPLW3fYU41yVvM4kvVevytt09Qxfb94w/sw3/cA1h/DOlACqzlCpk7XSG+4udM9Bl3Vo7ieWnLnng8aqEYx9KTtUFzS9lLrDhp+cwOMGnp6j3APQx3Vz+2X3D5Z7309zPNOZaWuuceg/tVg0H7zqP2fFrVul+o16Lmo+g3zONNzPjfMDrN9e63n+umxDrpN/atYWkb1QwuAa8OwDpTAao6QDRqM0xv3oAFq0BCrhvBBy6CBPQ0BalBNyyiOzKXtUFzS9lLrJupIYXp8abup9QcNKqv9VwF1VD8t6fNqv6Rtox5rb7f13tfDPO/W8hgGbQtvvw0y6OurdbtUr+JpSd3HPih/0PM96X3Op9xB22GY7dtrPdZP/bo/OKXHPOh7Uj0XR/EvYwCuHcM6UAKjOKKWlvSGm44UpjfoNECkwW3Q4JQW9TW8Jb3pp+E2ZaevMegIblrSYyxmr0V6jMXFyx40rKZBJQ0f3WGld4gpLmndQQPYICl30NLdL6lLd590h73iUhyQ1nNfD/u8G/RYex9D6t89V3/QspbnhNr/aVHrdg3aZmm4TY+3u/2HWb+4PQY9v1Ju73rJsNu3a5Trp+eEGsDTkjr0Pr8HdUr7s7sOgPFhWAdKYLVH1LzBcNhl0JHDUS1pgFP5q5W2Q3FJ20ut2zVo+Bp2WeuQkga2a1nSAFk88rme+3rY553aB2tZcvtNSc8jtah1u9IPPMMs3fWH2cbpsQ/6oSUtaeDtfQzJar+vR72+94NTWtT9e5ficxHAeDCsAyWw2iNqyaCjYcMs6YjboCPHo1hGeURODYppe6l1u1I3b7DylkGD7bC8o9vekh7voB9w1mtfr+Z5t9ZevUtuvylq/6dFrds17A84vfe5lm2chuLerK7Vfl+Pev2039e6XOv3AYDRYVgHSmC1R9S61jJgpK81aHhLiksaIoc9UpmWUZ/nqoa11EGt2ysNvmqY8ZZRDShrGWxzP+Csx75e7fNuNb3Uc2aY/Va0liPrSdqeuaV4n7VsY+85s9rtux7rp+232h9cU673vAGwsRjWgRJY7RG1Xuko4jBDaff8YpXRSy3p87nhJw0Eadgp5l2rtB2KS+qr1i1KA8cwp6asx2NPeYPOGe5d0mA06Ih60aj39Vqed7leaVt2v3ZxGXa/9VL7Py1q3SLvsabPq/sM+0Neun/uObPa7bte6w/7vOn+YF68P4DxYlgHgkhvyGmgTkf60gCYpH+eT2++uQGsl1q6t3W/Rjc/SYPZqAfdUUtDe3rcaVv0bpv02IcdlNcq5aev07tf0uNIjydtT3WfnFHt62uR9nnq1dspfa6MR2TTPkjbKz3etH2G2e7eNl7v58x6UZ26+26jnjcAVo9hHUAftaj1AADA+mNYB9BHLWo9AACw/hjWAfRRi1oPAACsP4Z1AH3UotYDAADrj2EdQB+1qPUAAMD6Y1gH0Ectaj0AALD+GNYB9FGLWg8AAKw/hnUAAACgpBjWAQAAgJJiWAcAAABKimEdAAAAKCmGdQAAAKCkGNYBAACAkmJYBwAAAEqKYR0AAAAoKYZ1AAAAoKQY1gEAAICSYlgHAAAASophHQAAACgphnUAAACgpBjWAQAAgJJiWAcAAABKimEdAAAAKCmGdQAAAKCkGNYBAACAkmJYBwAAAEqKYR0AAAAoKYZ1AAAAoKQY1gEAAICSYlgHAAAASophHQAAACgphnUAAACgpBjWAQAAgJJiWAcAAABKamTD+t//B//QNk+8yza/cysAAAAA6V32f/zDG+Q8rYxkWE+D+ju3vtt+5u1b7Kc3vRMAAACAcMM/2tKam6+/YZOcq4tGMqynnxDSoH7d294BAAAAwJGG9ol3/Z9yri4a0bC+tfVF1YMBAAAA0G/LjdvkXF3EsA4AAABsMIZ1AAAAoKQY1gEAAICSYlgHAAAASophHQAAACgphnUAAACgpBjWAQAAgJJiWAcAAABKimEdAAAAKCmGdQAAAKCkGNYBAACAkmJYBwAAAEqKYR0AAAAoKYb1jr931/l1ob4WAAAAMAyG9Q41aI9C79d48vt/1fcxAAAA4GFY71CD9ij0fo0nvz9nO2d+12Zndvd9fuNt7X8cWw7a/NKS1Wt7CusBAABgnBjWO9SgPQq9X+PJ7/8Hm11slGAovq0kjwMAAAAehvUONWiPwtWvsd1+6/Z322JjyRqL/8Vqf3LQ7jx4ypYaP7D5xdfM7JzNzbzfds4ca66z3Py4uSyftbl7d9vEgeZ6yy/Z4n9L6zWXxmmrzey2TdNH7enuunbe5g98VN7/urfttr2109Zof9bePPM39kzP45javMdq9XT/yea66ah7T0bna7WPvl+y+uKznZzXbLG2z3b2bEMAAACMFsN6hxq0R6H3azz5/V9vDsUXrxzRbg3hdsleqN1jmzrrbJq+3x6Y3t78/x229/g5W148Yh/qWy8dFb9oS/O/a5+fb47N9WM21brfjP3Srq3y/v9q5oS9uvys1e5In09fJw3nVx9H++POsL55n829erHztbbb7bVnbfnVE7b33WlYT/P/Mbt981b7wOxpW146Zfu3XO0HAACA0WJY71CD9ij0fg05rC+fttnJrZ110lHth2y+fql17Lq1NIfxO/vW22ZTteebn/8z+6V7v2X15UtWnz9m+1sDurr/1+z+1vrtob79dZxhffqY1e15q01va9/W/fgTv90c1i/a4uxt/Z/vrgcAAICRY1jvUIP2KPR+DTms9x6d7hzVrh+/33ZeGco7w/qV9a5+vjV8b77T9tdONYf25rB98JC4f3tYT0fYP9B5HGsf1hudU2V6Ps+wDgAAsG4Y1jvUoD0KvV+jPaxfsleP72ud9rJiWG+dF945er35HqudveQM6//Z7n/gfpvanD7XOTXm1DfslLj/7a3TYHqP4Kfh/Orj6BvW3dNgGNYBAAA2EsN6hxq0R6H3azz5/a/Z1OxC+xc0m8P353+rMKw3h+Mrt9tr9t8WX7JlZ1j/92mQbq1rzfUes4PT/1Lef6rwC6bLi1+2vT2PY/+WnmHd/QVThnUAAICNxLDeoQbtUej9GvxRJAAAAKwGw3qHGrRHofdrMKwDAABgNRjWNxDDOgAAAFaDYR0AAAAoKYZ1AAAAoKQY1gEAAICSYlgHAAAASophHQAAACipSg7rm6YP2+P1S50/6CPW6f71zp7br9yn9w/9FO8HAAAAlEjlhvVNMyfsfP0xe7C2UPjrn12dP5GfhvIrt6c/x3/BGvOHbGf3r4Q2Ttr+Xd0/vw8AAACUT2VPg5no+xP8PSaP2OLSs/bIn/UM8+lzy+dsbmZHe53in84HAAAASijYsP5h2z//SusI+s29t08fs7o9b7XpbZ319litftHqtT099wUAAADKJdCwvtV2Hjh55fSWvtuHGNbThgAAAABGpTtnXouUo+bqovIP67sO2XzjFZs/8OGVt3NkHQAAABUUZlhvfdy61EtxaQ7pM0c5Zx0AAACVE+fIunu7uBrM8mmbneRqMAAAACivt8iwXrjO+vJZm7uX66wDAACg3Co7rAMAAADRMawDAAAAJcWwDgAAAJQUwzoAAABQUgzrAAAAQEkxrAMAAAAlxbAOAAAAlBTDOgAAAFBSDOsAAABASTGsAwAAACXFsA4AAACUFMM6AAAAUFIM6wAAAEBJMaxn/L27zoel+gIAAKA8GNYz1JAbheoLAACA8mBYz1BDbhSqLwAAAMqjksP6punD9nj9ktnSKdu/pfv53bZ39oQtNpatvbxmi7V9trN4n7Q0TlttZveVPI8acqNQfQEAAFAelRvWN82csPP1x+zB2oIt9Q3r223qwEM22xnCN91xzF5YPmdzMzuaH99ms4sXrDF/qDm8N9ebXbBG46Tt37W1c9/B1JAbheoLAACA8qjsaTATB04VhvWCLQdtfumiLc7eZtdNHrHFK4N797aGzR+YXHm/AjXkRqH6AgAAoDyCDuu7bW/t9NWj59PHrG7PW216W+f2PVarX7R6bU/PfTQ15Eah+gIAAKA8gg3rk7Z/vtE+L325bo9//k7blD4/xLCeNoSihtwoVF8AAACMxtUZde1Sjpqriyp3Gsym6aP2dOOivVC7p/n/HFlXVF8AAACUR9hhvXuUfWn+oE1wzrqk+gIAAKA84gzrm++0Bx7onPbS1HdkXV0NZvm0zU5yNRgAAACUV6Bh/S6bffq19vnqreU1W/zmIZva3L697zrry2dt7l6us676AgAAoDwqO6xvFDXkRqH6AgAAoDwY1jPUkBuF6gsAAIDyYFjPUENuFKovAAAAyoNhPUMNuVGovgAAACgPhvUMNeRGofoCAACgPBjWM9SQG4XqCwAAgPJgWM9QQ24Uqi8AAADKg2E9Qw25Uai+AAAAKA+G9Qw15Eah+gIAAKA8GNYz1JAbheoLAACA8mBYz1BDbhSqLwAAAMqDYT1DDblRqL4AAAAoD4b1DDXkRqH6AgAAoDwY1jPUkBuF6gsAAIDyYFjPUENuFKovAAAAyoNhPUMNuVGovgAAACiPSg7rm6YP2+P1S2ZLp2z/lu7nt9rOmYdsPn2+tbxmi7V9trN4n7Q0TlttZveVPI8acqNQfQEAAFAelRvWN82csPP1x+zB2oIt9Q3r223qwMP2xwfutE1pcD9w0hp2zuZmdjRvu81mFy9YY/5Qc3hvrje7YI3GSdu/a+uV3EHUkBuF6gsAAIDyqOxpMBMHThWG9YItB21+qWHzBybtuskjtrjcHdwLtxXvV6CG3ChUXwAAAJRH2GE9HYF/dflZq92x3a6bPmZ1e95q09s6t++xWv2i1Wt7+u6jqCE3CtUXAAAA5RFzWN98j9XOXuyc9tL8eIhhPW0IRQ25Uai+AAAAGI0rs+k1SDlqri6q0LD+Yds/f96W69+yT3XPSWdYl1RfAAAAjEZ3zrwWKUfN1UUVGdZ326eOn7Xl4i+Pcs66pPoCAACgPAIN692rvCzY7PT2vnXl1WCWT9vsJFeDAQAAQHnFGdZbR8vbl1HvXZbmD9pE8/a+66wvn7W5e7nOuuoLAACA8qjssL5R1JAbheoLAACA8mBYz1BDbhSqLwAAAMqDYT1DDblRqL4AAAAoD4b1DDXkRqH6AgAAoDwY1jPUkBuF6gsAAIDyYFjPUENuFKovAAAAyoNhPUMNuVGovgAAACgPhvUMNeRGofoCAACgPBjWM9SQG4XqCwAAgPJgWM9QQ24Uqi8AAADKg2E9Qw25Uai+AAAAKA+G9Qw15Eah+gIAAKA8GNYz1JAbheoLAACA8mBYz1BDbhSqLwAAAMqDYT1DDblRqL4AAAAoD4b1DDXkRqH6AgAAoDwqOaxvmj5sj9cvmS2dsv1bhrvtyufT0jhttZndffcbRA25Uai+AAAAKI/KDeubZk7Y+fpj9mBtwZaKA/nA226z2cUL1pg/ZDvftt2mZhes0Thp+3dtvXLfQdSQG4XqCwAAgPKo7GkwEwdOrRjWB942ecQWl8/Z3MyO9sdbDtr8UsPmD0z23U9RQ24Uqi8AAADK460xrE8fs7o9b7XpbZ119litftHqtT1X7jOIGnKjUH0BAABQHgzrnfukDaGoITcK1RcAAACj0Z0zr0XKUXN1EcN6QKovAAAARqM7Z16LlKPm6iLOWQ9I9QUAAEB5vDWGdXU1mOXTNjvJ1WAAAABQXm+RYb1wnfXlszZ3L9dZV30BAABQHpUd1jeKGnKjUH0BAABQHgzrGWrIjUL1BQAAQHkwrGeoITcK1RcAAADlwbCeoYbcKFRfAAAAlAfDeoYacqNQfQEAAFAeDOsZasiNQvUFAABAeTCsZ6ghNwrVFwAAAOXBsJ6hhtwoVF8AAACUB8N6hhpyo1B9AQAAUB4M6xlqyI1C9QUAAEB5MKxnqCE3CtUXAAAA5cGwnqGG3ChUXwAAAJQHw3qGGnKjUH0BAABQHgzrGWrIjUL1BQAAQHkwrGeoITcK1RcAAADlwbCeoYbcKFRfAAAAlEclh/VN04ft8fols6VTtn9Lz22b77SD36vbsqXlNVus7bOdxfukpXHaajO7r97PoYbcKFRfAAAAlEflhvVNMyfsfP0xe7C2YEt9w/pW+8DsaVtunLT9u7Y2h/Oj9nTjFZs/8OHmbbfZ7OIFa8wfag7v221qdsEanfWK+UVqyI1C9QUAAEB5VPY0mIkDpwrDensgf/X4PtvU+njS9s83bGn+oE1MHrHF5XM2N7Ojve6Wgza/1GgO8pOd+w6mhtwoVF8AAACUR6BhfY/V6hetXtvT+XibTdWeN6sfs6npY1a35602vW3AuoOpITcK1RcAAADlwbDeyUsbQlFDbhSqLwAAAEajO2dei5Sj5uoihvWAVF8AAACMRnfOvBYpR83VRZyzHpDqCwAAgPIINKyrq8FcsMXZ25q3iavBLJ+22UmuBgMAAIDyCjSsN/VdZ/2S1Y/fr6+zvnzW5u7lOuuqLwAAAMqjssP6RlFDbhSqLwAAAMqDYT1DDblRqL4AAAAoD4b1DDXkRqH6AgAAoDwY1jPUkBuF6utRGRGorgAAAGXAsJ6hhrsoVF+PyohAdQUAACgDhvUMNdxFofp6VEYEqisAAEAZlGBY32o7937O7v/59xU+Xw5quItC9fWojAhUVwAAgDIowbCe/mDRRXvzyQdtW/Pj63fttd9/dM7+4ksP2EffNVFYd+Op4S4K1dejMiJQXQEAAMqgBMP6HqvVL1q9tqf5/x+1Q0++ZpeXGna+cdEaC39gt97Qu+7GU8NdFKqvR2VEoLoCAACUQQmG9Q81B/SG/WT+kE3+0tft5csNWzj8C/bT//KInX7zeatNbyusv7HUcBeF6utRGRGorgAAAGVQgmF9wt758aO28PqbZnbZll76c7t7c/PzWw7a/FLD5g9MFtbfWGq4i0L19aiMCFRXAACAMijBsJ5M2MQHP2n3799nU/90a+tz13/8mL14+ZzNzeworLux1HAXherrURkRqK4AAABlUIph/fr3f9p+/6vHrPafjtj+mTtt55YJu37Xv7Mv/NHnbCodZS+sv5HUcBeF6utRGRGorgAAAGVQgmG9fTWYvmXpdasvnrK5rx60qTFfEUYNd1Govh6VEYHqCgAAUAYlGNZ7rwZzk+2c/rTtnz1mc/PPWL1xhl8wXUeqr0dlRKC6AgAAlEEJhvVdtu/b5+zHx++zd/Z9vhzUcBeF6utRGRGorgAAAGVQgmF9h91d+6G9sfQjW3jksM1M32wTfbePlxruolB9PSojAtXVozIiUF0BAMB4lWBY325Thx61+cW6NZYuW+vyjY26Lc6fsNrsr9utqzlnfdc+qy2+1j7v3V6zxdo+29m5bdP0YXu8fql9U+O01WZ2r7y/oIaaKFRfj8qIQHX1qIwIVFcAADBeJRjWe2y52aZmDtps7URneH9uFees77C9x8/Zcv1b9qldW23THcfsheXzNn/gw83b0i+xXrDG/KHm8N784WB2wRqNk7a/uZ7OukoNNVGovh6VEYHq6lEZEaiuAABgvEoyrL/Pbr3v9+3h2lft6Bc/Y594/03tz09ss4kbiusO0vuLqunj9vC+NH/QJiaP2OJyzzXbV/EHl9RQE4Xq61EZEaiuHpURgeoKAADGqxSnwXzsDxbs9XQGTHdZesVOP/p5++iqLttYHNa32VTtebP6MZuaPmZ1e77nKH1x3faGUNRQE4Xq61EZEaiuHpURgeoKAADWrjtnXouUo+bqonUc1tPgfMle+/b99k+aH1//3inb+9tfsydefqNz2krvup7OaTBnj9nt6Q8p7Tpk841lhnWH6utRGRGorh6VEYHqCgAA1u7qnLp2KUfN1UXrOKx/3I6euWAvP/JJu77n89f/wlfsucu9A/YQen/BdPkVq790qX0azBDD+iBqqIlC9fWojAhUV4/KiEB1BQAA41WCYf1Gu/nw39gbry/YV37lI1cv27iK88q19Eul521x9ja7jnPWJdXXozIiUF09KiMC1RUAAIxXCYb1phtusfu+/nf2xuUla9SfsSfmT9mpxXO2dPkHdvSWG1eun1W84ou4GszyaZud5Gowq6EyIlBdPSojAtUVAACM1/iG9c132v4/+oLdvas7jL/Hbp75PXvkOwt25sW6vXjm+1a775a+U2NyJg6csqX2OTDWWDxhsz3XUu+7zvryWZu7l+usq74elRGB6upRGRGorgAAYLzGN6x/8HfsicYlq9d+ze4//kznjyAdtL38BdMNo/p6VEYEqqtHZUSgugIAgPEa42kwEzax60O2c8v7RvcXTNeBGmqiUH09KiMC1dWjMiJQXQEAwHiV4Jz1Hbbn8Ffbp6xc018wXR9qqIlC9fWojAhUV4/KiEB1BQAA4zXeYf1dv2B37/20zT75qriM4k2289Zb7Kah/4Lp+lBDTRSqr0dlRKC6elRGBKorAAAYr/EO6x/8bfvrc+mXPi/bG/X/anO1I7Z/5k7buWWic3nFnsstjokaaqJQfT0qIwLV1aMyIlBdAQDAeI3/NJgtt9vsU6/bG+fOWr3RvpaLLTXs3H8/b29cvpbrrI+GGmqiUH09KiMC1dWjMiJQXQEAwHiV4Jz199tnvveCnT3+G3ZjOvVl+tO2f/aYzX133v760Qdtil8wXTeqr0dlRKC6elRGBKorAAAYrxIM6+lP/1+yV4/vs009n7/+/37A/uPhf2c7OWd93ai+HpURgerqURkRqK4AAGC8SjCsf9yOnnljxbB+3S0P2ZnLL9ojd72nZ92Np4aaKFRfj8qIQHX1qIwIVFcAADBeJRjWb7SbD/+NvfH6gn3lVz5y9Q8i3fSgPfEm56yvJ9XXozIiUF09KiMC1RUAAIxXCYb1phtusfu+/nf2xuUla9SfsSfmT9mpxXO2ZM9znfV1pPp6VEYEqqtHZUSgugIAgPEqx7De8h67eeb37JHvLNiZF+tWf27B5g59wt4p1904aqiJQvX1qIwIVFePyohAdQUAAONVgmF9q+381UdtsTmgv3hmwb7z6MP2hV+9x3a/d2thvfFQQ00Uqq9HZUSgunpURgSqKwAAGK+S/ILpRXvjuVM2N3/W3mhfad3s8kX78Q//0g588MbC+htLDTVRqL4elRGB6upRGRGorgAAYLxKMKynSzdetHptT/uvll58wr44/Wt2ZP5lWz7/mH1213iPsKuhJgrV16MyIlBdPSojAtUVAACMVwmG9V2279s/sp989zftxjSsL3V+qXTyiC2++QM7egtH1teL6utRGRGorh6VEYHqCgAAxqsUv2D69nuO2De+9Gnb+bbbbHbxgjWe+pod+q1v2JnVXrpx85128Ht1W26dR3PJ6t87bFOb27dtmj5sj9cvtW6xxmmrzexeeX9BDTVRqL4elRGB6upRGRGorgAAYLxKMaz3uv79D9jcixdbM/Xlxvft0NDnrG+1D8yetuXGSdufTp3ZdcjmGxdscfa25m2dHwLmDzV/INhuU7ML1uiuJ7OuUkNNFKqvR2VEoLp6VEYEqisAABivEgzrW23n3s/Z/T//vqufu2GH3Tx1u92666ae9XK22VTtebP6MZtqfdxzLnw6pWb5nM3N7Giv2zrdZrij9mqoiUL19aiMCFRXj8qIQHUFAADjVYJhPR31vmhvPvmgbWt+fP2uvfb7j87ZX3zpAfvouyYK6/o23XHMXlh+zZ6e/WW7PR09X37Wandst+umj1m97w8s9QzynfumDaGooSYK1dejMiJQXT0qIwLVFQAArF13zrwWKUfN1UXrOKz3Ds4ftUNPvmaXlxp2vnHRGgt/YLfe0Ltuzg7be/xc6xQas4udU2Can2dYl1Rfj8qIQHX1qIwIVFcAALB23TnzWqQcNVcXreOw/qHmgN6wn8wfsslf+rq9fLlhC4d/wX76Xx6x02/2Dtg52+322rO23Fiw2elJm/r8Y1ZfPm/zBz481LA+iBpqolB9PSojAtXVozIiUF0BAMB4lWBYn7B3fvyoLbz+ppldtqWX/tzuTldwWcV55W3FAbxzlD2dw84565Lq61EZEaiuHpURgeoKAADGqwTDejJhEx/8pN2/f59N/dP2FVqu//gxe/Fyz4Cd1XvFl+bHm++x2tmLnY/F1WCWT9vsJFeDWQ2VEYHq6lEZEaiuAABgvEoxrF///k/b73/1mNX+0xHbP3On7dwyYdfv+nf2hT/63JXrpA+j71rqtmyNxWO2t3N5xr7bls/a3L1cZ1319aiMCFRXj8qIQHUFAADjVYJhvX01mL5l6XWrL56yua8etKlVXhFm1NRQE4Xq61EZEaiuHpURgeoKAADGqwTDeu+55jfZzulP2/7ZYzY3/4zVG2dW8Qum60MNNVGovh6VEYHq6lEZEaiuAABgvEowrO+yfd8+Zz8+fp+9s+/z5aCGmihUX4/KiEB19aiMCFRXAAAwXiUY1nfY3bUf2htLP7KFRw7bzPTNNtF3+3ipoSYK1dejMiJQXT0qIwLVFQAAjFcJhvXtNnXoUZtfrFtj6bK1Lt/YqNvi/Amrzf663co56+tG9fWojAhUV4/KiEB1BQAA41WCYb3HlpttauagzdZOdIb35zhnfR2pvh6VEYHq6lEZEaiuAABgvEowrG+1nb/6qC2+WLcXzyzYdx592L7wq/fY7vdutesmttnEDb3rbjw11ESh+npURgSqq0dlRKC6AgCA8SrBsP5xO3rmor3x3Cmbmz9rb7Qv3mh2+aL9+Id/aQc+eGNh/Y2lhpooVF+PyohAdfWojAhUVwAAMF4lGNZ7Lt245aDNX3zCvjj9a3Zk/mVbPv+YfbbzR43GRQ01Uai+HpURgerqURkRqK4AAGC8SjCsp0s3/sh+8t3ftBvTsL70fPs89ckjtvjmD+zoLRxZXy+qr0dlRKC6elRGBKorAAAYrxIM6x+0X/6jb9pf/af7bGfrr5lesMZTX7NDv/UNO/Nmw+YPTBbW31hqqIlC9fWojAhUV4/KiEB1BQAA41Wu02CaH1///gds7sWL7dPWG9+3Q5yzvm5UX4/KiEB19aiMCFRXAAAwXiUY1n/W7n7kebvw1O/ZP+9+7oYddvPU7XbrrpsK6248NdREofp6VEYEqqtHZUSgugIAgPEqwbC+w+5+6G/t/PJrdub4H9o+/oLphlF9PSojAtXVozIiUF0BAMB4jXFY3217D/+O7fvIv+IvmI6J6utRGRGorh6VEYHqCgAAxmuMw3r/ueot/AXTDaX6elRGBKqrR2VEoLoCAIDxKtewXrSqv2Ca8pZav5jat9SP2VTz9k3Th+3x+qX25xqnrTazW2SspIaaKFRfj8qIQHX1qIwIVFcAADBeYx7W/4e9Uf+vNlc7Yvtn7rSdW0Z5ykv7MpCvHt9nm7qXhJw/ZDvftt2mZhes0Thp+4f4g0tqqIlC9fWojAhUV4/KiEB1BQAA4zX2Yf3i+ZftxxeX20e8l163+uKpkQzvm+44Zi8sPWu1O7a3/8DS8jmbm9nRvr31x5eGu4a7GmqiUH09KiMC1dWjMiJQXQEAwHiV4zSYG3bY7l+8377w5UftOwvPXh3e3/yhPTy1lnPWd9je4+dsefGIfSB9PH3M6tb5y6it24c4BadDDTVRqL4elRGB6upRGRGorgAAYLzGOKz/G3v4uZ/ogbk7vH/pd23vEKeqrNA6kn7e5g98uP3xEMN62hCKGmqiUH09KiMC1dWjMiJQXQEAwNp158xrkXLUXF20DsN6cqNNbOn9eBS22+21Z2351RO2d3PncwzrkurrURkRqK4elRGB6goAANauO2dei5Sj5uqiEQ/rE/buzz5q//WRz9hO8aCuyeZ9NvfqRXuhdo9t6n6Oc9Yl1dejMiJQXT0qIwLVFQAAjNeYhvVtNlV7vnNZxR129+zX7OiQl1L0bbWdB05aY/m0zU72nj4jrgazYh1NDTVRqL4elRGB6upRGRGorgAAYLzGNKy/w95+31/ZT5ZetJNf+SP7+pnGUL/smdc7lPff1ned9eWzNncv11lXfT0qIwLV1aMyIlBdAQDAeI1tWL/ubT9rH/ud79qLb7Sv/HL54iv2w4XH7C++fNju+8WP2k1D/zGk9aWGmihUX4/KiEB19aiMCFRXAAAwXmMc1jtuuMX2z79ijWdO9l22sTW8P/V12//BG/vX32BqqIlC9fWojAhUV4/KiEB1BQAA4zX+Yb1p0/R++93uOeu911x/6nH7j2u6zvroqKEmCtXXozIiUF09KiMC1RUAAIxXKYb16972Prv1vt+3h2tftaNf/Ix94v03iXXGQw01Uai+HpURgerqURkRqK4AAGC8SjCsb7eP/cGCvX65dfZLe1l6xU4/+nn76LsmCutuPDXURKH6elRGBKqrR2VEoLoCAIDxKsGwnv5A0SV77dv32z9pfnz9e6ds729/zZ54+Q15VZeNpoaaKFRfj8qIQHX1qIwIVFcAADBeJRjWP25Hz1ywlx/5pF3f8/nrf+Er9tzl3r86Oh5qqIlC9fWojAhUV4/KiEB1BQAA41WCYf1Gu/nw39gbry/YV37lIzbR/fwq/sroelJDTRSqr0dlRKC6elRGBKorAAAYr3L8gukNt9h9X/87e+PykjXqz9gT86fs1OI5W7r8Azt6C5duXC+qr0dlRKC6elRGBKorAAAYr3IM6y3vsZtnfs8e+c6CnXmxbi+e+b7V7rul79SYcVBDTRSqr0dlRKC6elRGBKorAAAYrxIN6+WkhpooVF+PyohAdfWojAhUVwAAMF4M6xlqqIlC9fWojAhUV4/KiEB1BQAA41WCYf2DdvdnP223vndr4fPloIaaKFRfj8qIQHX1qIwIVFcAADBeJRjW03XWL1q9tqfw+XJQQ00Uqq9HZUSgunpURgSqKwAAGK8SDOs/a3c/8rxdeOr37J/3fb4c1FATherrURkRqK4elRGB6goAAMarBMP6Drv7ob+188uv2Znjf2j7pm++eq31ElBDTRSqr0dlRKC6elRGBKorAAAYrxIM69tt6tCjNr9Yt8bSZTO7bEuNui3On7Da7K/bre+aKKzv2zR9yL65+FozJy1X/6jSpunD9nj9UufTp602s3vFfRU11ESh+npURgSqq0dlRKC6AgCA8SrBsN5jy802NXPQZmsnOsP7c1ab3qbXVXYdsvnGeXt69i7b1HfbbTa7eMEa84dsZ/rhYHbBGo2Ttn9X/pda1VATherrURkRqK4elRGB6goAAMarPMP6lkm79SOT/afATGyziRt6PnZttQ/MnralxSP2geJtk0dscfmczc3saH+85aDNL1096u5RQ00Uqq9HZUSgunpURgSqKwAAGK8SDOtbbeevfsOee2O5dYbK5YvP2Jemttn1W7bZO/rWy5m0/fMNW36pbi+1o2y5/i37VDp6Pn3M6vZ8z1H64a9Ao4aaKFRfj8qIQHX1qIwIVFcAADBeJRjW0+B8yRpPfc0OfemUnW8N1TfZjZ/9rr363//c7nlH77qelLNk1j29ZfM9Vjt70V49vs82DTGspw2hqKEmCtXXozIiUF09KiMC1RUAAKzd1Tl17VKOmquL1nFY/7gdPfOT9uDcO1Tf9KA98WbPqStZxQF8m03VnjerH7MphnVJ9fWojAhUV4/KiEB1BQAAa9edM69FylFzddE6Duvb7NbZv7U3Gn9j//HQXGFYH+688rb2aTBL8wc75733DOucsy6pvh6VEYHq6lEZEaiuAABgvEowrDfdcIvte+QZa6QrN9oFqz/1hD1x5se2dPkHdvSWG1euL221nQdOWmP5Wavdsd2u23W/zdU7p8Goq8Esn7bZSa4GsxoqIwLV1aMyIlBdAQDAeJVjWG+50Xb+m/9gtW8v2JkX6/bime9b7b5b7Hq57iC7bW/ttDXav15qjcVjtrdzeca+66wvn7W5e7nOuurrURkRqK4elRGB6goAAMarHMP6u6bt/oe/ZX89/1f29a/M2v137S7NXzFVQ00Uqq9HZUSgunpURgSqKwAAGK8SDOs322e/+2O7vNSwc/WX7PzFdN3F/2E/XqjZzPuHPQVm/aihJgrV16MyIlBdPSojAtUVAACMVwmG9faVWV5+5JPtU15u2Gm37vtDO37mNXvz7DG7fXPvuhtPDTVRqL4elRGB6upRGRGorgAAYLzGNqxvmv6cPTR70PZOT9v93/5R5xdBex5c8QouY6KGmihUX4/KiEB19aiMCFRXAAAwXmMb1ic++1fWWEqXf7lsSxcv2tLSj2zhkcM2M31z+3z11rD+in37vl0rHvRGUkNNFKqvR2VEoLp6VEYEqisAABiv8Z4Gs+Vmm5o5aLO1Eza/WO8M781l6aK90fz/yy8es4/d0P+AN5oaaqJQfT0qIwLV1aMyIlBdAQDAeJXgnPWmG/65Te37Ddv3y79o/++v9A7vz/X81dHxUENNFKqvR2VEoLp6VEYEqisAABivEgzrk3b/d8+3j6g3l8sXX7EfLjxmf/Hlw3bfL3/M/tnP9K678dRQE4Xq61EZEaiuHpURgeoKAADGqwTDeroazCX78bd/2z5+z/32hS8/at9ZeNZ+3LqE4/McWV9Hqq9HZUSgunpURgSqKwAAGK9SHFnfP//q1Us3dt2ww3bv+bf24XdN9Ky78dRQE4Xq61EZEaiuHpURgeoKAADGqxTnrF//C1+x5y69aH/9B5+xqV03rbh9nNRQE4Xq61EZEaiuHpURgeoKAADGqwTDeucvmLZPWW8uS9aoP2Pzx4/Z7P5ftJ1cDWbdqL4elRGB6upRGRGorgAAYLxKcs76RTt3/HM29fFftvu++LD9xXcW7Ic/vtgc4DlnfT2pvh6VEYHq6lEZEaiuAABgvEowrO+yfeovmL5tq9108267iSPr60b19aiMCFRXj8qIQHUFAADjVYJhfYfdXfuhvbH0kj3xp1+4+hdMS0INNVGovh6VEYHq6lEZEaiuAABgvEowrG+3qUOP9vwF08u21Kjb4vwJq83+ut3K1WDWjerrURkRqK4elRGB6goAAMarBMN6jy0329TM2v+C6cSBU7bU/i3VznL1nPdN04ft8fql9qcbp602s3vF/RU11ESh+npURgSqq0dlRKC6AgCA8SrBsP4v7P7jz3SOpB+0vb2nwUxss4lVnLPeGtaXTtn+LcXbbrPZxQvWmD9kO9OR/NkFazRO2v5dWwvrraSGmihUX4/KiEB19aiMCFRXAAAwXoFOg9lmU7XnzerHbKp42+QRW1w+Z3MzO9ofbzlo80sNmz8w2b+eoIaaKFRfj8qIQHX1qIwIVFcAADBe5TwN5j9/3158483m0P63dnRq2NNgOsP6leWS1b932KY2N2+bPmb1vstAti8XWa/t6bm/poaaKFRfj8qIQHX1qIwIVFcAADBe5RrWr5iwd37y6/byT75r9797bb9gumn6qD3duGgv1O5p/n9+WE8bQlFDTRSqr0dlRKC6elRGBKorAABYu+6ceS1Sjpqri9b3nPWvP9n+i6UHPm1Tu25qf751qsor9u37dhXWH9ak7Z9v2NL8QZtgWJdUX4/KiEB19aiMCFRXAACwdlfn0rVLOWquLlrHYX2H3f2l79li/fXOlVyWrPHy39lTT9ftjcs955mvWs+wzjnrkurrURkRqK4elRGB6goAAMarBMN614RN7LrT9h44YrXjj9sTTy3Yya9+xn5u6KvB7La9v7e/fY568+P2aTAXbHH2tubH4mowy6dtdpKrwayGyohAdfWojAhUVwAAMF5jHNb3WO25H1t98ZTN1Y7Y/pk7beeWa/kDSLvtU8fP2nLr6HxzWa7b/B9+ujmct2/vu8768lmbu5frrKu+HpURgerqURkRqK4AAGC8xjisv88++tkv2198Z8F++OOLli7aaEuvj3B4Hw011ESh+npURgSqq0dlRKC6AgCA8SrJaTBb7aYP3WP3ffHh1vB+5uVG+/z1N39oDw996cb1oYaaKFRfj8qIQHX1qIwIVFcAADBe5Tln/YadduvMg/bw8SftudfTqJ7+ONJqrrO+PtRQE4Xq61EZEaiuHpURgeoKAADGa8zD+k32c3f9hs0+8rgtnnujdSrM5Ysv2+J3H7HD+z5mNw39y6XrRw01Uai+HpURgerqURkRqK4AAGC8xjis32VfOnOhZ0D/c5v97B77uRKcp95LDTVRqL4elRGB6upRGRGorgAAYLxKMKyn011etjNPfa9Uv1japYaaKFRfj8qIQHX1qIwIVFcAADBeYz4Npv8XS1dcFearB23qXeMd3NVQE4Xq61EZEaiuHpURgeqao3KqTvXMUTlVp3oCADZeeX7BtKU4vD9jfzLNL5iuF9XXozIiUF09KiMC1TVH5VSd6pmjcqpO9QQAbLySDevlo97EolB9PSojAtXVozIiUF1zVE7VqZ45KqfqVM8clROB6goAG4VhPUO9cEeh+npURgSqq0dlRKC65qicqlM9c1RO1ameOSonAtUVADYKw3qGeuGOQvX1qIwIVFePyohAdc1ROVWneuaonKpTPXNUTgSqKwBsFIb1DPXCHYXq61EZEaiuHpURgeqao3KqTvXMUTlVp3rmqJwIVFcA2CgM6xnqhTsK1dejMiJQXT0qIwLVNUflVJ3qmaNyqk71zFE5EaiuALBRGNYz1At3FKqvR2VEoLp6VEYEqmuOyqk61TNH5VSd6pmjciJQXQFgozCsZ6gX7ihUX4/KiEB19aiMCFTXHJVTdapnjsqpOtUzR+VEoLoCwEZhWM9QL9xRqL4elRGB6upRGRGorjkqp+pUzxyVU3WqZ47KiUB1BYCNEnNY33yP1c5eMls6Zfu3tD+3afqwPV5vfi4tjdNWm9m98n6CeuGOQvX1qIwIVFePyohAdc1ROVWneuaonKpTPXNUTgSqKwBslIDD+na7vfasLaeh/MqwfpvNLl6wxvwh29m8fWp2wRqNk7Z/19bCfVdSL9xRqL4elRGB6upRGRGorjkqp+pUzxyVU3WqZ47KiUB1BYCNEm9Ynzxii0vP2iN/tmBL3WE9fW75nM3N7Givs+WgzS81bP7A5Mr7F6gX7ihUX4/KiEB19aiMCFTXHJVTdapnjsqpOtUzR+VEoLp6VEYEqiuA9RdsWP+w7Z9/pXUE/eYDp64O69PHrG7PW216W2e9PVarX7R6bU/PfTX1ghWF6utRGRGorh6VEYHqmqNyqk71zFE5Vad65qicCFRXj8qIQHUFsP4CDetbbeeBk1dOb5lY5bCeNoSiXrCiUH09KiMC1dWjMiJQXXNUTtWpnjkqp+pUzxyVE4Hq6lEZEaiuAHxX59S1Szlqri4q/7C+65DNN16x+QMfbn3MsJ6n+npURgSqq0dlRKC65qicqlM9c1RO1ameOSonAtXVozIiUF0B+Lpz5rVIOWquLir9sN4azluXeikuzSF95ijnrAuqr0dlRKC6elRGBKprjsqpOtUzR+VUneqZo3IiUF09KiMC1RXA+gszrBf1HVlXV4NZPm2zk1wNZjVURgSqq0dlRKC65qicqlM9c1RO1ameOSonAtXVozIiUF0BrL+3yLBeuM768lmbu5frrKu+HpURgerqURkRqK45KqfqVM8clVN1qmeOyolAdfWojAhUVwDrL+ywPirqBSsK1dejMiJQXT0qIwLVNUflVJ3qmaNyqk71zFE5EaiuHpURgeoKYP0xrGeoF6woVF+PyohAdfWojAhU1xyVU3WqZ47KqTrVM0flRKC6elRGBKprjsqJQHX1qIwIVFeMHsN6hnpyRqH6elRGBKqrR2VEoLrmqJyqUz1zVE7VqZ45KicC1dWjMiJQXXNUTgSqq0dlRKC6YvQY1jPUkzMK1dejMiJQXT0qIwLVNUflVJ3qmaNyqk71zFE5EaiuHpURgeqao3IiUF09KiMC1RWjx7CeoZ6cUai+HpURgerqURkRqK45KqfqVM8clVN1qmeOyolAdfWojAhU1xyVE4Hq6lEZEaiuHpURgeo6SgzrGWqnRKH6elRGBKqrR2VEoLrmqJyqUz1zVE7VqZ45KicC1dWjMiJQXXNUTgSqq0dlRKC6elRGBKrrKDGsZ6idEoXq61EZEaiuHpURgeqao3KqTvXMUTlVp3rmqJwIVFePyohAdc1RORGorh6VEYHq6lEZEaiuo8SwnqF2ShSqr0dlRKC6elRGBKprjsqpOtUzR+VUneqZo3IiUF09KiMC1TVH5USgunpURgSqq0dlRKC6jhLDeobaKVGovh6VEYHq6lEZEaiuOSqn6lTPHJVTdapnjsqJQHX1qIwIVNcclROB6upRGRGorh6VEYHqOkoM6xlqp0Sh+npURgSqq0dlRKC65qicqlM9c1RO1ameOSonAtXVozIiUF1zVE4EqqtHZUSgunpURgSq6ygxrGeonRKF6utRGRGorh6VEYHqmqNyqk71zFE5Vad65qicCFRXj8qIQHXNUTkRqK4elRGB6upRGRGorqPEsJ6hdkoUqq9HZUSgunpURgSqa47KqTrVM0flVJ3qmaNyIlBdPSojAtU1R+VEoLp6VEYEqqtHZUSguo4Sw3qG2ilRqL4elRGB6upRGRGorjkqp+pUzxyVU3WqZ47KiUB19aiMCFTXHJUTgerqURkRqK4elRGB6jpKDOsZaqdEofp6VEYEqqtHZUSguuaonKpTPXNUTtWpnjkqJwLV1aMyIlBdc1ROBKqrR2VEoLp6VEYEqusoMaxnqJ0SherrURkRqK4elRGB6pqjcqpO9cxROVWneuaonAhUV4/KiEB1zVE5EaiuHpURgerqURkRqK6jxLCeoXZKFKqvR2VEoLp6VEYEqmuOyqk61TNH5VSd6pmjciJQXT0qIwLVNUflRKC6elRGBKqrR2VEoLqOEsN6htopUai+HpURgerqURkRqK45KqfqVM8clVN1qmeOyolAdfWojAhU1xyVE4Hq6lEZEaiuHpURgeo6SoGG9d22d/aELTaWrb28Zou1fbazc/um6cP2eP1S+6bGaavN7C7cX1M7JQrV16MyIlBdPSojAtU1R+VUneqZo3KqTvXMUTkRqK4elRGB6pqjciJQXT0qIwLV1aMyIlBdRynQsL7dpg48ZLOdIXzTHcfsheVzNjezo/nxbTa7eMEa84eaw3tzvdkFazRO2v5dW3vur6mdEoXq61EZEaiuHpURgeqao3KqTvXMUTlVp3rmqJwIVFePyohAdc1RORGorh6VEYHq6lEZEaiuoxT3NJgtB21+6aItzt5m100escUrg3v3tobNH5hceb8CtVOiUH09KiMC1dWjMiJQXXNUTtWpnjkqp+pUzxyVE4Hq6lEZEaiuOSonAtXVozIiUF09KiMC1XWUgg7ru21v7fTVo+fTx6xuz1ttelvn9j1Wq1+0em1Pz300tVOiUH09KiMC1dWjMiJQXXNUTtWpnjkqp+pUzxyVE4Hq6lEZEaiuOSonAtXVozIiUF09KiMC1XWUgg3rk7Z/vtE+L325bo9//k7blD4/xLCeNoSidkoUqq9HZUSgunpURgSqa47KqTrVM0flVJ3qmaNyIlBdPSojAtU1R+VEoLp6VEYEqqtHZUSgunZdnVHXLuWoubqocqfBbJo+ak83LtoLtXua/8+RdUX19aiMCFRXj8qIQHXNUTlVp3rmqJyqUz1zVE4EqqtHZUSguuaonAhUV4/KiEB19aiMCFTXUQo7rHePsi/NH7QJzlmXVF+PyohAdfWojAhU1xyVU3WqZ47KqTrVM0flRKC6elRGBKprjsqJQHX1qIwIVFePyohAdR2lOMP65jvtgQc6p7009R1ZV1eDWT5ts5NcDWY1VEYEqqtHZUSguuaonKpTPXNUTtWpnjkqJwLV1aMyIlBdc1ROBKqrR2VEoLp6VEYEqusoBRrW77LZp19rn6/eWl6zxW8esqnN7dv7rrO+fNbm7uU666qvR2VEoLp6VEYEqmuOyqk61TNH5VSd6pmjciJQXT0qIwLVNUflRKC6elRGBKqrR2VEoLqOUuDTYEZD7ZQoVF+PyohAdfWojAhU1xyVU3WqZ47KqTrVM0flRKC6elRGBKprjsqJQHX1qIwIVFePyohAdR0lhvUMtVOiUH09KiMC1dWjMiJQXXNUTtWpnjkqp+pUzxyVE4Hq6lEZEaiuOSonAtXVozIiUF09KiMC1XWUGNYz1E6JQvX1qIwIVFePyohAdc1ROVWneuaonKpTPXNUTgSqq0dlRKC65qicCFRXj8qIQHX1qIwIVNdRYljPUDslCtXXozIiUF09KiMC1TVH5VSd6pmjcqpO9cxRORGorh6VEYHqmqNyIlBdPSojAtXVozIiUF1HiWE9Q+2UKFRfj8qIQHX1qIwIVNcclVN1qmeOyqk61TNH5USgunpURgSqa47KiUB19aiMCFRXj8qIQHUdJYb1DLVTolB9PSojAtXVozIiUF1zVE7VqZ45KqfqVM8clROB6upRGRGorjkqJwLV1aMyIlBdPSojAtV1lBjWM9ROiUL19aiMCFRXj8qIQHXNUTlVp3rmqJyqUz1zVE4EqqtHZUSguuaonAhUV4/KiEB19aiMCFTXUWJYz1A7JQrV16MyIlBdPSojAtU1R+VUneqZo3KqTvXMUTkRqK4elRGB6pqjciJQXT0qIwLV1aMyIlBdR4lhPUPtlChUX4/KiEB19aiMCFTXHJVTdapnjsqpOtUzR+VEoLp6VEYEqmuOyolAdfWojAhUV4/KiEB1HSWG9Qy1U6JQfT0qIwLV1aMyIlBdc1RO1ameOSqn6lTPHJUTgerqURkRqK45KicC1dWjMiJQXT0qIwLVdZQY1jPUTolC9fWojAhUV4/KiEB1zVE5Vad65qicqlM9c1ROBKqrR2VEoLrmqJwIVFePyohAdfWojAhU11FiWM9QOyUK1dejMiJQXT0qIwLVNUflVJ3qmaNyqk71zFE5EaiuHpURgeqao3IiUF09KiMC1dWjMiJQXUeJYT1D7ZQoVF+PyohAdfWojAhU1xyVU3WqZ47KqTrVM0flRKC6elRGBKprjsqJQHX1qIwIVFePyohAdR0lhvUMtVOiUH09KiMC1dWjMiJQXXNUTtWpnjkqp+pUzxyVE4Hq6lEZEaiuOSonAtXVozIiUF09KiMC1XWUGNYz1E6JQvX1qIwIVFePyohAdc1ROVWneuaonKpTPXNUTgSqq0dlRKC65qicCFRXj8qIQHX1qIwIVNdRYljPUDslCtXXozIiUF09KiMC1TVH5VSd6pmjcqpO9cxRORGorh6VEYHqmqNyIlBdPSojAtXVozIiUF1HKdCwvtV2zjxk8/VL1l5es8XaPtvZuX3T9GF7vHtb47TVZnYX7q+pnRKF6utRGRGorh6VEYHqmqNyqk71zFE5Vad65qicCFRXj8qIQHXNUTkRqK4elRGB6upRGRGorqMUaFjfblMHHrY/PnCnbUqD+4GT1rBzNjezo3nbbTa7eMEa84eaw3tzvdkFazRO2v5dWwsZK6mdEoXq61EZEaiuHpURgeqao3KqTvXMUTlVp3rmqJwIVFePyohAdc1RORGorh6VEYHq6lEZEaiuoxT3NJgtB21+qWHzBybtuskjtrjcHdwLtxXvV6B2ShSqr0dlRKC6elRGBKprjsqpOtUzR+VUneqZo3IiUF09KiMC1TVH5USgunpURgSqq0dlRKC6jlLYYX3TzAl7dflZq92x3a6bPmZ1e95q09s6t++xWv2i1Wt7+u6jqJ0SherrURkRqK4elRGB6pqjcqpO9cxROVWneuaonAhUV4/KiEB1zVE5EaiuHpURgerqURkRqK6jFHNY33yP1c5e7Jz20vx4iGE9bQhF7ZQoVF+PyohAdfWojAhU1xyVU3WqZ47KqTrVM0flRKC6elRGBKprjsqJQHX1qIwIVFePyohAde26Mpteg5Sj5uqiCg3rH7b98+dtuf4t+1T3nHSOrEuqr0dlRKC6elRGBKprjsqpOtUzR+VUneqZo3IiUF09KiMC1TVH5USgunpURgSqq0dlRKC6jlKwYX23fer4WVsu/vIo56xLqq9HZUSgunpURgSqa47KqTrVM0flVJ3qmaNyIlBdPSojAtU1R+VEoLp6VEYEqqtHZUSguo5SoGG9e5WXBZud3l64TVwNZvm0zU5yNZjVUBkRqK4elRGB6pqjcqpO9cxROVWneuaonAhUV4/KiEB1zVE5EaiuHpURgerqURkRqK6jFGdYbx0tb19GvXdZmj9oE83b+66zvnzW5u7lOuuqr0dlRKC6elRGBKprjsqpOtUzR+VUneqZo3IiUF09KiMC1TVH5USgunpURgSqq0dlRKC6jlLAc9ZHS+2UKFRfj8qIQHX1qIwIVNcclVN1qmeOyqk61TNH5USgunpURgSqa47KiUB19aiMCFRXj8qIQHUdJYb1DLVTolB9PSojAtXVozIiUF1zVE7VqZ45KqfqVM8clROB6upRGRGorjkqJwLV1aMyIlBdPSojAtV1lBjWM9ROiUL19aiMCFRXj8qIQHXNUTlVp3rmqJyqUz1zVE4EqqtHZUSguuaonAhUV4/KiEB19aiMCFTXUWJYz1A7JQrV16MyIlBdPSojAtU1R+VUneqZo3KqTvXMUTkRqK4elRGB6pqjciJQXT0qIwLV1aMyIlBdR4lhPUPtlChUX4/KiEB19aiMCFTXHJVTdapnjsqpOtUzR+VEoLp6VEYEqmuOyolAdfWojAhUV4/KiEB1HSWG9Qy1U6JQfT0qIwLV1aMyIlBdc1RO1ameOSqn6lTPHJUTgerqURkRqK45KicC1dWjMiJQXT0qIwLVdZQY1jPUTolC9fWojAhUV4/KiEB1zVE5Vad65qicqlM9c1ROBKqrR2VEoLrmqJwIVFePyohAdfWojAhU11FiWM9QOyUK1dejMiJQXT0qIwLVNUflVJ3qmaNyqk71zFE5EaiuHpURgeqao3IiUF09KiMC1dWjMiJQXUeJYT1D7ZQoVF+PyohAdfWojAhU1xyVU3WqZ47KqTrVM0flRKC6elRGBKprjsqJQHX1qIwIVFePyohAdR0lhvUMtVOiUH09KiMC1dWjMiJQXXNUTtWpnjkqp+pUzxyVE4Hq6lEZEaiuOSonAtXVozIiUF09KiMC1XWUGNYz1E6JQvX1qIwIVFePyohAdc1ROVWneuaonKpTPXNUTgSqq0dlRKC65qicCFRXj8qIQHX1qIwIVNdRYljPUDslCtXXozIiUF09KiMC1TVH5VSd6pmjcqpO9cxRORGorh6VEYHqmqNyIlBdPSojAtXVozIiUF1HiWE9Q+2UKFRfj8qIQHX1qIwIVNcclVN1qmeOyqk61TNH5USgunpURgSqa47KiUB19aiMCFRXj8qIQHUdJYb1DLVTolB9PSojAtXVozIiUF1zVE7VqZ45KqfqVM8clROB6upRGRGorjkqJwLV1aMyIlBdPSojAtV1lBjWM9ROiUL19aiMCFRXj8qIQHXNUTlVp3rmqJyqUz1zVE4EqqtHZUSguuaonAhUV4/KiEB19aiMCFTXUWJYz1A7JQrV16MyIlBdPSojAtU1R+VUneqZo3KqTvXMUTkRqK4elRGB6pqjciJQXT0qIwLV1aMyIlBdRyncsL5p+rA9Xr9ktnTK9m8Rn09L47TVZnb33W8QtVOiUH09KiMC1dWjMiJQXXNUTtWpnjkqp+pUzxyVE4Hq6lEZEaiuOSonAtXVozIiUF09KiMC1XWUQg3rm2ZO2Pn6Y/ZgbcGW+ob122x28YI15g/Zzrdtt6nZBWs0Ttr+XVv77q+onRKF6utRGRGorh6VEYHqmqNyqk71zFE5Vad65qicCFRXj8qIQHXNUTkRqK4elRGB6upRGRGorqMU8jSYiQOn+of1ySO2uHzO5mZ2tD/ectDmlxo2f2Cy736K2ilRqL4elRGB6upRGRGorjkqp+pUzxyVU3WqZ47KiUB19aiMCFTXHJUTgerqURkRqK4elRGB6jpKb41hffqY1e15q01v66yzx2r1i1av7blyn0HUTolC9fWojAhUV4/KiEB1zVE5Vad65qicqlM9c1ROBKqrR2VEoLrmqJwIVFePyohAdfWojAhU11FiWO/cJ20IRe2UKFRfj8qIQHX1qIwIVNcclVN1qmeOyqk61TNH5USgunpURgSqa47KiUB19aiMCFRXj8qIQHXt6s6Z1yLlqLm6iGE9INXXozIiUF09KiMC1TVH5VSd6pmjcqpO9cxRORGorh6VEYHqmqNyIlBdPSojAtXVozIiUF27unPmtUg5aq4u4pz1gFRfj8qIQHX1qIwIVNcclVN1qmeOyqk61TNH5USgunpURgSqa47KiUB19aiMCFRXj8qIQHUdpbfGsK6uBrN82mYnuRrMaqiMCFRXj8qIQHXNUTlVp3rmqJyqUz1zVE4EqqtHZUSguuaonAhUV4/KiEB19aiMCFTXUXqLDOuF66wvn7W5e7nOuurrURkRqK4elRGB6pqjcqpO9cxROVWneuaonAhUV4/KiEB1zVE5EaiuHpURgerqURkRqK6jFHJYHyW1U6JQfT0qIwLV1aMyIlBdc1RO1ameOSqn6lTPHJUTgerqURkRqK45KicC1dWjMiJQXT0qIwLVdZQY1jPUTolC9fWojAhUV4/KiEB1zVE5Vad65qicqlM9c1ROBKqrR2VEoLrmqJwIVFePyohAdfWojAhU11FiWM9QOyUK1dejMiJQXT0qIwLVNUflVJ3qmaNyqk71zFE5EaiuHpURgeqao3IiUF09KiMC1dWjMiJQXUeJYT1D7ZQoVF+PyohAdfWojAhU1xyVU3WqZ47KqTrVM0flRKC6elRGBKprjsqJQHX1qIwIVFePyohAdR0lhvUMtVOiUH09KiMC1dWjMiJQXXNUTtWpnjkqp+pUzxyVE4Hq6lEZEaiuOSonAtXVozIiUF09KiMC1XWUGNYz1E6JQvX1qIwIVFePyohAdc1ROVWneuaonKpTPXNUTgSqq0dlRKC65qicCFRXj8qIQHX1qIwIVNdRYljPUDslCtXXozIiUF09KiMC1TVH5VSd6pmjcqpO9cxRORGorh6VEYHqmqNyIlBdPSojAtXVozIiUF1HiWE9Q+2UKFRfj8qIQHX1qIwIVNcclVN1qmeOyqk61TNH5USgunpURgSqa47KiUB19aiMCFRXj8qIQHUdJYb1DLVTolB9PSojAtXVozIiUF1zVE7VqZ45KqfqVM8clROB6upRGRGorjkqJwLV1aMyIlBdPSojAtV1lBjWM9ROiUL19aiMCFRXj8qIQHXNUTlVp3rmqJyqUz1zVE4EqqtHZUSguuaonAhUV4/KiEB19aiMCFTXUWJYz1A7JQrV16MyIlBdPSojAtU1R+VUneqZo3KqTvXMUTkRqK4elRGB6pqjciJQXT0qIwLV1aMyIlBdR4lhPUPtlChUX4/KiEB19aiMCFTXHJVTdapnjsqpOtUzR+VEoLp6VEYEqmuOyolAdfWojAhUV4/KiEB1HSWG9Qy1U6JQfT0qIwLV1aMyIlBdc1RO1ameOSqn6lTPHJUTgerqURkRqK45KicC1dWjMiJQXT0qIwLVdZQY1jPUTolC9fWojAhUV4/KiEB1zVE5Vad65qicqlM9c1ROBKqrR2VEoLrmqJwIVFePyohAdfWojAhU11FiWM9QOyUK1dejMiJQXT0qIwLVNUflVJ3qmaNyqk71zFE5EaiuHpURgeqao3IiUF09KiMC1dWjMiJQXUeJYT1D7ZQoVF+PyohAdfWojAhU1xyVU3WqZ47KqTrVM0flRKC6elRGBKprjsqJQHX1qIwIVFePyohAdR2lt8ywvmn6sD1ev2StpXHaajO75XpFaqdEofp6VEYEqqtHZUSguuaonKpTPXNUTtWpnjkqJwLV1aMyIlBdc1ROBKqrR2VEoLp6VEYEqusovUWG9dtsdvGCNeYP2c63bbep2QVrNE7a/l1bxbr91E6JQvX1qIwIVFePyohAdc1ROVWneuaonKpTPXNUTgSqq0dlRKC65qicCFRXj8qIQHX1qIwIVNdRemsM65NHbHH5nM3N7Gh/vOWgzS81bP7A5Mp1C9ROiUL19aiMCFRXj8qIQHXNUTlVp3rmqJyqUz1zVE4EqqtHZUSguuaonAhUV4/KiEB19aiMCFTXUXprDOvTx6xuz1ttelvnc3usVr9o9dqe/vUEtVOiUH09KiMC1dWjMiJQXXNUTtWpnjkqp+pUzxyVE4Hq6lEZEaiuOSonAtXVozIiUF09KiMC1XWUGNY767CwsLCwsLCwsLCMcrkyi14DhvXOOmlDAAAAAKNyZRa9BilHzdVFb9lz1gEAAIBxeWsM6+pqMMunbXYyfzUYAAAAYFzeIsN64Trry2dt7t7hrrMOAAAAjMtbZlgHAAAAqoZhHQAAACgphvWR2G631561ZSv80urmO23/N59pfra9LM0ftInObVdOy1k6Zfu3dHO6tx2yby6+1rnX1cz+U3nq9vjn77RNV+633aYOfMMWG8vt20Xu+mp+/c8/ZvXml+/t2dLcDge/V1+5fd622/bWTne2T/PWxWO2t/VXZbfZVO351mf7l3RFn4/Y3tkTV3vaa7ZY22c7e77eoO23/rbazpmHbL67j1Y8tgHbaNenbfb41eeJNU5bbaZ7mtbV+6Rluf6YHZze3vx8+lpHbO5Kz97t1/167fvL5+bYpCsxLXUec89SP2ZT6fZd+6x2pdPKfZtsuuOYvdC7Dd3tN05D7KNB3xvNTn84nz5fvJ+3/fznn//6sXFW7D/vttbFANoPub0sda7ildm2A+/X+TrO6+94qO/TQd/7xdt6uzdfU73XxyvPN3HbRhv4HO9dT2yXvg6XrP69wza1ufc+aZ17rHa2d/9O2v75K68Q7aX7muPetrHUa9vgbTToOZDu57+ODnyPLNPzI5Gvj5n3kCv3LT4H/PuV5fVxEIb1Eeh+g/UPhh9uvgC8Yo2nj654Idk0c8LON194H6wt2FLxzWLXIZtvnLenZ+8qPFF6f0m2+UZ14GTPL8l2Pm4s2OyVF/ONtMP2Hj/bfNF82Gr/X6P/TXjzPps7f9Ye/8Ix+37hCjxpO7za/f2B1jfWxU6/bm7XVvvA7GlbfvWE7d3cfIE68JDNdoax9rbvudLPwO23EdJje9j++ED6Ju/sE+s+Nm8bNX+o+5PZzgtt582p1bV5W+tKRueb2+3DzdvSc+q8LS8esQ8077dp+qD98eyn29urs/1ePb6vr7d+bpZJ+3ndftxpG51rvk5+yz7V3Bbtx97t3lm/+wLcXK5sQ2/7Xfk64+HuI+97I93vTw62Xztaz+mlFfu2rXf7ec8/7/WjmLmO1P7zbnOu3OVuW+9+3uvvmMjvU+d7v++2zXfZ7NPnr15AYeDrY+d1tHHS9qfvr+mj9nTjlU5+/+PZCMM8x1dul/4O7ftdsMXZ267c5+qA31wKw/qK51yLd9sGEs9/dxsNfA5kXkcHvkeW6/nhvT72630N7H5OPQeKeu9XktdHB8P6NUs7+TV74ZFH+59Q6Rtpyd/ZEwdOFd4s2t8sS90X5D6Fa8P3XTs+PYbzhRescXBe9Fa8eXaOnvf8NNwa3tU3VutFrGEv1O4pvLg0tXIvdrp7228M5MCQf2NoPS+6LxR9+3nlNruqnXvlzbxlwHOzRFpvJEvPWu2O9ENm4TneedO5uq06+/fsCTtW/IGnR9/2E7ePj9pHTc5g2Tb4OdO//fpv68/1Xj8K91s33v4bcNvQj7OwbYe438rX33EZ8H068Hu/va16fyAd2KXv9bE9kFwdavKvRRtHPRa1XYqvgcXXjKbWe++z9sif9f4wJta7wrttowzz2ta7jbzngPc62vk68j2ypM+PzOujfA2Uz4F+7nvPWF4ffQzr16R7RLv5k+gHmz+t9jyh2gPDK1Z/qfvPKiuvQLPyBbbzhvNS3V5q/UiY/jWm/dPxlZ8U09HzO365+VP0a83IY3Z7+kZtPZkv2Uv1Vzr/fHXJ6sfvbx9x2lDON/eKbzgxeA74BmkfgVfDV+c0mu5RFnf79d5vY7Qfd3GQyrwA7kr/fNk9QtL8uHPEMP0Lze13pCMdF8UPLc3n4cwxW+w7CjL4uVkenSNAV944im8yhedI64hQ6rhn8DYsbr/SUPuoI/Nm1DrC9Kra78Xt16//+ee8foj7rgtv/w26rfWacHXpPxWkS2zbIe5XjmHd+T4d+L0/7Gtn8fUx8/01Tiue44O3S/tI8Wv29Owv2+2tyzD3vsZ2/kW7+f1/c9/+Td17ToFY7j3Nwbttgwzz2ta3jbznwC85+9l7jyzp88N9fVSvgYOeA72K9yvB62MGw/q1uPIN1nyD6HtCdZ7k1v2np84TofBP8yvfLDovGt0X1+I/7ba+WbvfYT3Da+ubdPnKgNJ+Mes5NWTDrGZYLw4T7X/mbZ+X3vuG0/5pv3/4an+d9nYQL7qDtt9G6r7RrhgaB2yj1vbpVuofLFrbqX3TisGs9Rxq3VI4d3Pgc/Pqfceu959xW5/rvIB2XyRbHZrP99abxdUX4J1qGzrbb9wG7qMud/9030S6A1fPbSu2Xw/1/Bv0+rEhvP2X2bddrX/q738TzW7bAfdLSjGsZ75P9fe+N6il107v9bGMw7p4jrvbpf060V66/2qQPt8z4DdzBu/f7Z2/tVI8kJK7bb0M8/wvbiPvOTDpvI5675EVHNZXvAYO+RxQr51jfX3MY1hfs95vsObHfU+o3Itp+3Mrn0jON0v3zTedA7+l80sX3W+4FdnFnI3ivNHKb7jeXzDt/MtA4Rsr94NH+7y67tGGsrzYpOfG+Z4jFr23Oduopf/N4upRpLtsovULMOoHgKa+gcR7bhbuNzb6B9i+X4zq/MvU0vxv2c09L8D+NhzHm+2QBgyNg/dP541H/l2IAduvRTz/vNePvvuuh/430P795922Mmvgm++gbduh7jd4mNso/vfp4O/94d5fWhmlfH3spZ7j3nbpDq3p97MmO79g2Rm6egf85v3c/eu9Jm7o6+Uwz3+1jTLPAfk6mjK950AZnx9NA/eHeA0c6jkg7jfW18fhMKyvVesJ1P5e6F/aVx1Y8SQZalgvfqP2fLMU79/6KfBS+xtrxZO5KsN6L3UuXeFIa9/6Xb1f09l+K+63Xnbbp46fdb7RnW3UdWVb/V8rHn/7SNvKN+XkyvPpvf5zs3i/sej7J11xe0v6V5X0uxh3t7aZXNS+zT7Xxke+ecjH23yDvvdbVweRK5/vGLj9Bjz/vNePK/ddL+3nvFzqj9rRVexb/ea7ttu89TdEa793uvYt6fv0l5zv/e3Dn7Pe93pTtnOSBzzH3e3yHwrvbZ2j7M3tdGfaBp01+xfxeum9Rmzo64f3vZH2/aDXgVX83sKV19H0LxDFfd77Hlmxc9bFa2BrG3Q2X/9SfO0rvHaO9fVxOAzro1J8QrV+wus+ITpvoIWjYCu/ubo/QXeOCu663+aaL0ytb57CP9u0j7p0P+4cSWsNtd1v7vKfBtNL/uZ5axsWftN/8532wANXzyfsP3LkbL/u/ddV56iue1Weldto0/T99sCV9XuPDP+z9gvylcGre1QpfbzTph64/+o/+3tHFjf0zWcY3f3k/VNjd1uqH3r6t+Hg7TdoH2yU5mMZZh+J/dN+Xg+6qtGg7ec8/9zXj571NoQ3BPTe1uw586Dt73bpbr/WD/TetvXu11m/aezDelHf86AzjMnv/ebHvfuzt1/m9bE3s31b8UoqG8d/jvfo2y6F0yLV6V4dfft316ftd1tXSUq3dV8jOt8/3m09eRuj+NrmbKNBz4G+9bqvCd3nkfceWa7nxxXy/WuY9xBvxircr1SvjxrD+qiseEKlN4z0S0+dc6DEtZ/1m8Wga483v+l6rrm74hqovf/sNbbrozpvwuobrvW5zkNuPGNz3cuwtRTfrDqf77woXV2aXb95qOdc1UHbr3v7Ourt07P0b4+V26j9onhlx7a2xTe7bx5XrjPbWa48jzovwp1Pt7t+4+qA0ku+2I1T4Q23R+t74kqfE1cuQddPvaEN2H5jNeQ+WrF/2v1WLFdeKwZsP/f5l3n92FDO60Tfbc3X0NaBh85DTuelzz909fVw4Lb17nf1a5V7WG9+PPB7P63fvz+vnPKUe33sy2xul7FciCDJPcd7FLZL3/WwW/tdv8b3D+tpKO3eJ22vk/aH3W3p3bbhep//uW004DnQzPFfR533yNI8P3rI96/B7yG9Vn6PD7pfmV4fNYZ1AAAAoKQY1gEAAICSYlgHAAAASophHQAAACgphnUAAACgpBjWAQAAgJJiWAeAt6SbbOcH/4W4fOKoTNjErg/Zzi0T4rb32a0z/972fuR94jYAQC+GdQB4y7nRbv7t71vjcvev9q3D4P7B37EnGgP+CmDrj5BcHP8fXAGACmBYB4C3nAl75/Tn7I9mP20/d8OE3fip4/ajxl/ZvneoddfoXf/a9v/R79ne99+44rb2H20RfwYeALACwzoAvNXcMG2H5r5rXz/wr23qc4/YEy9fMrtYt6dOHbcvTt1k1//Tu+0Lj56yxefO2g/mv2IznYH7+o88aHOP/6l98QuP2hNnztpzp//Svnj7tM08/B1bSB8/NWeHWn9FdJvdeugbNv/1g3Zz6+t9qLPO83bmiT+3h7/zktmrJ2zvlb88DAAYhGEdAN5qbnnIzlz+iT1x6N/a3q8s2PnL6U/yP2q12qzt/b9+3b7+UsN+/NRf2p/W/ostNt60S/Oft3e/7Ub70Jd+YJftkr385FzntmW7vNSw5+e/brU/fczOvHG586fSP25Hz1yyN5980LbdcIvdN/eC/Y/Xn7Hjf/pn9p+ffLmZYZ31xGMDAPRhWAeAt5QJ23boSXvz8g/s6C032tvv+yv7ib1oj9z1nuZtu2zft18xe2PBjn7yEzY1PWNHn7pgVj9mU2/7kB168id2+ZVv2D2tI+J7rFZfssvPfcV+/obmx5v32dyrS/bq8X226aYH7Yk3L9mZL91uN372u8388/bXn51sf/3pY1Y3zlcHgGExrAPAW0pnIH/5z+0TN7zHPvHIi2Y/6ZyvvuWgzS/ZiqV1FPwdn7Fv/2TJXn7kk3Z9ymn9kmgayD/ezm0N4Q2bPzDZ8wPArbZ/vtH5Wu2vz/nqALA6DOsA8FZywyftkZeX7Cff/oy9vfd0lXRba+C+YE99acampu/smLab37vVrr/rz+1le8W+fd+uVk576O4ekd9qH5g9bcvLp2128md7fgBoH32/espL5wcFzlcHgKExrAPAW8mV89U/1DmSvnT18oqtYf2SPVe7pzlcp+ukf8J+9b677Mbu+epvPmmHbkrXTd9he4+fu3pE/m2T7SPordNlen8AaA/r7f/fau/5N1+x01fOa+95TACAgRjWAeAto/989etap7akX/dsLmnQ7vwy6NUzYS7Zf3/kV+zt3fPVzzxkH2rl9A7hzY/l+erp9Jjt9rE/WLDXW1+iOaT/6Ed2/jLnqwPAajCsA8BbyPXv/bD9Px+Z7BzZnrCJ9/9b2/ebv2afeP9NnXVusp+769fsN/f/uu350I72+elv22o3ffBjduuu7jrp49tap8d077PzIx9rf3zDDrt56hd6/nJpyrvPPjNzZ/Nz72mu9/MD/qopAEBhWAcAAABKimEdAAAAKCmGdQAAAKCkNnRY/0f/eIv9o3e8Sz4QAAAAAFf9zNu32Du23Cjn6qKRDOs/9b/+7/bOre+2t09sbQ3tAAAAAFZ6+z9+V2tu/vv/4B/KubpoJMN68r/81P9mP/0zb7cbNr0DAAAAgPDTP7O5daBbzdPKyIZ1AAAAAKPFsA4AAACUFMM6AAAAUFIM6wAAAEBJMawDAAAAJcWwDgAAAJQUwzoAAABQUgzrAAAAQEkxrAMAAAAlxbAOAAAAlBTDOgAAAFBSDOsAAABASTGsAwAAACXFsA4AAACUFMM6AAAAUFIM6wAAAEBJMawDAAAApfRT9v8DeXxwueh0F2EAAAAASUVORK5CYII=;" vertex="1" parent="1">
          <mxGeometry x="849.2" y="308" width="181.49" height="126" as="geometry" />
        </mxCell>
        <mxCell id="95BSXxh1HP4HeSVz1PFE-2" value="" style="shape=image;imageAspect=0;aspect=fixed;verticalLabelPosition=bottom;verticalAlign=top;image=data:image/png,iVBORw0KGgoAAAANSUhEUgAAAmIAAAF+CAYAAAAhqnabAAAABGdBTUEAALGPC/xhBQAAAAlwSFlzAAAOwgAADsIBFShKgAAAQ9pJREFUeF7tvX1wFGeeoFlxfyv2gomJi1XceaMnCMc5NtjoYDkitn2eCbl7THiGCOidOZZo26cB1j1gd/dgM4FopgcbX4MJW217ZHoPBlYsaG1Mg8v4DIyFjYxNM2BjTRtje+ny1zQf1jSmgVbLtgAh/S5/paxSVtZbVZlZmVWZWc8T8US3JVWpVJSyHr3vm29mBAAAAACaAiEGAACQWiZkbOSCfPrBB3J25Ib9MYgThBgAAEDaGBuWM2/vlae7FsqstoxkMl+T+b0fyHX70xAfCDEAAIC0MPGlDA3+TB6ad4sVXxpgDuf0Sm7c/jqIDYQYAIAvRiW3a5V03jPXHmmoYNssmXvPEln+0E/lmZePyvtnh2XMvgfwyNiwnD15WF7q2yTdPx2Qs0REDa7Kmez35eay12O7zF7ULdmTF2q8Bifk+tnjsrv3aenu7p7y8TWyfFGndHZWcdFfy6a3f2PfT4JpwmuOEAMA8MW4DA+slvayN7taen0zhDw3fil9f+YY1ZneLYM8cTUYkcHuDsdrzvLmxfL0kTMyOmF/SQ0mzuyS71T7A6Oid0j34LB9LwmlSa85QgwAwC/DA9LV7nwT8uNMWdT7rox4fGNsWW6clJ6ZbVPPGyHmAXeIzZBl+86Lr5faxHnZt2yG4z682Ta/V3LXE/6ibtJrjhADAPDNsJzs+ba0Od6IMtPmyvLHuqW7p1d2ZZ+XXb09sq6rUzqmOw7sBdu+LT0nEz56EDlnJds5feo5I8Q84A6xDukeHLE/55UJ+XLwJ/KN4n04bZdZc++ypyKXy5rHC1OXP5FnBi/5C75Y0pzXHCEGABCAscFume58k6pw0J4YPS/He78vs13TPdOW98sl+2vAxdiIXBwalN4FX5t6zm7tliPnh2Ro6F/k4ghFZsYdYrfKmv6PZejiiL/p8Il/ll0LHc+9FWB3PP0L+TLNo7hNfM0RYpB4vhq7IbnLI3nfu3hJPr74sRz7+EBVLx7bLWNvZCt649RRGT+bm/LCOfu7AUxSFmKdWRmyP1fGxCU5vn7O1NeqjPCYGT8tvXPaS5+rEm+Rpfs+s78YCtRe27VUskNeX3CukaHMdOnMnrU/FybjMnrlghU6TQ7sJr/mCDGILZdGr+Xj6ujQJcl+MiQ7fnlOVp7I5Z3/+inJ/MPbRu/f/6D87b5vVvXiU38uX/0gE9irW1fmvbZzfTHeCtEGrYGvEJMxGcoudRzYLQkxM2OD0j3d8TyVOV82ffCl/cVQoOz16Pbr1uvtqtchrUaE2A25PPA3JWd4tncNSFMm7Jv8miPEoKkUYuvgmQvF0KoWWV5sRIh50RlqhRE2SA/+QmxETvbMdRzYLW/bJB+EsNH5xOjnkjt+UPZms/Li4JAEOts+Py2joxKWfqexajAxelnO5d6VwdxFb/frXjBdYptM/05f6aLwsc/lg9f2S9b6+Sd9UfqPDMoH/3zJ85mC8cY5avQbGRkz/1A3TvbITONzpvrdzLXOEJsYlYsfDsrAvl3S+9MDkrtmesxfygeb5ju+x00yv++jUNaZRf6aK6A/Z+5N6c/2yabuJ+XvB34VaMNcQgwahju4TBEVhnEJsUqOrp8/FWgfviMTw6wUSiJ+Qmzi8uvy0OxpJQf3GeuOWW9FJq7LlU+OSXbTWlneWdirrF1mzfu+rNtxWD51Xqbm8mFZM3tqSmV69+DkG09+U88XZdNDy2XR4p/K8WFDno1dktzADln3g2+X7odW8efw8biUiV/Lsae/J7cXTlaw73di9Iwc/1mPrFq6SDo7l8mqp/fL+5cNb1/u6SLj47oun2Xvk2mFrynRegO9/XvS0/+RtzNU82+qx2Vfb7d0LV3gOMlilnQNXLS/yITP58UTVnwNDcrep38onR03249j0oprC/Mx/bH0r7nV8fX2dOTYVRmtEHBm6gmxUcn1LnScyLJAenOj9uccTJyR7CLnz1Zp1MnH89uQ15xF/nenV7rmujbNnXav7Dpz1f4i7xBiEAm6pkpHgc4cekHu/ccPjMEUlXEPMZOjq2fnR9AKU5wTV7+yn0mIK95CzHpDPfu6PN0503XAXix9HxvedMbOyxvddxs25Jyy7Y6n5O3hyTcf92PIh9jIe7LrgTscb4TutUE3ZCS317zzumr6OXw+rjyf75OlJYG3W3LvPyPLHOFYsO32x+XYZVewuKeLTI/r2jvSc6szcE3eJHd0vynDFTtE/43ekE1Lbys9C7ZolQgJ8rzUYuK38sGuldLhfO4c3tR1UH5TMarci/X9rAtTxuTKpydl8O0XZd3tzn+nduno2iLP6yanzo1eu5+W3l2HJTfiDP0b1j/9DxzP5c2yKHumfKTLvQWMaerU7/Mb+WtuQsYu/0J2LKv0WmmXOb2nfY9KE2IQChoPYycO5kd6NCqckWGKpSj97v4fGePLadxCzOTVnnvlev8ORs1iSrUQmxi9JP98ckCee3xJ2dmSuo/Y4l0fWn/nuxg7J4ce+pMKB3inU3tDuR/D11Y+LZsXuaKv5M34qgwd+rHcXuFNXm1buk8+t786T4DHlWcoK53Oz8/8I+m4udL0z9fk230flr6BeQixiaF+eXj5Gnk8HwWPy7quZXLP3FmGx3qndA/+1r6VEytK398uiyo+Lqd3Ss/JL+zbWQR9XqoxcUne7p5f4z7bZPq89bL/k2HDfdYfYkPZZR5+Joftq2XANeI6nuuVOY6vKV/7NSFXrdfu1x1fc9OaI+J4doM9vxG/5iZGBuXpec6zSW2nz5Gl67ZKduBN+WDoS2//1g4IMQiEjnhVCi+3K3ZmjcEUlcsP7zHGl9MkhJjbkjBjxKzplIXYrE5Zs65Lli7oKP14iZU2c/1SPu5bXDLF1nb7atn19scyNHRO3uv7bsnnClOQZY/B5MweOZn/w39CRt//e5nnjrDp8+SBnmfl5SMn5GTujPzLlVHHG0mwx5XH/aZYS/d1EL2MiBnRab1jZUFa9kZv/ZRjZ7KyzPVG3TZroazs/q+yK/sz2bT8jxyfc+7JVcfzUpExudC/Sm5x3E7P1pv7wFOy4++Wuj5uefN9susT96hqvSFmPSufZWXxNMf3qWH7A/1yyf16do9U3vSwHPnC+UU6fbnAcT/u6d+Az2+kr7kv5P1Nf+4Kw+kyb90ByV0JsjJsCkIMPKFv/BoA1/ZuzK9xMoVCJXdv32wMpqhMa4i5zU9lWjHM1hrNwVMEFW2T6XNXyzODvza+IU9c2CfLnG9+t6yUfZ8V1ppMyBdHHpabHPc1s+ekaFtVfAxtt0rnmp9K3/NZ2Xv87OTo2/UPpHe+86/5Nrl50RZ5+/PKa1qCPq48xjfFr8vCdc/KoeNvyhvPrXaNzC2WXWcdb2hBQkyvE/jBmzKw73np7XJtF+J+09U1Soud07M3ye1r9sknxTVH7jNdp0KsruelAhOXDsmqWxxR2PYn8lD/P+dPOKj07zxtcVY+K4kgd4jdLX2f+l2zNGIFh3ONl8mbpWPBPdLZuUr6PjBtGHtFjq9zPg7X+i/3+rBpfy39l6aeocDPb5SvuRvvyabbXNPgvs5ErQwhBhXR6bDCqJcpBLx6avPDxmCKylYJMacax4XRMmgM3kLsZrl92U/k+WMfy5WK63quyZldSxxvfNNlYV9uKtgmfiNHHnKOzNwma45MXlzZ9Bjabn9Y9pVNW03Il8cflRnOr73lb2XA8eZXTvDHlafsTXGWLMt+6rj9v0j/A85RK9cu8J5D7Lpcyb0hz3Uvl3mzytcCFS3ZLqR89/hp33lGPi45M65SiNX5vBgZkwv7ljtGeb4m8za9KyVL3HWB+Ks/kQUlo1XuhfDuEAuys77F2GnpnXeT435ush7Pmz7OqHW/3lxrpy71y3LHzzFt2T65UHzq63h+o3zNmfYam3aPbH7vt67fNf8QYlBCIb50Gsz0hh/EK2vvNAZTVLZiiDnVqWIduSTKoqViiE3vkIXL18r/u2tATp4d9vDG9WvpX/51x304RzHK13Q5r+k38WmfzC/eznJap/T+0vTGO2y9Qd8x9XXWG+Mdm94rX6dWQvDHlcf9pviNn8hgydbs7tBxLYr3EmIeFnMXLQkx94hNh6w7fsX+XAH39FnhTbvO58WI6z7blsiuM9fszzlxb4Pi3mg0pBALYx8x12L8tu/skjP5p8F90fzp8p1dnzpipo7nN9LX3A25fOxx14ia5fQ/l3X7Tlf5Q6s2hBhEEl9uZ7901BhNUXjv4X5jfDlNc4g5JcqioyzEFvTKuyXrqzzinvIorKcZ+428//zflB742xbI0yevTH0P1xtPxQ0xyy5Zc5sVHqbF6w7qeVyKa9TDFFKlz6HPEDMu5m6T6R2d0pVf47VFujocIxjOEHOPbrT9QPZ97h4drBA19T4vJtz3WXGzX/e0nPssvZBCrOz1EiDE5KIMdM2auo9py2XfBf2hXBHsjs56nt+oX3MaggOPybyy68e2y+xFT8vAmS9q/1sbIMRalPyar1NH65529GojF+zf/foxY3w5bZUQc6pRptOXrCkLgxvWMf+vSxYMmw76nnAf/KctlB9vfVIecO9RpGuGDp0rHWFzhVjFReHu7+HlDbqex6XUfFPTLwn6pmhY2H7z3dL9snNkwjWq44wb930bw6dC1NT7vJjw9HgmKX3O3JughjU16Xo8gULMPfJln9345TFZN8MRMvP75FNnvdTz/LpvG3qIKXoyyNvys4f+zHE/tjcvlb6c/+ebEGsxdJuJ/IL7Gmc6hu3BbT2GaDommQ1/ab+If18yC38qmf2Oz/f8leNF/u8l8/0lk///Ww9L5oW3HPdTKiFWWx391FFQzr4MyphrisMyaIjVvM5dRto6VspzJ39T/qYeZYjV87iUKN8UJz6VXd9xTp3dLg8d+dw1GuEjxEyL2kfflU0lWxXYz1m9z4sJ932WnWVYwL1H19dlef+v7c8pcQoxC9f05LTFz8uHx6qsHVPqeX6jfM25mfhCzvT/P6UjdJbepqJLIcRaAH2z1Tddv2c7hum5J5aVR9PzmyTTvkAy/90KMv3/v/ctyWz9R/vzVmhtWCyZ/9xn//cR6//PteLsZet/77Vus1cyc+Y5vn5KQsyfGuZcfskvhhBz/2XvGdcUjsO22Yvkx30/l7OjJW9VU3gNsbI1P9PkG90nKuzsX6COx6X4flN0nP2mVLu9ezNQ09SiewsFZ4iVXdJGzyDtlZP53dYnZOzKaXlpjXvasxA1dT4vRtz3WWHfs7IzPaNarB9SiLl/rrbZ0vFHzrg17bpfx/Mb5WvOyBfywaY/m/r6vP6vS0mIpRidgtI3WdObb6MdWTWzLJhKfGG7ZP69FVjPF0a63pTM3xZe4Dpa9neSedQePfvWDyXzwN3W518qvQ9bQiyYGuo6Xc0omRcMIVZlOqk67jPmJm2b1yNvX3bdoW7PcHJA+k/aG/x6DjH3wnPLtj+RNS+5FxlrhJyTs1f0Xup4XIrvN0XX4692e9fPrSNiawaGiredGD0vxzffW7qIv+Tfp8KbfdssmXt34TI6bgtRU+fzYqT8Pttu/7EcGnKM0k38Vt7v/W7Jz1R7+4qwQmyazFr6lPys/4i8PTiY329u8tqXDq0/5k4Onpahkgt8uqcnXbq3FMlTx/Mb5WvOiCnE/D/nhFgK0TdT3WPK9GbbTOe9cMgYTpn9/2CF1rdcYXVMMlvt/35hlxVf/0EyG16d/O///rhk/tTSOY3psOPQCWN8OSXEKltYS8Zu/tUIM8Qsvjwh3d9wjN4U1DC4p1M6Oy3vKQSCY3TCc4hZ7+PGjTp1cfsCWdr1Y+l+fI0sX6ib0Tqmu4I+LsX3m2KN2zvftK8el3Vfc3wu783SsfA+Wf6D7ziuE+mwZAf48u0raut4g63neanEl/8kPXc4t4ywnD5Plq/rkf/a+7Ss6by1dISu7dvSc9J9akZUIebRGY/K8ZKzFC3cC+iLTpPbNr03NRrlJOjzG+Vrzk2FqcnMLWvliOnarlUgxFJCHKYfa/lI37OGcHpdMg9Yf1H85+2GzxXUacnbrFDbb8WXFWd/erdkfvxDyfye9aL/d38pmWesaHPdxhRfTgkxb+rJHExbmhgLN8SstyPjqfFGpy61c+Nkj8x0fK5aiOmo2Jnscg9bPTjfnII9rjxl1/2r802xeNadMiwne77tmjqs5R1WlDjCZeKiHFs/t/J93Hyf9O34G8fjc0ZNHc9LRW7IyMn/Un7lA6OVrtDgnoJuZIhVmO6eOC/7ls0wfP1c63mp9NgCPr9RvuYmRuXKv5yR3MkTcuTlPuleNsdxPwW/IQ/sO1Pld9AMIZZw8gH2Rrbhi++DeGzrY65g0sX695Uv0s/7qmT+r/8wOUpWHBH7B+u/Oy2t/y6uF9P/tUKt5LaEWNjqCCtbYDgxhJhrd3D/XJWhY38vSw0XKHbqXAxcdZrFRI0LSk/6DVlzxDka6v9x5XFPH5a9KboXnrveFMu2UCjd5HRi5F3pq3jx5Zuk44H/IptWWn/AFT/WJrc8sE8+c07F6j5kPfe6rgeqWxH8nfR/clkulDw+d9QEfF6qclU+f7vXeJHqom23ybI+U4QpIYVY2f14cPaP5Yj7Itp53Bu02lYbbcoT4PmN8jVXtq7QpU717/uwwr9LdQixhKLTRnFZ/+XVoafuLw2mfX2ScS64zfxvknngbyTze4sl8/xxyWx9XDL/7vetj7vPqHxLMlseZkSsCRbWkcENudi/cjKCdLqk8wFZt0MXEQc4CruYGB2Sdwd+Jpu6fyxdSxdJZ+eiyanD7k3yzMtvyifF69rp9Nrfy5LOTlm0/CH5u77XPF7zTk+//yfZ39tt3f8CxzSeTu0tl3W9r0iueJmfKbw/rkkmzu6THxYeW+8BGSy7GLI7ZmfJ8n7n2+ZV+aTvntI3cPfVAMYuyyfH90lvT7c8vmaVrFrXLT29WXnt3SEZnXCvT7ICa9lzkiv7N7Kej8u/kg8GB2Vw8F3JDRV2j78uZ3dZx6Li7c1R4/d58YKucRvc/9+ku2vZ5DScunSVdBufRydhhdiXcvb4Aclms5Ld1Ss9+Yuqu31SNvXtmfyavQflzTMjFR/X+NkB+enja2XNQxvyt+3p3Ss//9R00fJy/Dy/0b7mfiNH1jjDvqAV/cu3ymsefx4ThFjCSGKAOXUHU1Sa4sspIVafBBnUz1QAncydlYsj5WN5Exdelgf1+ottt8qi7myNCDGg667m3CbzfvCo7BjI+dz9/LdyfJ3zjdd0hl/MKJtSDBpiaaWe19yEXP9klyzOXyTe+qOls8sK431y/JPL1UehPUCIJYSkB1jBxbsPGMMpbP9q/1JjgBUkxMKRIINosd44r1yUK763gwgB9w7vdU89N4AvjsiamyYfb9ushdL19AHj6CZUo9przvrcyJd1h5cbQizmFNaAmd4Ek+ju7ZuN4RS29+9/0BhgBQmxcNUgY1E/pIcJuXbyabm1OLJkWXNNUzyYGL0iv74S4FJb0DQIsZiSpEX4fjy1+WFjOIUtIdYcdVE/QQaJZ+KCDKy6dSrCTDvAA4QEIRZDdKonzttQ1OPnG+4yhlPYEmLNVafR2YcMEolh49TMtPsk+5n/RfcAXiDEYoSOJOg1AE1vbGly9ktHjfEUpoRYPNRRXXbqh2QwJiNnjskzq+a79oe6Se7o+acal4MCCA4hFgPSshDfqyt2Zo3xFKb3vbrFGGAFCbHGqdPrLOiH2DJ8XHoW/7l5N37LaQu3ynsseIcIIcSaTBrXgdXy4LYeYzyF6fLDe4wBVpAQa7z59WMXztmvfICYMH5aeueYNg3Vfcd22BcCB4gOQqxJtMo0pMmPNq40xlOYEmLxNX8dS6YrITaUb+LZNnuJdL/0nlz2te8YQDAIsQajb0D6RmR6g2oVr6y90xhPYUqIxdv8/mNcMgliwsTlQXkmv1P8/ycDg5/63PgVoD4IsQaibzytNg1ZyXkvHDIGVFgSYslQLyrO6BgAtDKEWAPQNxp9wzG9EbWqj/Q9awyosFx4+OfGACtIiMXH/GJ+RscAoEUhxCKGUTCzh3dsNAZUWN79+jFjgBUkxOIno2MA0IoQYhHBKFh1zz2xzBhQYUmIJVNGxwCg1SDEIkDPiEzrzvhhagqosCTEkm1+Z35GxwCgBSDEQqbVz4j04+LdB4wRFYaEWPLNX0icfccAIOUQYiGhu+O36r5gQd20Y5sxosLSFGAFCbHkOHbioP1bBgCQPgixEGBBfjCPbX3MGFBhaQqwgoRYstRd+ZmqBIA0QojVCVORwf18w13GgApLU4AVJMSSp/6xw1QlAKQNQiwgTEWGoymgwtIUYAUJseTKVCUApAlCLAD5syKZigzFFTuzxogKwx/u+7YxwlRCLNlyViUApAVCzCf617jpjQGDuXv7ZmNEheH9+x80RphKiCVfHZHWkWkAgCRDiPlA/wo3vSFgcD/auNIYUWFIiKXf/Lqxszn7NxQAIHkQYh7QKRDWg0XjlbV3GiMqDAmx1vHGqaP2bysAQLIgxGqgZ2mxS360zn7pqDGk6pUQay11xBoAIGkQYlVgUX5jjGrB/nf3/8gYYSohlk65cDgAJA1CrAI61WE60GP4HtzWYwypel1+eI8xwlRCLL3mF/ETYwCQEAgxA2NvZI0HeIzGc08sM4ZUvRJirSvXqQSApECIueDMyMY7smqmMaTqlRBrbdmJHwCSACHmgAhrnvNeOGSMqXokxJDtLQAg7hBiFmxP0Xw37dhmjKl6vPdwvzHCVEKstWR7CwCIKy0fYkRYPDy29TFjTNXj3a8fM0aYSoi1nsQYAMSRlg4xIiw+Dj11vzGm6pEQQ7fEGADEjZYNMSIsfppiqh4JMTRJjAFAnGjJECPC4uni3QeMQRVUQgwrSYwBQFxouRAjwuLr7u2bjUEV1I5DJ4wRphJiSIwBQBxoqRAjwuLtqc0PG4OqHk0RphJiqBJjANBsWibEiLD4+/mGu4wxVY+mCFMJMSxIjAFAM2mJECPCkuPsl44agyqopghTCTF0SowBQLNoiRBjx/zkuGJn1hhUQTVFmEqIoVsuhwQAzSD1IUaEJcuD23qMQRXUv9q/lBBDT3JtSgBoBqkOMSIseX60caUxqIJ6//4HCTH0LDEGAI0mtSGmaz5MB1qMtyOrZhqDKqiEGPpV15PqulIAgEaQyhAjwpLtvBcOGaMqiIQYBpEYA4BGkboQ02kFnV4wHVwxGT7S96wxqoJIiGFQdWkDAEDUpCrEJoYvEWEp8PCOjcaoCuJ9r24hxDCw1/t32EcXAIBoSE2IsVdYejz3xDJjVAVx+eE9hBjWJXuMAUCUpCbEru1cbzyIYjI1RVUQCTEMQ86kBICoSEWIjb2RNR48Mbku3n3AGFZ+JcQwDHXJgy59AAAIm8SH2I0P3zEeODHZbtqxzRhWfiXEMCw5kxIAoiDRIcYZkun11OaHjWHl14WHf06IYWhyJiUAhE1iQ4zF+en28w13GcPKr3e/fowQw1Bl8T4AhEliQ4zF+enXFFZ+JcQwClm8DwBhkcgQGztx0HhwxHS5YmfWGFd+JMQwCkfXz2e9GACEQuJCTP8SNR0YMX3u3r7ZGFd+JMQwKnVUHgCgXhIVYvoXqP4lajooYvr8aONKY1z5lRDDqNTReQCAekhUiOkZS6aDIabTK2vvNIaVXwkxjFLWiwFAPSQmxNgvrDWd/dJRY1z5kRDDKGV/MQCoh0SEGBfzbl0f6XvWGFd+JMQwark4OAAEJREhdnXrSuPBD9Pv4R0bjXHlxx/u+zYhhpE7fjZnH7EAALwT+xBjq4rW9twTy4xx5cf79z9IiGHk5q9HyRQlAPgk1iHGlCSOrJppjCs/EmLYKNnSAgD8EusQY0oS1XkvHDIGllcJMWykemIRAIBXYhtiTEliwU07thkDy6uEGDZSpigBwA+xDDGmJNHpsa2PGQPLq9/d/yNCDBsqZ1ECgFdiGWJMSaLToafuNwaWV5cf3kOIYcPlLEoA8ELsQuzGqaPGgxq2tqbA8iohhs1QL8cGAFCLWIVY/lqSTEmiwRU7s8bI8iIhhs1y7I2sfXQDADATqxDTdRWmgxni7u2bjZHlRUIMm6mueQUAqERsQkzXU5gOYojqqc0PGyPLi/ce7ifEsGnqmlcAgErEJsRYoI/VvLL2TmNkefHu148RYthU2VsMACoRixBjgT56cfZLR42hVUtCDJstC/cBoBJNDzEW6KNXgy7YJ8QwDrJwHwBMND3E9OBkOmghuj24rccYWrUkxDAOsuM+AJhoaojp2USmAxaiyY82rjSGVi07Dp0gxDAWXtu70T76AQBM0tQQ04OS6WCFaHJk1UxjaHmREMO4yHYWAOCkaSE2fuGc8SCFWM15LxwyhlYtCTGMi2xnAQBOmhZibFeBQXyk71ljaNWSEMM4yXUoAaBAU0KMzVsxqMe2PmYMrVoSYhgnGRUDgAJNCTFGwzCoQ0/dbwytWv7V/qWEGMZKRsUAQGl4iDEahvVqCq1a3r//QUIMYyWjYgCgNDzEGA3Del28+4AxtqpJiGEcZVQMABoaYoyGYRhu2rHNGFvVJMQwjjIqBgANDTFGwzAMT21+2Bhb1STEMK4yKgbQ2jQsxBgNw7D8fMNdxtiq5n2vbiHEMJYyKgbQ2jQsxBgNwzA1xVY1lx/eQ4hhbGVUDKB1aUiIsYs+hu2KnVljcFWSEMM4y6gYQOvSkBDjmpIYtge39RiDq5KEGMZdrkEJ0JpEHmJ6cDEddBDr8aONK43BVUlCDOOu/sEKAK1H5CF2vX+H8aCDWI9X1t5pDK5KLjz8c0IMY+/E1a/sIycAtAqRhpgeVEZXzzYecBDrdfZLR43RZfLu148RYhh7x97I2kdPAGgVIg2xG6eOGg82iGH4SN+zxugySYhhEtQ/XAGgtYg0xEbXzzcebBDD8PCOjcboMkmIYVLUP2ABoHWILMTYwBWj9twTy4zRZZIQw6TIVhYArUVkIcaWFRi1I6tmGqOrkoQYJkW2sgBoHSIJMV2kbzq4IIbt4t0HjNFlkhDDpMhWFgCtQyQhNnbioPHgghi2m3ZsM0aXSUIMkyKL9gFah0hCjEX62CiPbX3MGF0mCTFMkizaB2gNQg8xriuJjXToqfuN0WWSEMMkyaJ9gNYg9BBjkT42WlN0mbx//4OEGCZKFu0DpJ/QQ4yd9LHRrtiZNYaXW0IMk6aut21VMplIVs4AxI5QX+k3PnzHeDBBjNLd2zcbw8stIYZJU9fbtiqEGLQKob7Sr+1cbzyYIEbpqc0PG8PLLSGGSVTX3bYihBi0CqG90tk7DJvllbV3GsPL7Xf3/4gQw8R5vX+HfZRtLQgxaBVCe6VzgW9sprNfOmqML6fLD+8hxDBxxmF6UpedaBDqmZzOdcBXe+7Nz4ToWrawTywgxKBVCO2VzrQkNlMvC/YJMUyqzZie1FmOsTeyvk7A0lDT6wyHASEGrUIor3SmJbHZHtzWY4wvp4QYJtVGT09qTNWzMbf+Ya7vC/VAiEGrEMornWlJbLbnnlhmjC+nhBgm1UZOT4Z1PNdpy3pG8ggxaBVCeaUzLYnNdmTVTGN8OV362ouEGCbWRkxPhv1HtU5rBl07FjjExn8l2SUzrNvPkdUD52Xc/jBAXAklxNjEFePgvBcOGQOs4N2vHyPEMLHqeq0o0elI0/etVx0ZCzJNGTTExnO9Mse6rd6+vWtAhu2PA8SVukOMTVwxLj7S96wxwAoSYphkNWiiQkMpyj+og6xxY0QMWoW6Q0x/wUy/eIiN9tjWx4wBVpAQw6Qb1bUndbTN9P3C1O9jZ40YtAp1v9LrObMGMUyHnrrfGGAFCTFMurqGK2yiHg0reG3vRvs7eoMQg1ahrle6/oVj+oVDbJamACvYcegEIYaJVk+MCptGnfWuseedcflX33xU2nWtV/tqGRiuMME4PCBd7boebJZ0DVx0faxd5vSerjg1OT40KC/2dkmHfo+8M6Sze5cM5Fyrykbeku6O9tLvUcJFGeiaVeX7jUqud8Hk95jTKznmSsFFXSGmuymbfuEQm+Xi3QeMEVaQEMMk6y9mvKEjVabvFYV+NnvN/KtvlkdWCeNWc60uj7WaIXZNhgbWOgLMrXttWSG0Kiz+Hz8tvXM01KzbGkOrVqhBq1NXiLFtBcbN3ds3GwOsICGGSTfsbSwaubzEz5mfmczvVw+gSoFUNcTGZWTwSTvCdASsX3Ij9leM5OSV7s7JsMvMle7BK5Mft25TDD5DaDnP0sxkFkhvbtT+jE3x8Rg+B2BRV4ixbQXGzVObHzYGWEFCDJNu2NtYmL5HVPo5ezKT+Z/MI14FTNOSSrUQK45etUtH91syYn94ilpx546pwrTjdOno0NuVj94VQ63aFCu0NIFDLKo9ZxDr8fMNdxkDrCAhhklXr+cYJqbvEZV+HrvGUMXYsqgYOFVCrHYUVZjuLAac63EUPt7eJXv2dOVvVzp6N7U+zDyqB1BHiDXidGfEIJoCrOBf77uHEMPEGyam+49K3yEmV2Swe64hqqoETsUQ87Zofmqq0Tn6Zf5+xa/V+7tif9+SyCuMsFVa5wZQR4jpL5TpFw2x2a7YmTVGmHr//gcJMUy8fha918J0/1Hpb43Y5NtTSewU+qbSCJVSMcSmph29WXrf5Y+jMHpW+D6G6Ko4pQkwReAQM/2SIcbBg9t6jBGmEmKYBsNcJ6Y79pu+RxQGCbGp6JqKmapTjJVCrHg/+jkvuiKvLKoK4VX4b3eYOR5nlRE4gEAhpmftmH7JEOPgRxtXGiNMJcQwDYa5Tqyh21f4OONTY2iSwrRgIXBqrLvyMCIWbL2Wa8Sr8H2ckVXyMffjBjATKMTYPwzj7JW1dxojTCXEMA2GuZ9Yo64XrNtk+GEqxFwjS2NVpiUVDyEWbIRqaiF/e9crctY1+jWJc5TsbGm4AVQgUIixfxjG3XkvHDKG2H2vbiHEMBWGuZ9YI7Yi8jud6gyxkunJt/ZNhlbHkzJY2APMScUQc5wR6Zjm9MNUEPZIdouOdrkjyzEKtmWXbNHHXPEMTYBJAoUY15fEuPtI37PGEFt+eA8hhqkwzOtORn0WvIZefRf9ngqcWztuNYxEOagYYhbFyxVlpH1JVs6b7mD8vAysWSO9pw2Tl+51ZobIKsRae0eH3Kr/y7YVUAPfIaYXiDX9oiHGycM7NhJimGr9XkS7FlEu2g9yckFpiDlGo/JWGdGqFmIllzdql46uXse1JcdlJNcv3Z0zJr+HccTNMb1paYysklirEowANr5DjI1cMQmee2IZIYapVsMpTHSqM4opyqAnFmjIlOAMnGprvKqGmDIsuezqKteatOxYKwND1+yvd+Kc3qy09mvqZIKgU6DQWvgOsaiHsBHDcGTVTEIMU2/Y6HSn6fsEVWNRZ1GCoCFTisezEGuGmKKjX4cl29tVEmTtnd2y58VBGao2hFW8/8qRxbYV4Affv8ks1MekuHj3gbIQ+4vDrxFimBrD3Ni1gJ5FGcbIWD0RppSHGEA68f1KZ6E+JsVNO7aVhdjdrx8jxDA1hrlg34kurK/n6ilB1oS5IcSgVfD1SmehPibJY1sfI8Qw1V7v32EfnaNBQ89rkOkomp5A4PfsyEoQYtAq+Hqls1Afk+TnG+4ixDDVhrnDfjU0rnQjbw0t/Z5OdfRLpzPrmYY0QYhBq+Drlc6O+pg0CTFMszoKlVYIMWgVfL3SdRjcdDBAjKsrdmbLYowQwzQZ9khUXCDEoFXw9UrXYWjTgQAxru7evpkQw1QbxZmTcYAQg1bB1yudMyYxaX60cSUhhqlWl4ykEUIMWgVfr3TTQQAxzl5Zeychhqk2jK0iAKB5eA4xvfyF6SCAGHdnv3SUEMPUqktGACC5eA8xtq7AhOpesH///gcJMUyNYV9zEgAai+cQ4xqTmFQPbushxDDVAkByIcQw9Z57Yhkhhqk2rVtYALQCnkOMrSswqY6smkmIYapN6xYWAK0AIYYt4bwXDhVD7Lv7f0SIYaokxACSi+cQ00tpmA4AiElw045txRBbfngPIYapki0sAJKL5xAz/fIjJsVjWx8jxDC1EmIAycVTiOlCUNMvP2JSHHrqfkIMU+u1vRvtozUAJA1PIcYeYpgGCTFMq2zqCpBcCDFsGRfvPpAPsaWvvUiIYaokxACSi6cQu3HqqPGXHzFJ7t6+OR9id79+jBDDVDm6fr59tI6Wr8ZuSO7ySNFzI+xfBlAvnkKMzVwxDZ7a/DAhhqk1KjS4Nr7/K5n/+qni9L7blSdycvDMBbk0es2+FQB4hRDDlvHzDXfl3zQIMUyjYaMBpoHljq5a7vjlufzIGQB4gxDDlnL2S0cJMUylYaIxZYosr85+9Rf5kAOA2nj67b22c73xFx8xaa7YmZWOQycIMUydYeyuryNZ69/52BhXQTw6dMm+5zgyKrneBZLJZCTTvloGhsftj3tk/LT0zmnP3769a0CG7Q8D+MVTiHF5I0yLB7f15N8gCDFMm2GEmK4Fc8dUvcY3xggxiAeEGLaUH21cmX9zIMQwbdYbYtlPhsoiKgx1mjKei/ijDLGLMtA1a/K+5/RKzuddJ57hAelqt372TLvM6T0trfbj+4UQw5byyto7828OhBimzXpCTEPJHVBhqov+4wchFhmEmC8IMWw5571wiBDD1FlPiIW5LqyS8Vu8T4hFBiHmC0IMW85H+p6VXz+xwPg5xKQaNMSiHg0rqLEXnGHJDWSlt2vOZNzknSGd3btkIFdjddZITgZ6u6Sj5HZZGRyy7rNmiI1bNx8o/b7tndKdHZShsfIQG8/1ypzC15VZOUrGhwblxZLH2C4dXVskO5CTmvmqP9+ebunMh8+k7Z3dsudF6zFWKyC9XXaLdHVM/gx59Wfbc1hyI6YbOsJV43JsSAa3Fx7zLOkaOD/1eaMLpDc3at8XOCHEsOU8vGOjfPaT/2T8HGJS1SugBEE3YjWFUxQG2l9s5LRkSwLM7RxZbUWAOXBekdXO0HDafpd0rbDv1xhi12RoYK0jjkpt71whK+z7Dh5i1b/HZJBlK4SRFYmnt5cEmNv2zu1yuuy2GpfZ0gBz27FWBobc6/ocIdaxQrpL/k0IsXrwFGKmX3rEpHruiWWEGKZO3e8xCEE2bQ3qO5//1v6uXrkig91zJ9/IdbTmlakRovGht2R7IQbavyfZ865wGP+VZJfMMNzWNMpVHmLj57OyxI6c9s4n5ZXiyJuOzvWWhEywqUnrcQw+aUeYBlefDBbiZ3xIBrOFUS7rc6tfKRvdqvr4XnmyGGjtS7Jy3nnbkbekuxCQJbezonCwr/hzld3OGWKq69+jBKYmfUGIYUtKiGHaDBpielajKZqiUM/M9EXxDV1HXC7aH3RQjAr3G/64ddPV0p6PhrnSPXjF/riDklBzh5gjpDqelEHDiFRJCAUJseIaM3No6c8wFWrun8ERqMbH57ytcyTK8bwYRwEr3U5xhliF57QAIeYLQgxb0t+t/N+NH0dMqkFDzBRMUan7lPkhv3Yqm5VsttK6pangKY2hSh93UmWxfq0AVOparO8MIsNoXpEKP4evx+eMIR31OmA9n9ZzWmn9WcX7rvJ8uSHEfEGIISKmwCSEWPjbWFQIFWOEuKkcFlNrvaqsa6orxBzfu+LUpWIawXKO9kWw7ooQaziEGCJiCkxCiAU+c1LXTL24x3XWZKm+R4wqhkWt6TubukKsQkCWYYouj4+vBpOjja6zJkskxBoFIYaImAKTEGK+14hZb+E1z/CzTVSIVb2tE1OI+QgiI8OSy66ucqZmQUKsURBiiIgpMGiINfKsSd/XnXSc4Zfp6JLesr2xKowsMSJWAfeZmlvkxcGh0lCq+NwRYlHhKcSu9txr/MVHRMR4GDTEdvzynDGaotDfNSedwVFpQXuFoClGEmvESnE8X2XbU9gQYg3HW4ixoSsiYqwNurP+uZGvjNEUtvf+4wf2d/SKl1ipNLLkZcSpSlh4GVGrK8S8RKZS4efw8viKt3XEkJdAJcQaDiGGiJgC67nWZCOmJ31PS3p446+8l1e1Pbhsqu4jVmufrmrfW6kVYhaOPdD87yPmCDTj7vnOx+cYNasaj8o1OZ/9nj3aRog1CkIMETEF1hNiekFuUzyF5fzXT9nfyR9TMVFt5/lJy8KiqTvrexnxcq/Xcvx8+j2Ku+ObQ63y46u2Q74ztOZI1/a3iverZ1Fmuzvtz6l1hJgzFCtNgUIRQgwRMQXWE2KKbi1hiqgw1NALhjMcym3vXCsbOu3YMow8Vb/WZKds2GCHhzEsal1rcup7G0eXiqNCBU2jQ0241qQzUMucIZ0b1hYDsPTx+gkx5zq2gn7Xs7UOhBgiYgqsN8T0gty6jssUUvXof8sKNzrCs881gtUp3Vk9g9JDHIzkZKC3yxE7Vmx0Z2VwaNQxalUpLEyjZ4XvXWH9VhG9bb90F0LRGGKT5Pf0KnmMGmBbKu9+70R/vj2u0cHObtlT7bb5fdlK9xDT22T1DMqK05d+QkwpveYlIVYZTyF2bed64y8+IiLGw3pDTNGzGsOMMb+XNAJoRTyFmJ4WbfrFR0TEeDhx9Sv7iF0fOjIWxuL9+kfCAFoDQgwRMQWGzcEzF2T2q78wRlY1dUQt+JowgNaDEENETIFRoKNjGmR61qMpupzqYn8CDMA/nn57b5w6avzFR0TE5ju6erZ9tI4OXT+moaVTjgV1bzDiC6A+PIWYLgI1/fIjImLz1TPbASCZEGKIiAmXEANILp5CbGL4kvGXHxERm69uMQQAycTzCk/TLz8iIjZfPaEKAJIJIYaImHAJMYDk4jnEuMwRImI8vfHhO/aRGgCSBiGGiJhww7i8EQA0B88hdr1/h/EAgIiIzVVPqAKAZOI5xNhdHxExngJAcvH8G6xrEEwHAEREbJ5Xe+61j9IAkEQ8hxibuiIixk82cwVINr7GtE0HAUREbJ66fhcAkouvENMLy5oOBIiI2BzZQwwg2fgKMbawQESMl2xdAZBsfIXYtb0bjQcCRERsjmxdAZBsfIUYW1ggIsZLAEg2vn6LOXMSETE+NvKMyYu/G5L/8dkJOfbxgRI/ufCeXB0btb8KAPziK8Qmrn5lPBggImLj1eUiUfK70cvy2uk90vPaMvnbfd+s6taf/zAfagDgD9/j2pw5iYgYD8dOHLSPzOGiI1w62mUKrlpqtJ2//Il9TwBQC98hxpmTiIjxMIozJnUKUke3TJHlRx1JA4Da+A4xFuwjIsZDXS4SJhphj/b/J2NYBfEfTv03+54hFYz/SrJLZkgmM0dWD5yXcfvDUB++Q4xrTiIiNt/R9fPto3I46HRkmBFWkJGx9DCe65U5mYwVYhlp7xqQYfvjUB++Q0z3rDEdFBARsXFe27nePiqHwzNvPmoMqTDUMyuDMS7DA6ulPf/mv0B6c5ydGR0enmtGxCLBd4gpLNhHRGyuYS7U11AyBVRY6gL+YFtcEGKNg+e6WQQKMRbsIyI21zAX6nvZnqJeg21tQRw0Dp7rZhEoxFiwj4jYXMNCF+ibwilsNfY8M35aeue0W0GgUWBwTq/k7HmxqXVLGg/DMjTYJ10dk7ctW8c0kpOB7Jbi5/O2d0r3nsOSGzFNtI1KrneB43tes+5/n/R2zSm9fXZQhirO0w1LbiBbepvMDOns3iUD1uOtiu/H60S/7y7p7tSpROdtD8jg0DX7ayx8PNdWqUlXu368Xeb0nq44NTk+NCgv9nZJR/F+2qWja4tkB3IyYn9NCcXHYN/v+JAMvlj6c7d3dkt2cKji90wygX6b2WEfEbF5hrmjvi6mN4VTFGr0eSJQiM2Rru4Vjjd/Z4iNW02TLQ0atx1rZcAZKHmcIbZB9mxZYo8YubVCo/ut8sgYPy8Dq50B5tYKst73DHES9PHajLwnvc4Ac9u+RHpP2xEYaohZoTqwtuTfoFQNsmx5RDpDrLtPtlR87HOle/CKfaP0EPjPKtPBARERo/d6/w77SFw/US7Sd/uLX71uf1ev1J4uc57JNznS1F/+Rj/ylnTbUdPe+aS8UhyJ0hEuxwjakqycL7mpI8TyWrHXOzB1/yOnJVsc6XI/vmtyPvs9+7Fbt8ueLgbX+NBbsr14O0NcBH68FsUF9dZ96wjYK4VRKI27/qkRsvbvSfa8M+Q8TE1WDTHr/geftCNMg6tvauRNR7iy3dJp37Zj9SulI4juGOzokt7i6JkrSp1hmBIChxjrxBARm6NuIxQWpmCKSt2t3x9+QqzCqJTzPtpXy8BwWbk4AsL9PZwhNkOWZH9lfbWLYjS54sQ93WZ/uIgjPkqnUOt5vM7PVRg9qvR4nd83SIg5ft6y0MpT5bE5Q6wsEJVqP3PyCRxi+heZ6QCBiIjRGuZGrqZgisrsP/m9NqafEJslXQMX7Y860VGkA5LNZiuvUSoGhvs+HCFmjCLlogx0zcp/TUlQ1Qqxio+rnsdb4bGU4F73Zn/Yw3NdOcSc8WgKqQK1nqsqj7viz5x8AocYG7siIjbeqz332kfhcDAFU1TqNKg/wggxD0QRYo6P61Tb9jAXmld6vBVDyQv1hFiluHPjDDbH80mIBUP/IjMdJBARMTrDXB+mmIIpKv1f8ijcEMufzec+C7HEMENMv98rsrrke+kasz2SfbHaWZZT+H68dcVKPSHmZSROqfA9CLHgsE4MEbGxhrk+TIniskaVjHaNWLU36GHJZVfba4yqGW6I5dEtKPYUFqo7dS1oLyHY461vdLCOEPMSUnkIMRN1hRj7iSEiNtaw0XVbpmiKQv+XOgojxJwLvTV+tsiL7mnCim/yIYRYEetx5A5LNrvHtQ9Z+dmLgR9vXbFSR4gxIlYXdf1Wj184ZzxQICJi+Ia5f1gB3VLCFE1R6P8yR2GEmCMSTNs9KA0JsVKc05alt6vj8VYMJS/UE2KsEauHuv+84rqTiIiNMczrSxb43ehlYzSFrf8zJpUQQqz4Jl8lTkIPscLoV7bKerAK8VLX4/UShY7nlLMmY0HdIXZt70bjAQMREcN1YviSfeQNF11Eb4qnMD1/+RP7u/khzBCr9Cbv3Hg1rBBzPq5Ku8HXCrEgj9cZRI7d850UN3ytElO+Q8zCsT9ZPfuIEWIBuHHqqPGAgYiI4Tm6fr591A0fHRWLctF+sNEwm+IbsHlD1dpTk64d7re/VYwEPSsx291pf850H8FDrPIO9xa60/z2wrUY3T9XPY/Xosr3LdnR3zRyVeO5rhpiJaHlPhFhWHKvPOlpZ31CLABsY4GIGL1hb1vhJqq1Yhp4GnrBmQqdoo4RpNohZuGMkzJnSOeGtcVIKA2MOkJMqXXNx0qjR4Efr42fa02WUP25rh5iyrU6rzVJiAXm2s71xgMHIiKG4/jZnH3EjY4opig9X+i7GiM5ecU5EuQ3xBQdhXqxdE+u9s5uyeoZiRVDoM4QyzMsuYFdU9d4zKtBYjgb0kmgx+vE8H11hGzP4fIQclLlua4dYpPk9z/rLYz4TX69/rwVrxRAiNWPLiA1HTgQEbF+9aSoRhFWjOlImP/tKgBaj1BCTBeQmg4eiIhYv3pSVCOpd5qy57Vl4YyEAbQAoYSYotc/Mx1AEBGxPsPeTd8Luq7L72avOgrmf/d8gNYmtBBjehIRMXwbOS1pQoPstdN7ZOvPf1gxvjTY/sdnJwJs2AoAoYUY05OIiOHb6GnJWmhs6Z5gwfYFAwA3oYWYwvQkImK4NmNaEgAaR6ghxuauiIjh2expSQCInlBDjM1dERHDM+pNXAGg+YQaYgqbuyIihuP4hXP2kRUA0kroIabrGUwHFERE9K6uuQWA9BN6iCm6rsF0YEFERG/qlkAAkH4iCTFd12A6sCAiojd1zS0ApJ9IQow9xRARgxu3vcMAIDoiCTHl6taVxgMMIiJWd/xszj6SAkDaiSzE2FMMEdG/o+vn20dRAGgFIgsxRQ8opgMNIiKaZZE+QGsRaYiNvZE1HmgQEbFcPeOcRfoArUWkIcaifURE77JIH6D1iDTEFD2wmA44iIhYqv7xCgCtReQhppfoMB1wEBFxSj3THABaj8hDTGErC0TE6rJlBUBr0pAQ0wOM6cCDiIhcVxKglWlIiClsZYGIaFb3XQSA1qRhIcYGr4iI5bKBK0Br07AQUxgVQ0QsldEwgNamoSHGqBgi4pSMhgFAQ0NMYVQMEXFSRsMAoOEhxqgYIiKjYQAwScNDTGFUDBFbXUbDAEBpSogxKoaIrSyjYQBQoCkhpjAqhoitKqNhAFCgaSHGbvuI2Iqyiz4AOGlaiClcgxIRW02uKQkATpoaYoyKIWIrqX98AgA4aWqIKdf2bjQesBAR0+b4hXP2kQ8AYJKmh9jE8CUZXT3beNBCREyL+kcnAICbpoeYMvZG1njgQkRMg/rH5sTVr+wjHgDAFLEIMT1AsZ0FIqbVsRMH7aMdAEApsQgx5caH7xgPYIiISZbNWwGgGrEJMYXtLBAxbbJdBQBUI1Yhpgv3TQcyRMQkygJ9AKhFrEJMYeE+IqZBFugDgBdiF2IKC/cRMemyQB8AvBDLEGPHfURMsuygDwBeiWWIKdf7dxgPcIiIcTY/JTl8yT6SAQBUJ7Yhxt5iiJhEdZ0rAIBXYhtiClOUiJgkr/bcax+9AAC8EesQU5iiRMQkyJQkAAQh9iHGFCUiJkHOkgSAIMQ+xBSmKBExznKWJAAEJREhprDRKyLGUTZuBYB6SEyIKboQ1nQgRERsljc+fMc+QgEA+CdRIaYLYfWvT9PBEBGx0erJRAAA9ZCoEFP0r0/TARERsZHqCD1TkgBQL4kLMeXa3o3GAyMiYiPUkfnxC+fsIxIAQHASGWIK68UQsVneOHXUPhIBANRHYkOM9WKI2Ax1RB4AICwSG2IK68UQsZFyCSMACJtEh5jC/mKI2AjZLwwAoiDxIaZc27neeOBERAxLFucDQBSkIsT0r1QW7yNiVLI4HwCiIhUhprB4HxGjkMX5ABAlqQkxRacOTAdSRMQgcjFvAIiaVIWYolMIpgMqIqIf2TkfABpB6kJM4UxKRKzH/BmSw5fsIwoAQHSkMsQULoOEiEHk8kUA0EhSG2KKru8wHWgRESs5fjZnH0EAAKIn1SHGthaI6Ee2qQCARpPqEFOIMUT0IhEGAM0g9SGmaIyxxxgiVvJ6/w77aAEA0FhaIsQUXXxLjCGiWzZsBYBm0jIhphBjiOiUCAOAZtNSIaYQY4ioEmEAEAdaLsQUYgyxtSXCACAutGSIKcQYYmtKhAFAnGjZEFOIMcTWkggDgLjR0iGmEGOIrSERBgBxpOVDTMnH2Pr5xoM3IiZfIgwA4gohZsMO/IjplB3zASDOEGIOiDHEdEmEAUDcIcRcaIxd27neeFBHxGSo6z6JMABIAoRYBXRNiekAj4jxViNM130CACQBQqwKY29kjQd6RIynurSACAOAJEGI1UCnN0wHfESMlxphurQAACBJEGIeYK8xxHjL9hQAkFQIMY9MDF/ijErEGDp24qD9WwoAkDwIMR/kz6hkET9iLMyfGfnhO/ZvJwBAMiHEAqB/gZveGBCxMbIoHwDSAiEWkPGzOdaNITZB3eePRfkAkBYIsTpg3RhiY2U9GACkDUIsBK737zC+aSBiOOpF+ZmKBIA0QoiFhC4aZqoSMXyZigSANEOIhUh+qnLrSuObCSL6U/+wYSoSANIOIRYBXBoJsT45KxIAWgVCLCL0TYSF/Ij+1TWXAACtAiEWIbquhYX8iN7ML8g/m7N/ewAAWgNCrAHk9xyz3mRMbz6IODkKxoJ8AGhFCLEGwegYYrmMggFAq0OINRjWjiFOqie1MAoGAK0OIdYk9E2IfcewFdUtXjgjEgBgEkKsiei+Y7pZpenNCjFt6h8eN04dtV/9AACgEGIxgMX8mHZZjA8AYIYQixFMV2LaZBoSAKA6hFjM0FGDa3s3Gt/UEJOijvDq9VcBAKA6hFhM4bqVmES5PiQAgD8IsZij68cIMoy7+QBjOwoAAN8QYgmBBf0YV3UqnQADAAgGIZYw9PR/gixaT34rI/86k5HM/5qRl5dMfuzThRlZYf135hbr/zu+9jnrvzP6tQWt/372/5j8/3dZ93PR8bVpMx9gw5fsVyYAAASBEEsoGmTs0B++X/zfGfljK7iOLpsMsj+YlZFfL7Ui7N9Y0WV9znSbgqesr/+LP8nI+v/Fuv39GXl0RkY+tkLuL75mfe775tskUQIMACA8CLGEwxqycP3dwozM/D+t/9X/tiLqrv85Iwfn2yNkqmOUrESNNetrX/5Ly8KI2DczssmKsedMX58wWQMGABANhFhK0CBj24v6dY6IffofM/KHVlw9ZwXVv/63Gfn4+9bHrUj7g0KoOfy19bV/bH3cORX58Z9m5F7LLxwfS5o6DU6AAQBEByGWMnTKSHcxZ2PYgFqxVRjRKqz5GviWFVmWGlQ6YvYHrnVieptN/8bSMXX5xRIrwmZk5CWNOOt+/tC6z08TND2p095cjggAIHoIsZSiIxi6nxML+wNqB5kG2NB/tGLKHiXTEbFClBW+9qIVZ3+sa8kct31OpyQXZeTRwnox/d/vTd0mruqoqo6uAgBAYyDEWgCmLf356Z/aa7z+0B7FsqPMuUZMz5ZcYQVaPrr+rf3/DfdVOAMzziNiTD8CADQPQqyFYJQMnWqccxkiAIDmQoi1KHohZn0jZi1Za1lY+8XoFwBAPCDEID8qcm3neuMbNybf4tQje38BAMQOQgyK6CiJjpYQZclX40vPntWRTwAAiC+EGBgpRhnTl4lRpx115Iv4AgBIDoQYeELPvMzvT8ZC/1ipo5d6AgbTjgAAyYQQA9/om35hCpPRssaqo175KUf2+gIASAWEGNSNToXpqAxhFr6F8NITKjjTEQAgfRBiEDoaZoX1ZRoSpsDAcjVi9QLu+XVeZ3OEFwBAC0CIQUPQsMiPmhFneZ3RlR/tYo0XAEBLQohB08iPnFkRojGi05oaJqZoSbJ6coP+XDq9qCHKSBcAADghxCB2aKhosBQiTSNGYyaOoVYIrfzZi9ZjLUwrsoUEAAB4gRCDRFKItYKFCCrojDe/OqOqoK55K34/IgsAAEKCEAMAAABoEoQYAAAAQJMgxAAAAACaBCEGAAAA0CQIMQAAAIAmQYgBAAAANAlCDAAAAKBJEGIAAAAATYIQAwAAAGgShBgAAABAUxD5/wG+toZLBXVCewAAAABJRU5ErkJggg==;" vertex="1" parent="1">
          <mxGeometry x="857.46" y="31" width="156.32" height="98" as="geometry" />
        </mxCell>
      </root>
    </mxGraphModel>
  </diagram>
</mxfile>
